<?xml version="1.0" standalone="no"?>
<!DOCTYPE svg PUBLIC "-//W3C//DTD SVG 1.1//EN" "http://www.w3.org/Graphics/SVG/1.1/DTD/svg11.dtd" >
<svg xmlns="http://www.w3.org/2000/svg" xmlns:xlink="http://www.w3.org/1999/xlink" version="1.1">
<metadata>
Created by FontForge 20201107 at Fri Mar  4 12:43:11 2016
 By Jimmy Wärting
Copyright \(c\) 2015 by Roch Modrzejewski. All rights reserved.
</metadata>
<defs>
<font id="Pusia-ExtraBold" horiz-adv-x="0" >
  <font-face 
    font-family="Pusia ExtraBold"
    font-weight="400"
    font-stretch="normal"
    units-per-em="1000"
    panose-1="0 0 5 0 0 0 0 0 0 0"
    ascent="800"
    descent="-200"
    x-height="512.79"
    cap-height="690"
    bbox="-444.861 -296.771 2008.48 1104.5"
    underline-thickness="50"
    underline-position="-100"
    stemv="210"
    unicode-range="U+0020-2E18"
  />
<missing-glyph horiz-adv-x="725" 
d="M41.5195 690h642v-870h-642v870zM671.52 -168v846h-618v-846h618zM290.71 70.0596c-49.9902 27.4297 -94.0303 72.2393 -120.99 123.079l71.4805 71.7598l-71.4805 71.7598c26.96 50.8398 71 95.6494 120.99 123.079l72.2803 -72.5703l72.2803 72.5703
c49.9902 -27.4297 94.04 -72.2393 121 -123.079l-71.4805 -71.7598l71.4805 -71.7598c-26.96 -50.8398 -71.0098 -95.6494 -121 -123.079l-72.2803 72.5596z" />
    <glyph glyph-name=".notdef" horiz-adv-x="725" 
d="M41.5195 690h642v-870h-642v870zM671.52 -168v846h-618v-846h618zM290.71 70.0596c-49.9902 27.4297 -94.0303 72.2393 -120.99 123.079l71.4805 71.7598l-71.4805 71.7598c26.96 50.8398 71 95.6494 120.99 123.079l72.2803 -72.5703l72.2803 72.5703
c49.9902 -27.4297 94.04 -72.2393 121 -123.079l-71.4805 -71.7598l71.4805 -71.7598c-26.96 -50.8398 -71.0098 -95.6494 -121 -123.079l-72.2803 72.5596z" />
    <glyph glyph-name="A" unicode="A" horiz-adv-x="707" 
d="M500.68 681.89c75 -219.28 140.649 -435.499 195.26 -673.789c-69.0596 -16.9902 -149.149 -16.9902 -219.949 0c-5.54004 31.2803 -11.4297 62.71 -17.6201 94.0596h-206.55c-6.13965 -31.3398 -11.9297 -62.7803 -17.2998 -94.0605
c-72.3799 -17.1504 -153.76 -17.1504 -223.5 0c54.5898 238.29 120.21 454.51 195.19 673.79c93.5996 17.0703 200.869 17.0703 294.469 0zM284.539 254.791h141.09c-21.7002 93.5303 -45.4805 182.41 -69.8506 259.5h-1
c-24.3701 -77.0898 -48.4297 -165.97 -70.2393 -259.5z" />
    <glyph glyph-name="Aacute" unicode="&#xc1;" horiz-adv-x="707" 
d="M350.44 715.57c-26.9502 23 -49.2705 55.0791 -61.2705 88.0693c42.0996 50.7002 99.9395 100.181 158.76 135.811c38.5801 -29.8604 69.1299 -73.8799 83.8398 -120.84c-64.3096 -26.9297 -130.369 -64.4697 -181.329 -103.04zM500.681 681.89
c75 -219.28 140.649 -435.499 195.26 -673.789c-69.0596 -16.9902 -149.149 -16.9902 -219.949 0c-5.54004 31.2803 -11.4297 62.71 -17.6201 94.0596h-206.55c-6.13965 -31.3398 -11.9297 -62.7803 -17.2998 -94.0605c-72.3799 -17.1504 -153.76 -17.1504 -223.5 0
c54.5898 238.29 120.21 454.51 195.19 673.79c93.5996 17.0703 200.869 17.0703 294.469 0zM284.54 254.791h141.09c-21.7002 93.5303 -45.4805 182.41 -69.8506 259.5h-1c-24.3701 -77.0898 -48.4297 -165.97 -70.2393 -259.5z" />
    <glyph glyph-name="Abreve" unicode="&#x102;" horiz-adv-x="707" 
d="M353.19 711.52c-85.9805 0 -140.141 47.8496 -148.671 131.359c32.7002 10.8398 79.1006 10.8398 111.811 0c7.17969 -17.9404 19.7295 -27.0801 36.96 -27.0801c17.9297 0 30.8896 9.13965 38.1895 27.0801c32.7002 10.8398 79.1006 10.8398 111.801 0
c-8.57031 -83.5098 -63.25 -131.359 -150.09 -131.359zM500.681 681.89c75 -219.28 140.649 -435.499 195.26 -673.789c-69.0596 -16.9902 -149.149 -16.9902 -219.949 0c-5.54004 31.2803 -11.4297 62.71 -17.6201 94.0596h-206.55
c-6.13965 -31.3398 -11.9297 -62.7803 -17.2998 -94.0605c-72.3799 -17.1504 -153.76 -17.1504 -223.5 0c54.5898 238.29 120.21 454.51 195.19 673.79c93.5996 17.0703 200.869 17.0703 294.469 0zM284.54 254.791h141.09c-21.7002 93.5303 -45.4805 182.41 -69.8506 259.5
h-1c-24.3701 -77.0898 -48.4297 -165.97 -70.2393 -259.5z" />
    <glyph glyph-name="uni1EAE" unicode="&#x1eae;" horiz-adv-x="707" 
d="M352.96 842.64c-24.5703 20.96 -44.9092 50.1992 -55.8496 80.2695c38.3799 46.21 91.0898 91.3096 144.71 123.79c35.1699 -27.2197 63.0098 -67.3398 76.4199 -110.14c-58.6201 -24.5498 -118.83 -58.7695 -165.28 -93.9199zM352.711 711.519
c-85.9805 0 -140.13 47.8496 -148.67 131.359c32.71 10.8398 79.0996 10.8398 111.81 0c7.17969 -17.9404 19.7295 -27.0801 36.96 -27.0801c17.9297 0 30.8896 9.13965 38.1895 27.0801c32.7002 10.8398 79.1006 10.8398 111.811 0
c-8.58008 -83.5098 -63.2598 -131.359 -150.1 -131.359zM500.682 681.889c75 -219.28 140.649 -435.499 195.26 -673.789c-69.0596 -16.9902 -149.149 -16.9902 -219.949 0c-5.54004 31.2803 -11.4297 62.71 -17.6201 94.0596h-206.55
c-6.13965 -31.3398 -11.9297 -62.7803 -17.2998 -94.0605c-72.3799 -17.1504 -153.76 -17.1504 -223.5 0c54.5898 238.29 120.21 454.51 195.19 673.79c93.5996 17.0703 200.869 17.0703 294.469 0zM284.541 254.79h141.09c-21.7002 93.5303 -45.4805 182.41 -69.8506 259.5
h-1c-24.3701 -77.0898 -48.4297 -165.97 -70.2393 -259.5z" />
    <glyph glyph-name="uni1EB6" unicode="&#x1eb6;" horiz-adv-x="707" 
d="M353.19 711.52c-85.9805 0 -140.141 47.8496 -148.671 131.359c32.7002 10.8398 79.1006 10.8398 111.811 0c7.17969 -17.9404 19.7295 -27.0801 36.96 -27.0801c17.9297 0 30.8896 9.13965 38.1895 27.0801c32.7002 10.8398 79.1006 10.8398 111.801 0
c-8.57031 -83.5098 -63.25 -131.359 -150.09 -131.359zM500.681 681.89c75 -219.28 140.649 -435.499 195.26 -673.789c-69.0596 -16.9902 -149.149 -16.9902 -219.949 0c-5.54004 31.2803 -11.4297 62.71 -17.6201 94.0596h-206.55
c-6.13965 -31.3398 -11.9297 -62.7803 -17.2998 -94.0605c-72.3799 -17.1504 -153.76 -17.1504 -223.5 0c54.5898 238.29 120.21 454.51 195.19 673.79c93.5996 17.0703 200.869 17.0703 294.469 0zM284.54 254.791h141.09c-21.7002 93.5303 -45.4805 182.41 -69.8506 259.5
h-1c-24.3701 -77.0898 -48.4297 -165.97 -70.2393 -259.5zM281.07 -54.1094c47.1396 15.6104 101.17 15.6104 148.31 0c12.6797 -43.5898 12.6797 -93.54 0 -137.12c-47.1396 -14.2598 -101.17 -14.2598 -148.31 0c-12.6797 43.5801 -12.6797 93.5303 0 137.12z" />
    <glyph glyph-name="uni1EB0" unicode="&#x1eb0;" horiz-adv-x="707" 
d="M406.97 922.91c-10.9297 -30.0703 -31.2803 -59.3096 -55.8398 -80.2695c-46.46 35.1504 -106.67 69.3701 -165.29 93.9199c13.4199 42.7998 41.2598 82.9199 76.4199 110.14c53.6201 -32.4805 106.34 -77.5801 144.71 -123.79zM351.278 815.801
c17.2197 0 29.7686 9.13965 36.959 27.0801c32.7002 10.8398 79.1006 10.8398 111.801 0c-8.53027 -83.5098 -62.6904 -131.359 -148.671 -131.359c-86.8398 0 -141.52 47.8496 -150.09 131.359c32.7002 10.8398 79.1006 10.8398 111.811 0
c7.29004 -17.9404 20.25 -27.0801 38.1904 -27.0801zM500.678 681.891c75 -219.28 140.649 -435.499 195.26 -673.789c-69.0596 -16.9902 -149.149 -16.9902 -219.949 0c-5.54004 31.2803 -11.4297 62.71 -17.6201 94.0596h-206.55
c-6.13965 -31.3398 -11.9297 -62.7803 -17.2998 -94.0605c-72.3799 -17.1504 -153.76 -17.1504 -223.5 0c54.5898 238.29 120.21 454.51 195.19 673.79c93.5996 17.0703 200.869 17.0703 294.469 0zM284.537 254.792h141.09
c-21.7002 93.5303 -45.4805 182.41 -69.8506 259.5h-1c-24.3701 -77.0898 -48.4297 -165.97 -70.2393 -259.5z" />
    <glyph glyph-name="uni1EB2" unicode="&#x1eb2;" horiz-adv-x="707" 
d="M288.07 931.86c-23.9004 12.9805 -38.9697 34.5107 -41.7197 59.4912c26.0596 36.5 66.8496 57.4102 111.97 57.4102c59.5098 0 98.7197 -33.4004 98.7197 -84.1104c0 -56.1904 -39.0195 -100.521 -107.119 -121.69c-23.4404 11.6396 -38.7207 33.3301 -42.3203 59.9502
c17.6104 9.16016 27.71 20.1797 27.71 30.2598c0 8.32031 -6.30957 13.5898 -16.25 13.5898c-9.62012 0 -21.6699 -5.83008 -30.9902 -14.9004zM352.991 711.521c-85.9805 0 -140.14 47.8496 -148.67 131.359c32.71 10.8398 79.0996 10.8398 111.81 0
c7.17969 -17.9404 19.7295 -27.0801 36.96 -27.0801c17.9297 0 30.8896 9.13965 38.1895 27.0801c32.7002 10.8398 79.1006 10.8398 111.811 0c-8.58008 -83.5098 -63.2598 -131.359 -150.1 -131.359zM500.683 681.891c75 -219.28 140.649 -435.499 195.26 -673.789
c-69.0596 -16.9902 -149.149 -16.9902 -219.949 0c-5.54004 31.2803 -11.4297 62.71 -17.6201 94.0596h-206.55c-6.13965 -31.3398 -11.9297 -62.7803 -17.2998 -94.0605c-72.3799 -17.1504 -153.76 -17.1504 -223.5 0c54.5898 238.29 120.21 454.51 195.19 673.79
c93.5996 17.0703 200.869 17.0703 294.469 0zM284.542 254.792h141.09c-21.7002 93.5303 -45.4805 182.41 -69.8506 259.5h-1c-24.3701 -77.0898 -48.4297 -165.97 -70.2393 -259.5z" />
    <glyph glyph-name="uni1EB4" unicode="&#x1eb4;" horiz-adv-x="707" 
d="M255.12 869.51c-31.4199 1.12988 -58.2803 14.5391 -74.3506 37.0791c20.6104 59.7305 63.1406 93.8301 113.591 93.8301c54.1904 0 73.8301 -24.6904 113.04 -24.6904c20.7803 0 38.1699 8.67969 47.6797 24.4492c31.4102 -1.12988 58.2705 -14.54 74.3408 -37.0898
c-20.6104 -59.7197 -63.1406 -93.8193 -113.591 -93.8193c-53.9902 0 -73.54 24.6904 -113.04 24.6904c-20.7695 0 -38.1699 -8.67969 -47.6699 -24.4492zM391.28 842.879c32.7002 10.8398 79.1016 10.8398 111.812 0c-8.58008 -83.5098 -63.2598 -131.359 -150.1 -131.359
c-85.9805 0 -140.141 47.8496 -148.671 131.359c32.71 10.8398 79.0996 10.8398 111.81 0c7.17969 -17.9404 19.7295 -27.0801 36.96 -27.0801c17.9297 0 30.8896 9.13965 38.1895 27.0801zM500.682 681.889c75 -219.28 140.649 -435.499 195.26 -673.789
c-69.0596 -16.9902 -149.149 -16.9902 -219.949 0c-5.54004 31.2803 -11.4297 62.71 -17.6201 94.0596h-206.55c-6.13965 -31.3398 -11.9297 -62.7803 -17.2998 -94.0605c-72.3799 -17.1504 -153.76 -17.1504 -223.5 0c54.5898 238.29 120.21 454.51 195.19 673.79
c93.5996 17.0703 200.869 17.0703 294.469 0zM284.541 254.79h141.09c-21.7002 93.5303 -45.4805 182.41 -69.8506 259.5h-1c-24.3701 -77.0898 -48.4297 -165.97 -70.2393 -259.5z" />
    <glyph glyph-name="uni01CD" unicode="&#x1cd;" horiz-adv-x="707" 
d="M294.05 725.57c-28.2695 33.0596 -64.8398 62.7383 -110.149 88.4082c7.08984 28.4502 25.6797 53.5703 51.0293 68.9707c44.3496 -9.83984 87.3301 -27.1396 118.96 -45.5098c31.1299 18.21 74.0898 35.5195 118.92 45.5098
c25 -14.9697 43.5996 -40.0898 51.0693 -68.9697c-45.2998 -25.6699 -81.8701 -55.3496 -110.14 -88.4092c-37.5498 -10.5 -82.1396 -10.5 -119.689 0zM500.68 681.89c75 -219.28 140.649 -435.499 195.26 -673.789c-69.0596 -16.9902 -149.149 -16.9902 -219.949 0
c-5.54004 31.2803 -11.4297 62.71 -17.6201 94.0596h-206.55c-6.13965 -31.3398 -11.9297 -62.7803 -17.2998 -94.0605c-72.3799 -17.1504 -153.76 -17.1504 -223.5 0c54.5898 238.29 120.21 454.51 195.19 673.79c93.5996 17.0703 200.869 17.0703 294.469 0z
M284.539 254.791h141.09c-21.7002 93.5303 -45.4805 182.41 -69.8506 259.5h-1c-24.3701 -77.0898 -48.4297 -165.97 -70.2393 -259.5z" />
    <glyph glyph-name="Acircumflex" unicode="&#xc2;" horiz-adv-x="707" 
d="M234.93 713.29c-25.3604 15.4004 -43.9463 40.5293 -50.9268 68.9795c45.21 25.6602 81.7695 55.3398 110.039 88.3994c37.5498 10.5 82.1494 10.5 119.699 0c28.2695 -33.0596 64.8291 -62.7393 110.139 -88.3994
c-7.46973 -28.8799 -26.0801 -54.0098 -51.0801 -68.9795c-44.8301 10 -87.79 27.2998 -118.91 45.5195c-31.6396 -18.3701 -74.6201 -35.6797 -118.96 -45.5195zM500.684 681.889c75 -219.28 140.649 -435.499 195.26 -673.789
c-69.0596 -16.9902 -149.149 -16.9902 -219.949 0c-5.54004 31.2803 -11.4297 62.71 -17.6201 94.0596h-206.55c-6.13965 -31.3398 -11.9297 -62.7803 -17.2998 -94.0605c-72.3799 -17.1504 -153.76 -17.1504 -223.5 0c54.5898 238.29 120.21 454.51 195.19 673.79
c93.5996 17.0703 200.869 17.0703 294.469 0zM284.543 254.79h141.09c-21.7002 93.5303 -45.4805 182.41 -69.8506 259.5h-1c-24.3701 -77.0898 -48.4297 -165.97 -70.2393 -259.5z" />
    <glyph glyph-name="uni1EA4" unicode="&#x1ea4;" horiz-adv-x="707" 
d="M354.52 876.3c-24.5596 20.96 -44.8994 50.1992 -55.8398 80.2695c38.3799 46.2197 91.0898 91.3096 144.71 123.79c35.1699 -27.2197 63 -67.3398 76.4199 -110.14c-58.6201 -24.5498 -118.83 -58.7598 -165.29 -93.9199zM235.029 705.299
c-25.3496 15.4004 -43.9395 40.5293 -51.0293 68.9697c45.3096 25.6699 81.8799 55.3496 110.149 88.4092c37.5498 10.5 82.1396 10.5 119.689 0c28.2695 -33.0596 64.8398 -62.7393 110.14 -88.4092c-7.46973 -28.8799 -26.0693 -54 -51.0693 -68.9697
c-44.8301 9.99023 -87.79 27.2998 -118.92 45.5098c-31.6299 -18.3701 -74.6104 -35.6699 -118.96 -45.5098zM500.68 681.897c75 -219.28 140.649 -435.499 195.26 -673.789c-69.0596 -16.9902 -149.149 -16.9902 -219.949 0
c-5.54004 31.2803 -11.4297 62.71 -17.6201 94.0596h-206.55c-6.13965 -31.3398 -11.9297 -62.7803 -17.2998 -94.0605c-72.3799 -17.1504 -153.76 -17.1504 -223.5 0c54.5898 238.29 120.21 454.51 195.19 673.79c93.5996 17.0703 200.869 17.0703 294.469 0z
M284.539 254.799h141.09c-21.7002 93.5303 -45.4805 182.41 -69.8506 259.5h-1c-24.3701 -77.0898 -48.4297 -165.97 -70.2393 -259.5z" />
    <glyph glyph-name="uni1EAC" unicode="&#x1eac;" horiz-adv-x="707" 
d="M234.93 713.29c-25.3604 15.4004 -43.9463 40.5293 -50.9268 68.9795c45.21 25.6602 81.7695 55.3398 110.039 88.3994c37.5498 10.5 82.1494 10.5 119.699 0c28.2695 -33.0596 64.8291 -62.7393 110.139 -88.3994
c-7.46973 -28.8799 -26.0801 -54.0098 -51.0801 -68.9795c-44.8301 10 -87.79 27.2998 -118.91 45.5195c-31.6396 -18.3701 -74.6201 -35.6797 -118.96 -45.5195zM500.684 681.889c75 -219.28 140.649 -435.499 195.26 -673.789
c-69.0596 -16.9902 -149.149 -16.9902 -219.949 0c-5.54004 31.2803 -11.4297 62.71 -17.6201 94.0596h-206.55c-6.13965 -31.3398 -11.9297 -62.7803 -17.2998 -94.0605c-72.3799 -17.1504 -153.76 -17.1504 -223.5 0c54.5898 238.29 120.21 454.51 195.19 673.79
c93.5996 17.0703 200.869 17.0703 294.469 0zM284.543 254.79h141.09c-21.7002 93.5303 -45.4805 182.41 -69.8506 259.5h-1c-24.3701 -77.0898 -48.4297 -165.97 -70.2393 -259.5zM281.073 -54.1104c47.1396 15.6104 101.17 15.6104 148.31 0
c12.6797 -43.5898 12.6797 -93.54 0 -137.12c-47.1396 -14.2598 -101.17 -14.2598 -148.31 0c-12.6797 43.5801 -12.6797 93.5303 0 137.12z" />
    <glyph glyph-name="uni1EA6" unicode="&#x1ea6;" horiz-adv-x="707" 
d="M409.1 956.57c-10.9404 -30.0703 -31.2793 -59.3096 -55.8496 -80.2695c-46.4502 35.1602 -106.66 69.3701 -165.28 93.9199c13.4102 42.7998 41.25 82.9199 76.4199 110.14c53.6201 -32.4805 106.33 -77.5703 144.71 -123.79zM234.87 705.291
c-25 14.9697 -43.6094 40.0908 -51.0791 68.9707c45.3096 25.6699 81.8799 55.3496 110.149 88.4092c37.5498 10.5 82.1396 10.5 119.689 0c28.2695 -33.0596 64.8398 -62.7393 110.149 -88.4092c-7.08984 -28.4404 -25.6797 -53.5703 -51.0293 -68.9707
c-44.3496 9.83984 -87.3301 27.1396 -118.97 45.5098c-31.1201 -18.21 -74.0801 -35.5195 -118.91 -45.5098zM500.681 681.892c75 -219.28 140.649 -435.499 195.26 -673.789c-69.0596 -16.9902 -149.149 -16.9902 -219.949 0
c-5.54004 31.2803 -11.4297 62.71 -17.6201 94.0596h-206.55c-6.13965 -31.3398 -11.9297 -62.7803 -17.2998 -94.0605c-72.3799 -17.1504 -153.76 -17.1504 -223.5 0c54.5898 238.29 120.21 454.51 195.19 673.79c93.5996 17.0703 200.869 17.0703 294.469 0z
M284.54 254.793h141.09c-21.7002 93.5303 -45.4805 182.41 -69.8506 259.5h-1c-24.3701 -77.0898 -48.4297 -165.97 -70.2393 -259.5z" />
    <glyph glyph-name="uni1EA8" unicode="&#x1ea8;" horiz-adv-x="707" 
d="M290.75 964.36c-23.9004 12.9902 -38.9707 34.5107 -41.7207 59.4912c26.0703 36.5 66.8506 57.4102 111.971 57.4102c59.5098 0 98.7197 -33.4004 98.7197 -84.1104c0 -56.1904 -39.0195 -100.521 -107.119 -121.69c-23.4404 11.6396 -38.7207 33.3301 -42.3203 59.9502
c17.6201 9.16016 27.71 20.1797 27.71 30.2598c0 8.32031 -6.2998 13.5898 -16.25 13.5898c-9.62012 0 -21.6699 -5.83008 -30.9902 -14.9004zM235.03 705.291c-25.3496 15.4004 -43.9395 40.5293 -51.0293 68.9697c45.3096 25.6699 81.8799 55.3496 110.149 88.4092
c37.5498 10.5 82.1396 10.5 119.689 0c28.2695 -33.0596 64.8398 -62.7393 110.14 -88.4092c-7.46973 -28.8799 -26.0693 -54 -51.0693 -68.9697c-44.8301 9.99023 -87.79 27.2998 -118.92 45.5098c-31.6299 -18.3701 -74.6104 -35.6699 -118.96 -45.5098zM500.681 681.89
c75 -219.28 140.649 -435.499 195.26 -673.789c-69.0596 -16.9902 -149.149 -16.9902 -219.949 0c-5.54004 31.2803 -11.4297 62.71 -17.6201 94.0596h-206.55c-6.13965 -31.3398 -11.9297 -62.7803 -17.2998 -94.0605c-72.3799 -17.1504 -153.76 -17.1504 -223.5 0
c54.5898 238.29 120.21 454.51 195.19 673.79c93.5996 17.0703 200.869 17.0703 294.469 0zM284.54 254.791h141.09c-21.7002 93.5303 -45.4805 182.41 -69.8506 259.5h-1c-24.3701 -77.0898 -48.4297 -165.97 -70.2393 -259.5z" />
    <glyph glyph-name="uni1EAA" unicode="&#x1eaa;" horiz-adv-x="707" 
d="M254.43 885.25c-31.4199 1.12012 -58.2812 14.54 -74.3408 37.0801c20.5996 59.7197 63.1299 93.8301 113.58 93.8301c54.1904 0 73.8408 -24.7002 113.051 -24.7002c20.7695 0 38.1592 8.67969 47.6689 24.4492c31.4102 -1.12012 58.2705 -14.54 74.3408 -37.0801
c-20.6104 -59.7305 -63.1406 -93.8301 -113.581 -93.8301c-54 0 -73.5498 24.7002 -113.05 24.7002c-20.7695 0 -38.1592 -8.67969 -47.6689 -24.4492zM413.839 862.67c28.2695 -33.0596 64.8398 -62.7402 110.14 -88.4102
c-7.46973 -28.8799 -26.0693 -54 -51.0693 -68.9697c-44.8301 9.99023 -87.79 27.2998 -118.92 45.5098c-31.6299 -18.3701 -74.6104 -35.6699 -118.96 -45.5098c-25.3496 15.4004 -43.9395 40.5303 -51.0293 68.9707c45.3096 25.6699 81.8799 55.3496 110.149 88.4092
c37.5498 10.5 82.1396 10.5 119.689 0zM500.679 681.889c75 -219.28 140.649 -435.499 195.26 -673.789c-69.0596 -16.9902 -149.149 -16.9902 -219.949 0c-5.54004 31.2803 -11.4297 62.71 -17.6201 94.0596h-206.55
c-6.13965 -31.3398 -11.9297 -62.7803 -17.2998 -94.0605c-72.3799 -17.1504 -153.76 -17.1504 -223.5 0c54.5898 238.29 120.21 454.51 195.19 673.79c93.5996 17.0703 200.869 17.0703 294.469 0zM284.538 254.79h141.09c-21.7002 93.5303 -45.4805 182.41 -69.8506 259.5
h-1c-24.3701 -77.0898 -48.4297 -165.97 -70.2393 -259.5z" />
    <glyph glyph-name="uni0200" unicode="&#x200;" horiz-adv-x="707" 
d="M485.61 756.57c-28.1396 -19.9199 -64.3398 -33.3701 -99.3896 -36.9004c-20.21 58.6299 -48.5 115.25 -85.3604 170.83c38.1104 29.75 87.7402 48.1504 136.24 50.5c25.8096 -61.1602 41.8799 -122.29 48.5098 -184.43zM327.61 768.71
c-23.9902 -25.2598 -57.0811 -45.5898 -90.8408 -55.8203c-29.71 50.8398 -67.5996 99.8398 -114.319 147.87c31.9697 36.9102 77.3096 64.8105 124.439 76.5801c34.5703 -50.5898 61.3203 -106.479 80.7207 -168.63zM500.68 681.89
c75 -219.28 140.649 -435.499 195.26 -673.789c-69.0596 -16.9902 -149.149 -16.9902 -219.949 0c-5.54004 31.2803 -11.4297 62.71 -17.6201 94.0596h-206.55c-6.13965 -31.3398 -11.9297 -62.7803 -17.2998 -94.0605c-72.3799 -17.1504 -153.76 -17.1504 -223.5 0
c54.5898 238.29 120.21 454.51 195.19 673.79c93.5996 17.0703 200.869 17.0703 294.469 0zM284.539 254.791h141.09c-21.7002 93.5303 -45.4805 182.41 -69.8506 259.5h-1c-24.3701 -77.0898 -48.4297 -165.97 -70.2393 -259.5z" />
    <glyph glyph-name="Adieresis" unicode="&#xc4;" horiz-adv-x="707" 
d="M337.05 741.94c-47.6299 -14.4199 -102.22 -14.4199 -149.85 0c-12.7998 44.0801 -12.7998 94.5996 0 138.68c47.6299 15.79 102.22 15.79 149.85 0c12.7998 -44.0801 12.7998 -94.5996 0 -138.68zM524.7 741.94c-47.6299 -14.4199 -102.22 -14.4199 -149.85 0
c-12.7998 44.0801 -12.7998 94.5996 0 138.68c47.6299 15.79 102.22 15.79 149.85 0c12.7998 -44.0801 12.7998 -94.5996 0 -138.68zM500.681 681.891c75 -219.28 140.649 -435.499 195.26 -673.789c-69.0596 -16.9902 -149.149 -16.9902 -219.949 0
c-5.54004 31.2803 -11.4297 62.71 -17.6201 94.0596h-206.55c-6.13965 -31.3398 -11.9297 -62.7803 -17.2998 -94.0605c-72.3799 -17.1504 -153.76 -17.1504 -223.5 0c54.5898 238.29 120.21 454.51 195.19 673.79c93.5996 17.0703 200.869 17.0703 294.469 0z
M284.54 254.792h141.09c-21.7002 93.5303 -45.4805 182.41 -69.8506 259.5h-1c-24.3701 -77.0898 -48.4297 -165.97 -70.2393 -259.5z" />
    <glyph glyph-name="uni1EA0" unicode="&#x1ea0;" horiz-adv-x="707" 
d="M500.68 681.89c75 -219.28 140.649 -435.499 195.26 -673.789c-69.0596 -16.9902 -149.149 -16.9902 -219.949 0c-5.54004 31.2803 -11.4297 62.71 -17.6201 94.0596h-206.55c-6.13965 -31.3398 -11.9297 -62.7803 -17.2998 -94.0605
c-72.3799 -17.1504 -153.76 -17.1504 -223.5 0c54.5898 238.29 120.21 454.51 195.19 673.79c93.5996 17.0703 200.869 17.0703 294.469 0zM284.539 254.791h141.09c-21.7002 93.5303 -45.4805 182.41 -69.8506 259.5h-1
c-24.3701 -77.0898 -48.4297 -165.97 -70.2393 -259.5zM281.069 -54.1094c47.1396 15.6104 101.17 15.6104 148.31 0c12.6797 -43.5898 12.6797 -93.54 0 -137.12c-47.1396 -14.2598 -101.17 -14.2598 -148.31 0c-12.6797 43.5801 -12.6797 93.5303 0 137.12z" />
    <glyph glyph-name="Agrave" unicode="&#xc0;" horiz-adv-x="707" 
d="M443.16 802.64c-12 -32.9902 -34.3105 -65.0693 -61.2607 -88.0693c-50.9697 38.5703 -117.029 76.1104 -181.339 103.04c14.7197 46.96 45.2598 90.9795 83.8398 120.84c58.8301 -35.6299 116.66 -85.1104 158.76 -135.811zM500.679 681.891
c75 -219.28 140.649 -435.499 195.26 -673.789c-69.0596 -16.9902 -149.149 -16.9902 -219.949 0c-5.54004 31.2803 -11.4297 62.71 -17.6201 94.0596h-206.55c-6.13965 -31.3398 -11.9297 -62.7803 -17.2998 -94.0605c-72.3799 -17.1504 -153.76 -17.1504 -223.5 0
c54.5898 238.29 120.21 454.51 195.19 673.79c93.5996 17.0703 200.869 17.0703 294.469 0zM284.538 254.792h141.09c-21.7002 93.5303 -45.4805 182.41 -69.8506 259.5h-1c-24.3701 -77.0898 -48.4297 -165.97 -70.2393 -259.5z" />
    <glyph glyph-name="uni1EA2" unicode="&#x1ea2;" horiz-adv-x="707" 
d="M286.6 823.29c-26.21 14.2402 -42.7422 37.8613 -45.7617 65.2617c28.5996 40.04 73.3398 62.9902 122.84 62.9902c65.2998 0 108.3 -36.6504 108.3 -92.2803c0 -61.6504 -42.8096 -110.28 -117.52 -133.511c-25.71 12.7695 -42.4795 36.5693 -46.4297 65.7793
c19.3203 10.04 30.4004 22.1396 30.4004 33.1992c0 9.12012 -6.91992 14.9004 -17.8301 14.9004c-10.5596 0 -23.7793 -6.38965 -33.999 -16.3398zM500.688 681.891c75 -219.28 140.649 -435.499 195.26 -673.789c-69.0596 -16.9902 -149.149 -16.9902 -219.949 0
c-5.54004 31.2803 -11.4297 62.71 -17.6201 94.0596h-206.55c-6.13965 -31.3398 -11.9297 -62.7803 -17.2998 -94.0605c-72.3799 -17.1504 -153.76 -17.1504 -223.5 0c54.5898 238.29 120.21 454.51 195.19 673.79c93.5996 17.0703 200.869 17.0703 294.469 0z
M284.547 254.792h141.09c-21.7002 93.5303 -45.4805 182.41 -69.8506 259.5h-1c-24.3701 -77.0898 -48.4297 -165.97 -70.2393 -259.5z" />
    <glyph glyph-name="uni0202" unicode="&#x202;" horiz-adv-x="707" 
d="M316.24 728.44c-32.7002 -10.8496 -79.0996 -10.8496 -111.8 0c8.53027 83.5 62.6904 131.36 148.671 131.36c86.8398 0 141.52 -47.8604 150.09 -131.36c-32.7002 -10.8496 -79.1006 -10.8496 -111.811 0c-7.29004 17.9404 -20.25 27.0703 -38.1904 27.0703
c-17.2197 0 -29.7695 -9.12988 -36.96 -27.0703zM500.682 681.891c75 -219.28 140.649 -435.499 195.26 -673.789c-69.0596 -16.9902 -149.149 -16.9902 -219.949 0c-5.54004 31.2803 -11.4297 62.71 -17.6201 94.0596h-206.55
c-6.13965 -31.3398 -11.9297 -62.7803 -17.2998 -94.0605c-72.3799 -17.1504 -153.76 -17.1504 -223.5 0c54.5898 238.29 120.21 454.51 195.19 673.79c93.5996 17.0703 200.869 17.0703 294.469 0zM284.541 254.792h141.09
c-21.7002 93.5303 -45.4805 182.41 -69.8506 259.5h-1c-24.3701 -77.0898 -48.4297 -165.97 -70.2393 -259.5z" />
    <glyph glyph-name="Amacron" unicode="&#x100;" horiz-adv-x="707" 
d="M511.25 738.88h-314.72c-13.46 42.46 -13.46 91.1201 0 133.57h314.72c13.4502 -42.4502 13.4502 -91.1104 0 -133.57zM500.681 681.89c75 -219.28 140.649 -435.499 195.26 -673.789c-69.0596 -16.9902 -149.149 -16.9902 -219.949 0
c-5.54004 31.2803 -11.4297 62.71 -17.6201 94.0596h-206.55c-6.13965 -31.3398 -11.9297 -62.7803 -17.2998 -94.0605c-72.3799 -17.1504 -153.76 -17.1504 -223.5 0c54.5898 238.29 120.21 454.51 195.19 673.79c93.5996 17.0703 200.869 17.0703 294.469 0z
M284.54 254.791h141.09c-21.7002 93.5303 -45.4805 182.41 -69.8506 259.5h-1c-24.3701 -77.0898 -48.4297 -165.97 -70.2393 -259.5z" />
    <glyph glyph-name="Aogonek" unicode="&#x104;" horiz-adv-x="707" 
d="M646.5 -84.0596c25.71 -11.2695 44.8516 -34.6289 52.5615 -64.1191c-22.5303 -45.8799 -74.1807 -75.7197 -131.311 -75.7197c-70.3398 0 -115.89 35.7803 -115.89 91.0303c0 53.5 33.3203 99.6904 92.1006 130.07c-23.1504 2 -46.0107 5.62988 -67.9707 10.8994
c-5.54004 31.2803 -11.4297 62.71 -17.6201 94.0596h-206.55c-6.13965 -31.3398 -11.9297 -62.7803 -17.2998 -94.0605c-72.3799 -17.1504 -153.76 -17.1504 -223.5 0c54.5898 238.29 120.21 454.51 195.19 673.79c93.5996 17.0703 200.869 17.0703 294.469 0
c75 -219.28 140.65 -435.5 195.261 -673.79c-64.9404 -31.1504 -89.2607 -58.7402 -89.2607 -81.4102c0 -11.9297 7.11035 -18.7695 19.5303 -18.7695c6.71973 0 14.1094 2.91992 20.2891 8.01953zM284.542 254.791h141.09c-21.7002 93.5303 -45.4805 182.41 -69.8506 259.5
h-1c-24.3701 -77.0898 -48.4297 -165.97 -70.2393 -259.5z" />
    <glyph glyph-name="Aring" unicode="&#xc5;" horiz-adv-x="707" 
d="M500.68 681.89c75 -219.28 140.649 -435.5 195.26 -673.79c-69.0596 -16.9902 -149.149 -16.9902 -219.949 0c-5.54004 31.2803 -11.4297 62.71 -17.6201 94.0596h-206.55c-6.13965 -31.3398 -11.9297 -62.7803 -17.2998 -94.0605
c-72.3799 -17.1504 -153.76 -17.1504 -223.5 0c54.5898 238.29 120.21 454.51 195.19 673.79c17.4004 3.17969 35.2803 5.75977 53.4502 7.75c-16.0195 19.9199 -24.9697 46.3301 -24.9697 77.3604c0 71.1504 47.6201 118.021 119.91 118.021
c71.4297 0 118.489 -46.2598 118.489 -116.47c0 -31.7197 -9.23047 -58.6797 -25.7207 -78.9199c18.1299 -1.99023 35.96 -4.57031 53.3096 -7.74023zM354.469 790.35c-15.7002 0 -26.04 -9.27832 -26.04 -23.3486s9.87988 -23.3398 24.8799 -23.3398
c15.7002 0 26.04 9.76953 26.04 24.6094c0 13.3096 -9.87988 22.0791 -24.8799 22.0791zM284.539 254.792h141.09c-21.7002 93.5303 -45.4805 182.41 -69.8506 259.5h-1c-24.3701 -77.0898 -48.4297 -165.97 -70.2393 -259.5z" />
    <glyph glyph-name="Aringacute" unicode="&#x1fa;" horiz-adv-x="707" 
d="M352.35 900.44c-24.5703 20.96 -44.9092 50.1992 -55.8496 80.2695c38.3799 46.21 91.0898 91.3096 144.71 123.79c35.1699 -27.2197 63.0098 -67.3398 76.4199 -110.14c-58.6201 -24.5498 -118.83 -58.7695 -165.28 -93.9199zM500.681 681.89
c75 -219.28 140.648 -435.499 195.259 -673.789c-69.0596 -16.9902 -149.149 -16.9902 -219.949 0c-5.54004 31.2803 -11.4297 62.71 -17.6201 94.0596h-206.55c-6.13965 -31.3398 -11.9297 -62.7803 -17.2998 -94.0605c-72.3799 -17.1504 -153.76 -17.1504 -223.5 0
c54.5898 238.29 120.21 454.51 195.19 673.79c17.2998 3.16016 35.0801 5.73047 53.1396 7.7207c-16.0303 19.9199 -24.9902 46.3398 -24.9902 77.3896c0 71.1504 47.6201 118.021 119.91 118.021c71.4199 0 118.479 -46.2598 118.479 -116.47
c0 -31.7002 -9.20996 -58.6504 -25.6904 -78.8906c18.2305 -1.99023 36.1709 -4.58008 53.6211 -7.77051zM354.129 790.351c-15.7002 0 -26.04 -9.27832 -26.04 -23.3486s9.87988 -23.3398 24.8799 -23.3398c15.7002 0 26.0498 9.76953 26.0498 24.6094
c0 13.3096 -9.88965 22.0791 -24.8896 22.0791zM284.539 254.793h141.09c-21.7002 93.5303 -45.4805 182.41 -69.8506 259.5h-1c-24.3701 -77.0898 -48.4297 -165.97 -70.2393 -259.5z" />
    <glyph glyph-name="Atilde" unicode="&#xc3;" horiz-adv-x="707" 
d="M235.75 727.04c-37.3604 1.33984 -69.3008 17.2891 -88.4111 44.0986c24.5098 71.0303 75.0898 111.59 135.08 111.59c64.4404 0 87.8105 -29.3701 134.44 -29.3701c24.71 0 45.3896 10.3203 56.6992 29.0703c37.3604 -1.42969 69.3008 -17.29 88.4111 -44.0996
c-24.5098 -71.0195 -75.0898 -111.579 -135.08 -111.579c-64.21 0 -87.46 29.3701 -134.44 29.3701c-24.71 0 -45.3896 -10.3301 -56.6992 -29.0801zM500.68 681.889c75 -219.28 140.649 -435.499 195.26 -673.789c-69.0596 -16.9902 -149.149 -16.9902 -219.949 0
c-5.54004 31.2803 -11.4297 62.71 -17.6201 94.0596h-206.55c-6.13965 -31.3398 -11.9297 -62.7803 -17.2998 -94.0605c-72.3799 -17.1504 -153.76 -17.1504 -223.5 0c54.5898 238.29 120.21 454.51 195.19 673.79c93.5996 17.0703 200.869 17.0703 294.469 0z
M284.539 254.79h141.09c-21.7002 93.5303 -45.4805 182.41 -69.8506 259.5h-1c-24.3701 -77.0898 -48.4297 -165.97 -70.2393 -259.5z" />
    <glyph glyph-name="AE" unicode="&#xc6;" horiz-adv-x="943" 
d="M910.02 179.69c16.5303 -57.1201 16.5293 -122.581 -0.000976562 -179.691h-367.01h-111.26v102.16h-177.52c-10.4199 -31.4697 -20.4297 -63.1201 -30.0801 -94.96c-72.3799 -17.1504 -154.41 -17.1504 -224.15 0c78.9805 237.83 178.53 465.16 295.94 682.8h220.89
h128.53h249.65c16.5098 -56.5 16.5098 -121.26 0 -177.76h-249.65v-77.0498h224.66c16.5303 -53.9697 16.5303 -115.819 0 -169.789h-224.66v-85.71h264.66zM308.629 254.789h123.121v279.22c-46.1104 -91.4102 -86.8008 -184.46 -123.121 -279.22z" />
    <glyph glyph-name="AEacute" unicode="&#x1fc;" horiz-adv-x="943" 
d="M513.72 715.57c-26.9502 23 -49.2705 55.0791 -61.2705 88.0693c42.0996 50.7002 99.9395 100.181 158.76 135.811c38.5801 -29.8604 69.1201 -73.8799 83.8398 -120.84c-64.3096 -26.9297 -130.369 -64.4697 -181.329 -103.04zM910.02 179.689
c16.5303 -57.1201 16.5293 -122.581 -0.000976562 -179.691h-367.01h-111.26v102.16h-177.52c-10.4199 -31.4697 -20.4297 -63.1201 -30.0801 -94.96c-72.3799 -17.1504 -154.41 -17.1504 -224.15 0c78.9805 237.83 178.53 465.16 295.94 682.8h220.89h128.53h249.65
c16.5098 -56.5 16.5098 -121.26 0 -177.76h-249.65v-77.0498h224.66c16.5303 -53.9697 16.5303 -115.819 0 -169.789h-224.66v-85.71h264.66zM308.629 254.788h123.121v279.22c-46.1104 -91.4102 -86.8008 -184.46 -123.121 -279.22z" />
    <glyph glyph-name="B" unicode="B" horiz-adv-x="590" 
d="M262.97 -10c-77.8604 0 -158.409 11.4902 -221.449 31.6006v630.8c66.9697 30.0596 153.97 47.5996 239.59 47.5996c165.47 0 260.85 -74.75 260.85 -197.79c0 -71.2598 -30.1797 -120.87 -88.4297 -143.74c74.71 -18.75 115.59 -75.8799 115.59 -155.17
c0 -134.25 -111.62 -213.3 -306.15 -213.3zM252.471 427.49h29.6602c45 0 69.9004 20.0703 69.9004 57.2305c0 32.0801 -21.9902 50.4697 -60.3506 50.4697c-14.6504 0 -28.3701 -2.42969 -39.21 -7.12012v-100.58zM287.511 160.21c43.0303 0 67.6797 22.5 67.6797 61.75
c0 37.5898 -27.4902 60.0996 -72.9199 60.0996h-29.79v-118.5c10.4805 -2.16992 22.9307 -3.34961 35.0303 -3.34961z" />
    <glyph glyph-name="C" unicode="C" horiz-adv-x="553" 
d="M349.24 -10c-204.65 0 -321.39 126.449 -321.39 349.999c0 218.32 119.87 360 303.23 360c90.2305 0 161.761 -37.21 197.271 -101.39c-14.5098 -59.1699 -59.2197 -108.09 -116.859 -134.29c-14.75 26.9697 -39.4902 42.4297 -69.1406 42.4297
c-62.9004 0 -94.6904 -51.0898 -94.6904 -154.149c0 -111.42 43.1104 -166.65 130.08 -166.65c43.1699 0 81.2998 6.90039 106.859 18.79c34.9004 -40.5195 53.3701 -109.739 46.7598 -175.039c-48.3896 -25.2002 -113.51 -39.7002 -182.12 -39.7002z" />
    <glyph glyph-name="Cacute" unicode="&#x106;" horiz-adv-x="553" 
d="M266.71 803.64c42.0996 50.7002 99.9395 100.18 158.76 135.81c38.5801 -29.8604 69.1201 -73.8799 83.8398 -120.84c-64.3096 -26.9297 -130.369 -64.4697 -181.329 -103.04c-26.9502 23 -49.2705 55.0801 -61.2705 88.0703zM349.24 -10.001
c-204.65 0 -321.39 126.449 -321.39 349.999c0 218.32 119.87 360 303.23 360c90.2305 0 161.761 -37.21 197.271 -101.39c-14.5098 -59.1699 -59.2197 -108.09 -116.859 -134.29c-14.75 26.9697 -39.4902 42.4297 -69.1406 42.4297
c-62.9004 0 -94.6904 -51.0898 -94.6904 -154.149c0 -111.42 43.1104 -166.65 130.08 -166.65c43.1699 0 81.2998 6.90039 106.859 18.79c34.9004 -40.5195 53.3701 -109.739 46.7598 -175.039c-48.3896 -25.2002 -113.51 -39.7002 -182.12 -39.7002z" />
    <glyph glyph-name="Ccaron" unicode="&#x10c;" horiz-adv-x="553" 
d="M501.42 813.98c-45.3096 -25.6699 -81.8711 -55.3506 -110.141 -88.4102c-37.5498 -10.5 -82.1494 -10.5 -119.699 0c-28.2695 33.0596 -64.8291 62.7393 -110.139 88.4092c7.08008 28.4502 25.6699 53.5703 51.0303 68.9707
c44.3496 -9.83984 87.3193 -27.1396 118.959 -45.5098c31.1299 18.21 74.0898 35.5195 118.92 45.5098c25 -14.9697 43.5996 -40.0898 51.0693 -68.9697zM349.238 -10.001c-204.65 0 -321.39 126.449 -321.39 349.999c0 218.32 119.87 360 303.23 360
c90.2305 0 161.761 -37.21 197.271 -101.39c-14.5098 -59.1699 -59.2197 -108.09 -116.859 -134.29c-14.75 26.9697 -39.4902 42.4297 -69.1406 42.4297c-62.9004 0 -94.6904 -51.0898 -94.6904 -154.149c0 -111.42 43.1104 -166.65 130.08 -166.65
c43.1699 0 81.2998 6.90039 106.859 18.79c34.9004 -40.5195 53.3701 -109.739 46.7598 -175.039c-48.3896 -25.2002 -113.51 -39.7002 -182.12 -39.7002z" />
    <glyph glyph-name="Ccedilla" unicode="&#xc7;" horiz-adv-x="553" 
d="M531.36 29.7002c-38.3701 -19.9805 -87.25 -33.2412 -140.05 -37.8711l-6.15039 -20.5195c44.5498 -4.19043 73.2002 -36.4805 73.2002 -82.2109c0 -64.1602 -44.9502 -105.73 -114.49 -105.73c-67.0195 0 -114.22 31.5996 -129.569 86.75
c24.2402 20.2598 56.1699 29.5498 88.3496 25.7197c3.83008 -9.71973 12.0898 -15.2793 22.6602 -15.2793c14.3496 0 22.5693 7.32031 22.5693 20.1006c0 13.1396 -9.00977 19.9297 -26.5801 20.0293l-45.3496 0.290039l20.96 71.9805
c-172.1 20.2197 -269.06 143.31 -269.06 347.04c0 218.32 119.87 360 303.23 360c90.2305 0 161.761 -37.21 197.271 -101.39c-14.5098 -59.1699 -59.2197 -108.09 -116.859 -134.29c-14.75 26.9697 -39.4902 42.4297 -69.1406 42.4297
c-62.9004 0 -94.6904 -51.0898 -94.6904 -154.149c0 -111.42 43.1104 -166.65 130.08 -166.65c43.1699 0 81.2998 6.90039 106.859 18.79c34.9004 -40.5195 53.3701 -109.739 46.7598 -175.039z" />
    <glyph glyph-name="Ccircumflex" unicode="&#x108;" horiz-adv-x="553" 
d="M501.42 782.27c-7.46973 -28.8799 -26.0791 -54.0107 -51.0791 -68.9805c-44.8301 10 -87.79 27.2998 -118.91 45.5195c-31.6396 -18.3701 -74.6201 -35.6797 -118.97 -45.5195c-25.3496 15.4004 -43.9395 40.5303 -51.0195 68.9805
c45.2998 25.6602 81.8701 55.3398 110.14 88.3994c37.5498 10.5 82.1396 10.5 119.689 0c28.2695 -33.0596 64.8398 -62.7393 110.149 -88.3994zM349.241 -10.001c-204.65 0 -321.39 126.449 -321.39 349.999c0 218.32 119.87 360 303.23 360
c90.2305 0 161.761 -37.21 197.271 -101.39c-14.5098 -59.1699 -59.2197 -108.09 -116.859 -134.29c-14.75 26.9697 -39.4902 42.4297 -69.1406 42.4297c-62.9004 0 -94.6904 -51.0898 -94.6904 -154.149c0 -111.42 43.1104 -166.65 130.08 -166.65
c43.1699 0 81.2998 6.90039 106.859 18.79c34.9004 -40.5195 53.3701 -109.739 46.7598 -175.039c-48.3896 -25.2002 -113.51 -39.7002 -182.12 -39.7002z" />
    <glyph glyph-name="Cdotaccent" unicode="&#x10a;" horiz-adv-x="553" 
d="M230.5 733.19c-17.25 52.9404 -17.25 113.61 0 166.551c64.1602 18.96 137.69 18.96 201.86 0c17.2402 -52.9404 17.2402 -113.61 0 -166.551c-64.1699 -17.3203 -137.7 -17.3203 -201.86 0zM349.24 -10c-204.65 0 -321.39 126.449 -321.39 349.999
c0 218.32 119.87 360 303.23 360c90.2305 0 161.761 -37.21 197.271 -101.39c-14.5098 -59.1699 -59.2197 -108.09 -116.859 -134.29c-14.75 26.9697 -39.4902 42.4297 -69.1406 42.4297c-62.9004 0 -94.6904 -51.0898 -94.6904 -154.149
c0 -111.42 43.1104 -166.65 130.08 -166.65c43.1699 0 81.2998 6.90039 106.859 18.79c34.9004 -40.5195 53.3701 -109.739 46.7598 -175.039c-48.3896 -25.2002 -113.51 -39.7002 -182.12 -39.7002z" />
    <glyph glyph-name="D" unicode="D" horiz-adv-x="649" 
d="M272.73 -10c-77.2598 0 -161.49 11.5107 -231.21 31.6006v630.8c64.79 30.2598 149.021 47.5996 231.211 47.5996c221.52 0 348.119 -128.83 348.119 -355c0 -225.68 -126.94 -355 -348.12 -355zM291.91 178.271c74.6104 0 111.6 55.2598 111.6 166.729
c0 112.76 -36.8799 168.67 -111.28 168.67c-14.96 0 -28.4502 -2.17969 -39.3398 -7.46973l-0.240234 -324.41c11.1504 -2.46973 24.6104 -3.51953 39.2607 -3.51953z" />
    <glyph glyph-name="uni01F1" unicode="&#x1f1;" horiz-adv-x="1247" 
d="M272.73 -10c-77.2598 0 -161.49 11.5107 -231.21 31.6006v630.8c64.79 30.2598 149.021 47.5996 231.211 47.5996c221.52 0 348.119 -128.83 348.119 -355c0 -225.68 -126.94 -355 -348.12 -355zM696.19 0.000976562c-25.7002 39.8896 -42.0088 96.709 -44.7285 155.949
c80.6299 120.61 180.979 245.21 278.97 348.76h-259.24c-16.4102 58.7803 -16.4102 126.511 0 185.291h493.04c25.5801 -38.8799 41.8799 -94.3799 44.7295 -152.36c-102.3 -114.27 -192.42 -230.52 -266.82 -348.75h272.27c16.4102 -59.9199 16.4102 -128.97 0 -188.89
h-518.22zM291.911 178.27c74.6104 0 111.6 55.2598 111.6 166.729c0 112.76 -36.8799 168.67 -111.28 168.67c-14.96 0 -28.4502 -2.17969 -39.3398 -7.46973l-0.240234 -324.41c11.1504 -2.46973 24.6104 -3.51953 39.2607 -3.51953z" />
    <glyph glyph-name="uni01C4" unicode="&#x1c4;" horiz-adv-x="1247" 
d="M1103.39 813.98c-45.3096 -25.6699 -81.8799 -55.3506 -110.149 -88.4102c-37.5498 -10.5 -82.2402 -10.5 -119.69 0c-28.2695 33.0596 -64.8398 62.7393 -110.149 88.4092c7.08984 28.4502 25.6797 53.5703 51.0293 68.9707
c44.3496 -9.83984 87.3301 -27.1396 118.96 -45.5098c31.1299 18.21 74.0898 35.5195 118.92 45.5098c25 -14.9697 43.5996 -40.0898 51.0801 -68.9697zM272.729 -10.001c-77.2598 0 -161.49 11.5107 -231.21 31.6006v630.8c64.79 30.2598 149.021 47.5996 231.211 47.5996
c221.52 0 348.119 -128.83 348.119 -355c0 -225.68 -126.94 -355 -348.12 -355zM696.189 0c-25.7002 39.8896 -42.0088 96.709 -44.7285 155.949c80.6299 120.61 180.979 245.21 278.97 348.76h-259.24c-16.4102 58.7803 -16.4102 126.511 0 185.291h493.04
c25.5801 -38.8799 41.8799 -94.3799 44.7295 -152.36c-102.3 -114.27 -192.42 -230.52 -266.82 -348.75h272.27c16.4102 -59.9199 16.4102 -128.97 0 -188.89h-518.22zM291.91 178.269c74.6104 0 111.6 55.2598 111.6 166.729c0 112.76 -36.8799 168.67 -111.28 168.67
c-14.96 0 -28.4502 -2.17969 -39.3398 -7.46973l-0.240234 -324.41c11.1504 -2.46973 24.6104 -3.51953 39.2607 -3.51953z" />
    <glyph glyph-name="Eth" unicode="&#xd0;" horiz-adv-x="678" 
d="M301.72 700c221.51 0 348.12 -128.828 348.12 -354.998c0 -225.68 -126.95 -355 -348.12 -355c-77.2598 0 -161.49 11.5098 -231.221 31.5996v273.91h-55.9004c-13.0703 33.1797 -13.0703 71.1992 0 104.379h55.9004v252.51
c64.79 30.2598 149.021 47.5996 231.221 47.5996zM320.89 178.271c74.6104 0 111.6 55.2578 111.6 166.728c0 112.76 -36.8799 168.67 -111.27 168.67c-14.9697 0 -28.46 -2.17969 -39.3496 -7.46973l-0.0800781 -106.31h72.04
c13.0703 -33.1797 13.0703 -71.1992 0 -104.379h-72.1104l-0.0898438 -113.72c11.1602 -2.46973 24.6201 -3.51953 39.2598 -3.51953z" />
    <glyph glyph-name="Dcaron" unicode="&#x10e;" horiz-adv-x="649" 
d="M444.93 813.98c-45.3096 -25.6699 -81.8711 -55.3506 -110.141 -88.4102c-37.5498 -10.5 -82.1494 -10.5 -119.699 0c-28.2695 33.0596 -64.8291 62.7393 -110.139 88.4092c7.08008 28.4502 25.6699 53.5703 51.0303 68.9707
c44.3496 -9.83984 87.3193 -27.1396 118.959 -45.5098c31.1299 18.21 74.0898 35.5195 118.92 45.5098c25 -14.9697 43.5996 -40.0898 51.0693 -68.9697zM272.728 -10.001c-77.2598 0 -161.49 11.5107 -231.21 31.6006v630.8c64.79 30.2598 149.021 47.5996 231.211 47.5996
c221.52 0 348.119 -128.83 348.119 -355c0 -225.68 -126.94 -355 -348.12 -355zM291.907 178.27c74.6104 0 111.6 55.2598 111.6 166.729c0 112.76 -36.8799 168.67 -111.28 168.67c-14.96 0 -28.4502 -2.17969 -39.3398 -7.46973l-0.240234 -324.41
c11.1504 -2.46973 24.6104 -3.51953 39.2607 -3.51953z" />
    <glyph glyph-name="Dcroat" unicode="&#x110;" horiz-adv-x="678" 
d="M301.72 700c221.51 0 348.12 -128.828 348.12 -354.998c0 -225.68 -126.95 -355 -348.12 -355c-77.2598 0 -161.49 11.5098 -231.221 31.5996v273.91h-55.9004c-13.0703 33.1797 -13.0703 71.1992 0 104.379h55.9004v252.51
c64.79 30.2598 149.021 47.5996 231.221 47.5996zM320.89 178.271c74.6104 0 111.6 55.2578 111.6 166.728c0 112.76 -36.8799 168.67 -111.27 168.67c-14.9697 0 -28.46 -2.17969 -39.3496 -7.46973l-0.0800781 -106.31h72.04
c13.0703 -33.1797 13.0703 -71.1992 0 -104.379h-72.1104l-0.0898438 -113.72c11.1602 -2.46973 24.6201 -3.51953 39.2598 -3.51953z" />
    <glyph glyph-name="uni1E0C" unicode="&#x1e0c;" horiz-adv-x="649" 
d="M272.73 -10c-77.2598 0 -161.49 11.5107 -231.21 31.6006v630.8c64.79 30.2598 149.021 47.5996 231.211 47.5996c221.52 0 348.119 -128.83 348.119 -355c0 -225.68 -126.94 -355 -348.12 -355zM291.91 178.271c74.6104 0 111.6 55.2598 111.6 166.729
c0 112.76 -36.8799 168.67 -111.28 168.67c-14.96 0 -28.4502 -2.17969 -39.3398 -7.46973l-0.240234 -324.41c11.1504 -2.46973 24.6104 -3.51953 39.2607 -3.51953zM227.129 -191.229c-12.6797 43.5801 -12.6797 93.5303 0 137.12
c47.1396 15.6104 101.17 15.6104 148.31 0c12.6797 -43.5898 12.6797 -93.54 0 -137.12c-47.1396 -14.2598 -101.17 -14.2598 -148.31 0z" />
    <glyph glyph-name="uni01F2" unicode="&#x1f2;" horiz-adv-x="1174" 
d="M272.73 -10c-77.2598 0 -161.49 11.5107 -231.21 31.6006v630.8c64.79 30.2598 149.021 47.5996 231.211 47.5996c221.52 0 348.119 -128.83 348.119 -355c0 -225.68 -126.94 -355 -348.12 -355zM694.971 0.000976562c-22.9004 38.9102 -35.9502 91.751 -35.8701 145.151
c57.9004 71.4199 126.811 142.2 203.74 207.141h-186.07c-16.7402 53.3096 -16.7402 114.399 0 167.709h428.73c22.8896 -36.5898 35.9395 -86.7803 35.8594 -137.851c-78.9102 -68.6904 -148.87 -141.311 -205.4 -212.641h210.86
c16.7402 -53.8799 16.7402 -115.63 0 -169.51h-451.85zM291.911 178.271c74.6104 0 111.6 55.2598 111.6 166.729c0 112.76 -36.8799 168.67 -111.28 168.67c-14.96 0 -28.4502 -2.17969 -39.3398 -7.46973l-0.240234 -324.41
c11.1504 -2.46973 24.6104 -3.51953 39.2607 -3.51953z" />
    <glyph glyph-name="uni01C5" unicode="&#x1c5;" horiz-adv-x="1174" 
d="M1064.81 643.98c-45.2998 -25.6699 -81.8701 -55.3506 -110.14 -88.4102c-37.5498 -10.5 -82.1396 -10.5 -119.699 0c-28.2598 33.0596 -64.8301 62.7393 -110.14 88.4092c7.08984 28.4502 25.6797 53.5703 51.0293 68.9707
c44.3496 -9.83984 87.3301 -27.1396 118.96 -45.5098c31.1299 18.21 74.0898 35.5195 118.92 45.5098c25 -14.9697 43.5996 -40.0898 51.0693 -68.9697zM272.729 -10.001c-77.2598 0 -161.49 11.5107 -231.21 31.6006v630.8c64.79 30.2598 149.021 47.5996 231.211 47.5996
c221.52 0 348.119 -128.83 348.119 -355c0 -225.68 -126.94 -355 -348.12 -355zM694.97 0c-22.9004 38.9102 -35.9502 91.751 -35.8701 145.151c57.9004 71.4199 126.811 142.2 203.74 207.141h-186.07c-16.7402 53.3096 -16.7402 114.399 0 167.709h428.73
c22.8896 -36.5898 35.9395 -86.7803 35.8594 -137.851c-78.9102 -68.6904 -148.87 -141.311 -205.4 -212.641h210.86c16.7402 -53.8799 16.7402 -115.63 0 -169.51h-451.85zM291.91 178.271c74.6104 0 111.6 55.2598 111.6 166.729c0 112.76 -36.8799 168.67 -111.28 168.67
c-14.96 0 -28.4502 -2.17969 -39.3398 -7.46973l-0.240234 -324.41c11.1504 -2.46973 24.6104 -3.51953 39.2607 -3.51953z" />
    <glyph glyph-name="E" unicode="E" horiz-adv-x="553" 
d="M519.8 179.69c16.5303 -57.1201 16.5293 -122.581 -0.000976562 -179.691h-367.01h-111.27v690h213.61h249.66c16.5098 -56.5 16.5098 -121.26 0 -177.76h-249.66v-77.0498h224.67c16.5303 -53.9697 16.5303 -115.819 0 -169.789h-224.67v-85.71h264.67z" />
    <glyph glyph-name="Eacute" unicode="&#xc9;" horiz-adv-x="553" 
d="M271.61 715.57c-26.9502 23 -49.2695 55.0791 -61.2598 88.0693c42.0996 50.7002 99.9297 100.181 158.76 135.811c38.5801 -29.8604 69.1201 -73.8799 83.8398 -120.84c-64.3203 -26.9297 -130.37 -64.4697 -181.34 -103.04zM519.802 179.689
c16.5303 -57.1201 16.5293 -122.581 -0.000976562 -179.691h-367.01h-111.27v690h213.61h249.66c16.5098 -56.5 16.5098 -121.26 0 -177.76h-249.66v-77.0498h224.67c16.5303 -53.9697 16.5303 -115.819 0 -169.789h-224.67v-85.71h264.67z" />
    <glyph glyph-name="Ebreve" unicode="&#x114;" horiz-adv-x="553" 
d="M274.36 711.52c-85.9805 0 -140.133 47.8496 -148.673 131.359c32.71 10.8398 79.1104 10.8398 111.811 0c7.19043 -17.9404 19.7305 -27.0801 36.9609 -27.0801c17.9404 0 30.8906 9.13965 38.1904 27.0801c32.7002 10.8398 79.1006 10.8398 111.811 0
c-8.58008 -83.5098 -63.2598 -131.359 -150.1 -131.359zM519.799 179.689c16.5303 -57.1201 16.5293 -122.581 -0.000976562 -179.691h-367.01h-111.27v690h213.61h249.66c16.5098 -56.5 16.5098 -121.26 0 -177.76h-249.66v-77.0498h224.67
c16.5303 -53.9697 16.5303 -115.819 0 -169.789h-224.67v-85.71h264.67z" />
    <glyph glyph-name="Ecaron" unicode="&#x11a;" horiz-adv-x="553" 
d="M215.22 725.57c-28.2695 33.0596 -64.8408 62.7383 -110.141 88.4082c7.08008 28.4502 25.6699 53.5703 51.0195 68.9707c44.3496 -9.83984 87.3301 -27.1396 118.97 -45.5098c31.1201 18.21 74.0801 35.5195 118.91 45.5098
c25 -14.9697 43.6104 -40.0898 51.0801 -68.9697c-45.3096 -25.6699 -81.8799 -55.3496 -110.149 -88.4092c-37.5498 -10.5 -82.1396 -10.5 -119.689 0zM519.799 179.689c16.5303 -57.1201 16.5293 -122.581 -0.000976562 -179.691h-367.01h-111.27v690h213.61h249.66
c16.5098 -56.5 16.5098 -121.26 0 -177.76h-249.66v-77.0498h224.67c16.5303 -53.9697 16.5303 -115.819 0 -169.789h-224.67v-85.71h264.67z" />
    <glyph glyph-name="Ecircumflex" unicode="&#xca;" horiz-adv-x="553" 
d="M156.1 713.29c-25.3604 15.4004 -43.9482 40.5293 -51.0283 68.9795c45.3096 25.6602 81.8691 55.3398 110.139 88.3994c37.5498 10.5 82.1494 10.5 119.699 0c28.2695 -33.0596 64.8291 -62.7393 110.139 -88.3994
c-7.46973 -28.8799 -26.0693 -54.0098 -51.0693 -68.9795c-44.8301 10 -87.79 27.2998 -118.92 45.5195c-31.6396 -18.3701 -74.6094 -35.6797 -118.959 -45.5195zM519.802 179.689c16.5303 -57.1201 16.5293 -122.581 -0.000976562 -179.691h-367.01h-111.27v690h213.61
h249.66c16.5098 -56.5 16.5098 -121.26 0 -177.76h-249.66v-77.0498h224.67c16.5303 -53.9697 16.5303 -115.819 0 -169.789h-224.67v-85.71h264.67z" />
    <glyph glyph-name="uni1EBE" unicode="&#x1ebe;" horiz-adv-x="553" 
d="M275.7 876.3c-24.5703 20.96 -44.9092 50.1992 -55.8496 80.2695c38.3799 46.2197 91.0898 91.3096 144.71 123.79c35.1699 -27.2197 63.0098 -67.3398 76.4199 -110.14c-58.6201 -24.5498 -118.83 -58.7598 -165.28 -93.9199zM156.201 705.299
c-25.3496 15.4004 -43.9385 40.5293 -51.0186 68.9697c45.2998 25.6699 81.8701 55.3496 110.14 88.4092c37.5498 10.5 82.1396 10.5 119.689 0c28.2695 -33.0596 64.8398 -62.7393 110.149 -88.4092c-7.46973 -28.8799 -26.0801 -54 -51.0801 -68.9697
c-44.8301 9.99023 -87.79 27.2998 -118.91 45.5098c-31.6396 -18.3701 -74.6201 -35.6699 -118.97 -45.5098zM519.802 179.698c16.5303 -57.1201 16.5293 -122.581 -0.000976562 -179.691h-367.01h-111.27v690h213.61h249.66c16.5098 -56.5 16.5098 -121.26 0 -177.76
h-249.66v-77.0498h224.67c16.5303 -53.9697 16.5303 -115.819 0 -169.789h-224.67v-85.71h264.67z" />
    <glyph glyph-name="uni1EC6" unicode="&#x1ec6;" horiz-adv-x="553" 
d="M156.1 713.29c-25.3604 15.4004 -43.9482 40.5293 -51.0283 68.9795c45.3096 25.6602 81.8691 55.3398 110.139 88.3994c37.5498 10.5 82.1494 10.5 119.699 0c28.2695 -33.0596 64.8291 -62.7393 110.139 -88.3994
c-7.46973 -28.8799 -26.0693 -54.0098 -51.0693 -68.9795c-44.8301 10 -87.79 27.2998 -118.92 45.5195c-31.6396 -18.3701 -74.6094 -35.6797 -118.959 -45.5195zM519.802 179.689c16.5303 -57.1201 16.5293 -122.581 -0.000976562 -179.691h-367.01h-111.27v690h213.61
h249.66c16.5098 -56.5 16.5098 -121.26 0 -177.76h-249.66v-77.0498h224.67c16.5303 -53.9697 16.5303 -115.819 0 -169.789h-224.67v-85.71h264.67zM207.771 -54.1113c47.1396 15.6104 101.17 15.6104 148.31 0c12.6797 -43.5898 12.6797 -93.54 0 -137.12
c-47.1396 -14.2598 -101.17 -14.2598 -148.31 0c-12.6797 43.5801 -12.6797 93.5303 0 137.12z" />
    <glyph glyph-name="uni1EC0" unicode="&#x1ec0;" horiz-adv-x="553" 
d="M330.27 956.57c-10.9404 -30.0703 -31.2803 -59.3096 -55.8398 -80.2695c-46.46 35.1602 -106.67 69.3701 -165.29 93.9199c13.4199 42.7998 41.25 82.9199 76.4199 110.14c53.6201 -32.4805 106.33 -77.5703 144.71 -123.79zM156.039 705.291
c-25 14.9697 -43.5996 40.0908 -51.0693 68.9707c45.2998 25.6699 81.8701 55.3496 110.14 88.4092c37.5498 10.5 82.1396 10.5 119.699 0c28.2598 -33.0596 64.8301 -62.7393 110.14 -88.4092c-7.08984 -28.4404 -25.6797 -53.5703 -51.0293 -68.9707
c-44.3496 9.83984 -87.3301 27.1396 -118.96 45.5098c-31.1299 -18.21 -74.0898 -35.5195 -118.92 -45.5098zM519.799 179.692c16.5303 -57.1201 16.5293 -122.581 -0.000976562 -179.691h-367.01h-111.27v690h213.61h249.66c16.5098 -56.5 16.5098 -121.26 0 -177.76
h-249.66v-77.0498h224.67c16.5303 -53.9697 16.5303 -115.819 0 -169.789h-224.67v-85.71h264.67z" />
    <glyph glyph-name="uni1EC2" unicode="&#x1ec2;" horiz-adv-x="553" 
d="M211.92 964.36c-23.8896 12.9902 -38.9609 34.5107 -41.7109 59.4912c26.0596 36.5 66.8398 57.4102 111.96 57.4102c59.5195 0 98.7197 -33.4004 98.7197 -84.1104c0 -56.1904 -39.0195 -100.521 -107.119 -121.69c-23.4297 11.6396 -38.7197 33.3301 -42.3096 59.9502
c17.6104 9.16016 27.7002 20.1797 27.7002 30.2598c0 8.32031 -6.2998 13.5898 -16.25 13.5898c-9.62012 0 -21.6699 -5.83008 -30.9902 -14.9004zM156.199 705.291c-25.3496 15.4004 -43.9385 40.5293 -51.0186 68.9697c45.2998 25.6699 81.8701 55.3496 110.14 88.4092
c37.5498 10.5 82.1396 10.5 119.689 0c28.2695 -33.0596 64.8398 -62.7393 110.149 -88.4092c-7.46973 -28.8799 -26.0801 -54 -51.0801 -68.9697c-44.8301 9.99023 -87.79 27.2998 -118.91 45.5098c-31.6396 -18.3701 -74.6201 -35.6699 -118.97 -45.5098zM519.8 179.69
c16.5303 -57.1201 16.5293 -122.581 -0.000976562 -179.691h-367.01h-111.27v690h213.61h249.66c16.5098 -56.5 16.5098 -121.26 0 -177.76h-249.66v-77.0498h224.67c16.5303 -53.9697 16.5303 -115.819 0 -169.789h-224.67v-85.71h264.67z" />
    <glyph glyph-name="uni1EC4" unicode="&#x1ec4;" horiz-adv-x="553" 
d="M175.6 885.25c-31.4102 1.12012 -58.2725 14.54 -74.3428 37.0801c20.6104 59.7197 63.1406 93.8301 113.581 93.8301c54.1904 0 73.8408 -24.7002 113.051 -24.7002c20.7695 0 38.1592 8.67969 47.6689 24.4492c31.4102 -1.12012 58.2705 -14.54 74.3408 -37.0801
c-20.5996 -59.7305 -63.1299 -93.8301 -113.58 -93.8301c-53.9902 0 -73.54 24.7002 -113.05 24.7002c-20.7695 0 -38.1592 -8.67969 -47.6689 -24.4492zM335.008 862.67c28.2695 -33.0596 64.8408 -62.7402 110.15 -88.4102
c-7.46973 -28.8799 -26.0801 -54 -51.0801 -68.9697c-44.8301 9.99023 -87.79 27.2998 -118.91 45.5098c-31.6396 -18.3701 -74.6201 -35.6699 -118.97 -45.5098c-25.3496 15.4004 -43.9395 40.5303 -51.0195 68.9707c45.2998 25.6699 81.8701 55.3496 110.14 88.4092
c37.5498 10.5 82.1396 10.5 119.689 0zM519.799 179.688c16.5303 -57.1201 16.5293 -122.581 -0.000976562 -179.691h-367.01h-111.27v690h213.61h249.66c16.5098 -56.5 16.5098 -121.26 0 -177.76h-249.66v-77.0498h224.67c16.5303 -53.9697 16.5303 -115.819 0 -169.789
h-224.67v-85.71h264.67z" />
    <glyph glyph-name="uni0204" unicode="&#x204;" horiz-adv-x="553" 
d="M406.78 756.57c-28.1396 -19.9199 -64.3398 -33.3701 -99.3896 -36.9004c-20.21 58.6299 -48.5 115.25 -85.3496 170.83c38.0996 29.75 87.7295 48.1504 136.239 50.5c25.7998 -61.1602 41.8701 -122.29 48.5 -184.43zM248.78 768.71
c-23.9805 -25.2598 -57.0713 -45.5898 -90.8311 -55.8203c-29.71 50.8398 -67.6104 99.8398 -114.33 147.87c31.9805 36.9102 77.3105 64.8105 124.44 76.5801c34.5703 -50.5898 61.3203 -106.479 80.7207 -168.63zM519.799 179.69
c16.5303 -57.1201 16.5293 -122.581 -0.000976562 -179.691h-367.01h-111.27v690h213.61h249.66c16.5098 -56.5 16.5098 -121.26 0 -177.76h-249.66v-77.0498h224.67c16.5303 -53.9697 16.5303 -115.819 0 -169.789h-224.67v-85.71h264.67z" />
    <glyph glyph-name="Edieresis" unicode="&#xcb;" horiz-adv-x="553" 
d="M258.22 741.94c-47.6299 -14.4199 -102.21 -14.4199 -149.84 0c-12.8096 44.0801 -12.8096 94.5996 0 138.68c47.6299 15.79 102.21 15.79 149.84 0c12.7998 -44.0801 12.7998 -94.5996 0 -138.68zM445.87 741.94c-47.6299 -14.4199 -102.21 -14.4199 -149.84 0
c-12.8096 44.0801 -12.8096 94.5996 0 138.68c47.6299 15.79 102.21 15.79 149.84 0c12.7998 -44.0801 12.7998 -94.5996 0 -138.68zM519.8 179.69c16.5303 -57.1201 16.5293 -122.581 -0.000976562 -179.691h-367.01h-111.27v690h213.61h249.66
c16.5098 -56.5 16.5098 -121.26 0 -177.76h-249.66v-77.0498h224.67c16.5303 -53.9697 16.5303 -115.819 0 -169.789h-224.67v-85.71h264.67z" />
    <glyph glyph-name="Edotaccent" unicode="&#x116;" horiz-adv-x="553" 
d="M375.99 733.19c-64.1602 -17.3203 -137.7 -17.3203 -201.86 0c-17.2402 52.9404 -17.2402 113.61 0 166.551c64.1602 18.96 137.7 18.96 201.86 0c17.25 -52.9404 17.25 -113.61 0 -166.551zM519.8 179.69c16.5303 -57.1201 16.5293 -122.581 -0.000976562 -179.691
h-367.01h-111.27v690h213.61h249.66c16.5098 -56.5 16.5098 -121.26 0 -177.76h-249.66v-77.0498h224.67c16.5303 -53.9697 16.5303 -115.819 0 -169.789h-224.67v-85.71h264.67z" />
    <glyph glyph-name="uni1EB8" unicode="&#x1eb8;" horiz-adv-x="553" 
d="M519.8 179.69c16.5303 -57.1201 16.5293 -122.581 -0.000976562 -179.691h-367.01h-111.27v690h213.61h249.66c16.5098 -56.5 16.5098 -121.26 0 -177.76h-249.66v-77.0498h224.67c16.5303 -53.9697 16.5303 -115.819 0 -169.789h-224.67v-85.71h264.67z
M207.769 -54.1104c47.1396 15.6104 101.17 15.6104 148.31 0c12.6797 -43.5898 12.6797 -93.54 0 -137.12c-47.1396 -14.2598 -101.17 -14.2598 -148.31 0c-12.6797 43.5801 -12.6797 93.5303 0 137.12z" />
    <glyph glyph-name="Egrave" unicode="&#xc8;" horiz-adv-x="553" 
d="M364.33 802.64c-11.9902 -32.9902 -34.3096 -65.0693 -61.2598 -88.0693c-50.9697 38.5703 -117.02 76.1104 -181.34 103.04c14.7197 46.96 45.2598 90.9795 83.8398 120.84c58.8301 -35.6299 116.66 -85.1104 158.76 -135.811zM519.801 179.69
c16.5303 -57.1201 16.5293 -122.581 -0.000976562 -179.691h-367.01h-111.27v690h213.61h249.66c16.5098 -56.5 16.5098 -121.26 0 -177.76h-249.66v-77.0498h224.67c16.5303 -53.9697 16.5303 -115.819 0 -169.789h-224.67v-85.71h264.67z" />
    <glyph glyph-name="uni1EBA" unicode="&#x1eba;" horiz-adv-x="553" 
d="M207.77 823.29c-26.21 14.2402 -42.7402 37.8613 -45.7598 65.2617c28.5898 40.04 73.3398 62.9902 122.83 62.9902c65.2998 0 108.319 -36.6504 108.319 -92.2803c0 -61.6504 -42.8203 -110.28 -117.53 -133.511c-25.71 12.7695 -42.4795 36.5693 -46.4199 65.7793
c19.3203 10.04 30.3906 22.1396 30.3906 33.1992c0 9.12012 -6.91016 14.9004 -17.8301 14.9004c-10.5498 0 -23.7695 -6.38965 -34 -16.3398zM519.8 179.691c16.5303 -57.1201 16.5293 -122.581 -0.000976562 -179.691h-367.01h-111.27v690h213.61h249.66
c16.5098 -56.5 16.5098 -121.26 0 -177.76h-249.66v-77.0498h224.67c16.5303 -53.9697 16.5303 -115.819 0 -169.789h-224.67v-85.71h264.67z" />
    <glyph glyph-name="uni0206" unicode="&#x206;" horiz-adv-x="553" 
d="M237.42 728.44c-32.71 -10.8496 -79.1104 -10.8496 -111.811 0c8.53027 83.5 62.6904 131.36 148.671 131.36c86.8398 0 141.52 -47.8604 150.09 -131.36c-32.7002 -10.8496 -79.1006 -10.8496 -111.801 0c-7.2998 17.9404 -20.2598 27.0703 -38.1895 27.0703
c-17.2305 0 -29.7803 -9.12988 -36.96 -27.0703zM519.8 179.69c16.5303 -57.1201 16.5293 -122.581 -0.000976562 -179.691h-367.01h-111.27v690h213.61h249.66c16.5098 -56.5 16.5098 -121.26 0 -177.76h-249.66v-77.0498h224.67
c16.5303 -53.9697 16.5303 -115.819 0 -169.789h-224.67v-85.71h264.67z" />
    <glyph glyph-name="Emacron" unicode="&#x112;" horiz-adv-x="553" 
d="M432.42 738.88h-314.72c-13.4502 42.46 -13.4502 91.1201 0 133.57h314.72c13.46 -42.4502 13.46 -91.1104 0 -133.57zM519.8 179.689c16.5303 -57.1201 16.5293 -122.581 -0.000976562 -179.691h-367.01h-111.27v690h213.61h249.66
c16.5098 -56.5 16.5098 -121.26 0 -177.76h-249.66v-77.0498h224.67c16.5303 -53.9697 16.5303 -115.819 0 -169.789h-224.67v-85.71h264.67z" />
    <glyph glyph-name="Eogonek" unicode="&#x118;" horiz-adv-x="553" 
d="M519.8 179.69c16.5303 -57.1201 16.5293 -122.581 -0.000976562 -179.691h-367.01h-111.27v690h213.61h249.66c16.5098 -56.5 16.5098 -121.26 0 -177.76h-249.66v-77.0498h224.67c16.5303 -53.9697 16.5303 -115.819 0 -169.789h-224.67v-85.71h264.67z
M470.358 -92.1602c25.7002 -11.2695 44.8496 -34.6299 52.5498 -64.1201c-22.5195 -45.8799 -74.1699 -75.7295 -131.3 -75.7295c-70.3496 0 -115.89 35.79 -115.89 91.0303c0 64.3203 64.8398 119.95 164.399 140.07l79.6797 0.910156
c-65.0498 -31.1602 -89.2598 -58.7402 -89.2598 -81.4102c0 -11.9404 7.11035 -18.7705 19.5205 -18.7705c6.71973 0 14.1201 2.91992 20.2998 8.01953z" />
    <glyph glyph-name="uni1EBC" unicode="&#x1ebc;" horiz-adv-x="553" 
d="M156.92 727.04c-37.3496 1.33984 -69.2998 17.2891 -88.4102 44.0986c24.5098 71.0303 75.0898 111.59 135.08 111.59c64.4502 0 87.8105 -29.3701 134.44 -29.3701c24.71 0 45.3896 10.3203 56.6992 29.0703c37.3604 -1.42969 69.3008 -17.29 88.4111 -44.0996
c-24.5 -71.0195 -75.0801 -111.579 -135.08 -111.579c-64.21 0 -87.46 29.3701 -134.44 29.3701c-24.7002 0 -45.3906 -10.3301 -56.7002 -29.0801zM519.8 179.689c16.5303 -57.1201 16.5293 -122.581 -0.000976562 -179.691h-367.01h-111.27v690h213.61h249.66
c16.5098 -56.5 16.5098 -121.26 0 -177.76h-249.66v-77.0498h224.67c16.5303 -53.9697 16.5303 -115.819 0 -169.789h-224.67v-85.71h264.67z" />
    <glyph glyph-name="F" unicode="F" horiz-adv-x="520" 
d="M489.07 510.53l-233.94 -0.000976562v-91.2002h203.28c16.8604 -55.0596 16.8604 -118.159 0 -173.219h-203.28v-238.91c-67.9102 -16.7197 -145.7 -16.7197 -213.61 0v682.8h213.61h233.94c16.6699 -57.0498 16.6699 -122.43 0 -179.47z" />
    <glyph glyph-name="G" unicode="G" horiz-adv-x="597" 
d="M354.44 -10c-208.79 0 -326.59 127.988 -326.59 343.479c0 221.6 125.97 366.51 314.21 366.51c97.3896 0 165.37 -39 200.89 -101.38c-13.5098 -60.1602 -54.7402 -109.18 -113.15 -134.569c-21.5303 28.3896 -49.3906 42.8496 -80.9004 42.8496
c-67.6797 0 -101.239 -53 -101.239 -159.89c0 -107.67 40.1602 -161.05 121.16 -161.05c4.09961 0 8.42969 1.29004 11.71 3.54004v139.4c59.6201 16.7695 127.98 16.7695 187.61 0v-289.89c-54.8203 -30.7998 -135.351 -49 -213.7 -49z" />
    <glyph glyph-name="uni01F4" unicode="&#x1f4;" horiz-adv-x="597" 
d="M275.71 803.65c42.0996 50.71 99.9395 100.181 158.76 135.82c38.5801 -29.8701 69.1299 -73.8896 83.8398 -120.84c-64.3096 -26.9404 -130.369 -64.4707 -181.329 -103.041c-26.9502 23 -49.2705 55.0801 -61.2705 88.0605zM354.44 -9.99902
c-208.79 0 -326.59 127.988 -326.59 343.479c0 221.6 125.97 366.51 314.21 366.51c97.3896 0 165.37 -39 200.89 -101.38c-13.5098 -60.1602 -54.7402 -109.18 -113.15 -134.569c-21.5303 28.3896 -49.3906 42.8496 -80.9004 42.8496
c-67.6797 0 -101.239 -53 -101.239 -159.89c0 -107.67 40.1602 -161.05 121.16 -161.05c4.09961 0 8.42969 1.29004 11.71 3.54004v139.4c59.6201 16.7695 127.98 16.7695 187.61 0v-289.89c-54.8203 -30.7998 -135.351 -49 -213.7 -49z" />
    <glyph glyph-name="Gbreve" unicode="&#x11e;" horiz-adv-x="597" 
d="M378.02 842.89c32.7002 10.8496 79.1006 10.8496 111.801 0c-8.57031 -83.5098 -63.25 -131.359 -150.09 -131.359c-85.9805 0 -140.141 47.8496 -148.671 131.359c32.7002 10.8496 79.1006 10.8496 111.811 0c7.17969 -17.9404 19.7295 -27.0703 36.96 -27.0703
c17.9297 0 30.8896 9.12988 38.1895 27.0703zM354.439 -10c-208.79 0 -326.59 127.988 -326.59 343.479c0 221.6 125.97 366.51 314.21 366.51c97.3896 0 165.37 -39 200.89 -101.38c-13.5098 -60.1602 -54.7402 -109.18 -113.15 -134.569
c-21.5303 28.3896 -49.3906 42.8496 -80.9004 42.8496c-67.6797 0 -101.239 -53 -101.239 -159.89c0 -107.67 40.1602 -161.05 121.16 -161.05c4.09961 0 8.42969 1.29004 11.71 3.54004v139.4c59.6201 16.7695 127.98 16.7695 187.61 0v-289.89
c-54.8203 -30.7998 -135.351 -49 -213.7 -49z" />
    <glyph glyph-name="Gcircumflex" unicode="&#x11c;" horiz-adv-x="597" 
d="M510.42 782.28c-7.46973 -28.8799 -26.0771 -54.001 -51.0674 -68.9707c-44.8398 9.99023 -87.7998 27.2998 -118.92 45.5098c-31.6396 -18.3701 -74.6094 -35.6699 -118.959 -45.5098c-25.3604 15.4004 -43.9502 40.5205 -51.0303 68.9707
c45.3096 25.6699 81.8691 55.3398 110.139 88.4102c37.5498 10.5 82.1494 10.5 119.699 0c28.2695 -33.0703 64.8291 -62.7402 110.139 -88.4102zM354.442 -10.001c-208.79 0 -326.59 127.988 -326.59 343.479c0 221.6 125.97 366.51 314.21 366.51
c97.3896 0 165.37 -39 200.89 -101.38c-13.5098 -60.1602 -54.7402 -109.18 -113.15 -134.569c-21.5303 28.3896 -49.3906 42.8496 -80.9004 42.8496c-67.6797 0 -101.239 -53 -101.239 -159.89c0 -107.67 40.1602 -161.05 121.16 -161.05
c4.09961 0 8.42969 1.29004 11.71 3.54004v139.4c59.6201 16.7695 127.98 16.7695 187.61 0v-289.89c-54.8203 -30.7998 -135.351 -49 -213.7 -49z" />
    <glyph glyph-name="Gcommaaccent" unicode="&#x122;" horiz-adv-x="597" 
d="M354.44 -10c-208.79 0 -326.59 127.988 -326.59 343.479c0 221.6 125.97 366.51 314.21 366.51c97.3896 0 165.37 -39 200.89 -101.38c-13.5098 -60.1602 -54.7402 -109.18 -113.15 -134.569c-21.5303 28.3896 -49.3906 42.8496 -80.9004 42.8496
c-67.6797 0 -101.239 -53 -101.239 -159.89c0 -107.67 40.1602 -161.05 121.16 -161.05c4.09961 0 8.42969 1.29004 11.71 3.54004v139.4c59.6201 16.7695 127.98 16.7695 187.61 0v-289.89c-54.8203 -30.7998 -135.351 -49 -213.7 -49zM425.54 -52.6318
c6.00977 -19.5303 9.4502 -46.3398 9.4502 -73.6201c0 -63.8096 -25.0098 -125.93 -68.6602 -170.52c-29.2803 3.41016 -54 19.4297 -66.5 43.5098c13.9502 16.1299 23.2598 35.04 25.5498 51.8799c-15.4805 1.44043 -31.3301 4.10059 -43.5098 7.32031
c-12.1504 44.9502 -12.1504 96.4697 0 141.43c45.6602 12.2695 98 12.2695 143.67 0z" />
    <glyph glyph-name="Gdotaccent" unicode="&#x120;" horiz-adv-x="597" 
d="M239.5 733.2c-17.25 52.9404 -17.25 113.62 0 166.561c64.1602 18.96 137.7 18.96 201.86 0c17.2402 -52.9404 17.2402 -113.62 0 -166.561c-64.1602 -17.3096 -137.7 -17.3096 -201.86 0zM354.44 -10c-208.79 0 -326.59 127.988 -326.59 343.479
c0 221.6 125.97 366.51 314.21 366.51c97.3896 0 165.37 -39 200.89 -101.38c-13.5098 -60.1602 -54.7402 -109.18 -113.15 -134.569c-21.5303 28.3896 -49.3906 42.8496 -80.9004 42.8496c-67.6797 0 -101.239 -53 -101.239 -159.89
c0 -107.67 40.1602 -161.05 121.16 -161.05c4.09961 0 8.42969 1.29004 11.71 3.54004v139.4c59.6201 16.7695 127.98 16.7695 187.61 0v-289.89c-54.8203 -30.7998 -135.351 -49 -213.7 -49z" />
    <glyph glyph-name="H" unicode="H" horiz-adv-x="662" 
d="M407.29 682.79c67.9199 17.6201 145.7 17.6201 213.62 0v-675.59c-67.9199 -16.7197 -145.7 -16.7197 -213.62 0v252.38h-152.16v-252.38c-67.9102 -16.7197 -145.7 -16.7197 -213.61 0v675.59c67.9102 17.6201 145.7 17.6201 213.61 0v-235.84h152.16v235.84z" />
    <glyph glyph-name="Hbar" unicode="&#x126;" horiz-adv-x="746" 
d="M725.67 623.96c12.9902 -33 12.9902 -70.8096 0 -103.81h-62.6699v-512.95c-67.9102 -16.7197 -145.7 -16.7197 -213.61 0v252.38h-152.17v-252.38c-67.9102 -16.7197 -145.7 -16.7197 -213.61 0v512.95h-62.8496c-12.9902 33 -12.9902 70.8096 0 103.81h62.8496v58.8301
c67.9102 17.6201 145.7 17.6201 213.61 0v-58.8301h152.17v58.8301c67.9102 17.6201 145.7 17.6201 213.61 0v-58.8301h62.6699zM449.39 446.96v73.2002h-152.17v-73.2002h152.17z" />
    <glyph glyph-name="Hcircumflex" unicode="&#x124;" horiz-adv-x="662" 
d="M212.25 713.29c-25.3604 15.4004 -43.9482 40.5293 -51.0283 68.9795c45.3096 25.6602 81.8691 55.3398 110.139 88.3994c37.5498 10.5 82.1494 10.5 119.699 0c28.2695 -33.0596 64.8291 -62.7393 110.139 -88.3994
c-7.46973 -28.8799 -26.0693 -54.0098 -51.0693 -68.9795c-44.8301 10 -87.79 27.2998 -118.92 45.5195c-31.6396 -18.3701 -74.6094 -35.6797 -118.959 -45.5195zM407.292 682.789c67.9199 17.6201 145.7 17.6201 213.62 0v-675.59
c-67.9199 -16.7197 -145.7 -16.7197 -213.62 0v252.38h-152.16v-252.38c-67.9102 -16.7197 -145.7 -16.7197 -213.61 0v675.59c67.9102 17.6201 145.7 17.6201 213.61 0v-235.84h152.16v235.84z" />
    <glyph glyph-name="uni1E24" unicode="&#x1e24;" horiz-adv-x="662" 
d="M407.29 682.79c67.9199 17.6201 145.7 17.6201 213.62 0v-675.59c-67.9199 -16.7197 -145.7 -16.7197 -213.62 0v252.38h-152.16v-252.38c-67.9102 -16.7197 -145.7 -16.7197 -213.61 0v675.59c67.9102 17.6201 145.7 17.6201 213.61 0v-235.84h152.16v235.84z
M258.32 -54.1104c47.1396 15.6104 101.17 15.6104 148.32 0c12.6699 -43.5898 12.6699 -93.54 0 -137.12c-47.1504 -14.2598 -101.181 -14.2598 -148.32 0c-12.6699 43.5801 -12.6699 93.5303 0 137.12z" />
    <glyph glyph-name="I" unicode="I" horiz-adv-x="302" 
d="M41.5195 7.2002v675.59c69.5996 17.2402 149.319 17.2402 218.93 0v-675.59c-69.6104 -16.8701 -149.33 -16.8701 -218.93 0z" />
    <glyph glyph-name="IJ" unicode="&#x132;" horiz-adv-x="738" 
d="M41.5195 7.2002v675.59c69.5996 17.2402 149.319 17.2402 218.93 0v-675.59c-69.6104 -16.8701 -149.33 -16.8701 -218.93 0zM503.51 -10c-80.4004 0 -153.811 28.7109 -202.53 79.4111c9.20996 58.6201 40.6904 107.51 86.4004 134.189
c16.0703 -13.4199 35.4004 -21.1104 53.0508 -21.1104c32.4502 0 43.3398 19 43.3398 68.54v255.34h-105.24c-16.46 58.3604 -16.46 125.261 0 183.631h318.85v-456.98c0 -155.15 -70.5098 -243.021 -193.87 -243.021z" />
    <glyph glyph-name="Iacute" unicode="&#xcd;" horiz-adv-x="302" 
d="M86.2695 803.64c42.0996 50.7002 99.9307 100.18 158.761 135.81c38.5801 -29.8604 69.1201 -73.8799 83.8398 -120.84c-64.3203 -26.9297 -130.37 -64.4697 -181.34 -103.04c-26.9502 23 -49.2705 55.0801 -61.2607 88.0703zM41.5205 7.19824v675.59
c69.5996 17.2402 149.319 17.2402 218.93 0v-675.59c-69.6104 -16.8701 -149.33 -16.8701 -218.93 0z" />
    <glyph glyph-name="Ibreve" unicode="&#x12c;" horiz-adv-x="302" 
d="M188.57 842.88c32.7002 10.8398 79.0986 10.8398 111.809 0c-8.58008 -83.5098 -63.2598 -131.359 -150.1 -131.359c-85.9805 0 -140.131 47.8496 -148.671 131.359c32.71 10.8398 79.1104 10.8398 111.811 0c7.19043 -17.9404 19.7305 -27.0801 36.9609 -27.0801
c17.9404 0 30.8906 9.13965 38.1904 27.0801zM41.5186 7.2002v675.59c69.5996 17.2402 149.319 17.2402 218.93 0v-675.59c-69.6104 -16.8701 -149.33 -16.8701 -218.93 0z" />
    <glyph glyph-name="uni01CF" unicode="&#x1cf;" horiz-adv-x="302" 
d="M320.98 813.98c-45.3096 -25.6699 -81.8809 -55.3506 -110.15 -88.4102c-37.5498 -10.5 -82.1396 -10.5 -119.689 0c-28.2695 33.0596 -64.8398 62.7393 -110.14 88.4092c7.08008 28.4502 25.6699 53.5703 51.0195 68.9707
c44.3496 -9.83984 87.3301 -27.1396 118.97 -45.5098c31.1201 18.21 74.0801 35.5195 118.91 45.5098c25 -14.9697 43.6104 -40.0898 51.0801 -68.9697zM41.5195 7.19922v675.59c69.5996 17.2402 149.319 17.2402 218.93 0v-675.59
c-69.6104 -16.8701 -149.33 -16.8701 -218.93 0z" />
    <glyph glyph-name="Icircumflex" unicode="&#xce;" horiz-adv-x="302" 
d="M320.97 782.27c-7.46973 -28.8799 -26.0684 -54.0107 -50.9688 -68.9805c-44.9297 10 -87.8896 27.2998 -119.02 45.5195c-31.6396 -18.3701 -74.6094 -35.6797 -118.959 -45.5195c-25.3604 15.4004 -43.9502 40.5303 -51.0303 68.9805
c45.3096 25.6602 81.8799 55.3398 110.14 88.3994c37.5498 10.5 82.1494 10.5 119.699 0c28.2695 -33.0596 64.8291 -62.7393 110.139 -88.3994zM41.5205 7.19824v675.59c69.5996 17.2402 149.319 17.2402 218.93 0v-675.59c-69.6104 -16.8701 -149.33 -16.8701 -218.93 0z
" />
    <glyph glyph-name="uni0208" unicode="&#x208;" horiz-adv-x="302" 
d="M282.7 756.57c-28.1396 -19.9199 -64.3398 -33.3701 -99.3896 -36.9004c-20.21 58.6299 -48.5 115.25 -85.3496 170.83c38.0996 29.75 87.7295 48.1504 136.239 50.5c25.7998 -61.1602 41.8701 -122.29 48.5 -184.43zM124.7 768.71
c-23.9805 -25.2598 -57.0723 -45.5898 -90.832 -55.8203c-29.7197 50.8398 -67.6094 99.8398 -114.329 147.87c31.9805 36.9102 77.3105 64.8105 124.44 76.5801c34.5703 -50.5898 61.3203 -106.479 80.7207 -168.63zM41.5186 7.2002v675.59
c69.5996 17.2402 149.319 17.2402 218.93 0v-675.59c-69.6104 -16.8701 -149.33 -16.8701 -218.93 0z" />
    <glyph glyph-name="Idieresis" unicode="&#xcf;" horiz-adv-x="302" 
d="M-15.7002 741.94c-12.8096 44.0801 -12.8096 94.5996 0 138.68c47.6299 15.79 102.21 15.79 149.84 0c12.7998 -44.0801 12.7998 -94.5996 0 -138.68c-47.6299 -14.4199 -102.21 -14.4199 -149.84 0zM171.95 741.94c-12.8096 44.0801 -12.8096 94.5996 0 138.68
c47.6299 15.79 102.21 15.79 149.84 0c12.7998 -44.0801 12.7998 -94.5996 0 -138.68c-47.6299 -14.4199 -102.21 -14.4199 -149.84 0zM41.5205 7.2002v675.59c69.5996 17.2402 149.319 17.2402 218.93 0v-675.59c-69.6104 -16.8701 -149.33 -16.8701 -218.93 0z" />
    <glyph glyph-name="Idotaccent" unicode="&#x130;" horiz-adv-x="302" 
d="M50.0498 733.19c-17.2402 52.9404 -17.2402 113.61 0 166.551c64.1602 18.96 137.7 18.96 201.86 0c17.25 -52.9404 17.25 -113.61 0 -166.551c-64.1602 -17.3203 -137.7 -17.3203 -201.86 0zM41.5195 7.2002v675.59c69.5996 17.2402 149.319 17.2402 218.93 0v-675.59
c-69.6104 -16.8701 -149.33 -16.8701 -218.93 0z" />
    <glyph glyph-name="uni1ECA" unicode="&#x1eca;" horiz-adv-x="302" 
d="M41.5195 7.2002v675.59c69.5996 17.2402 149.319 17.2402 218.93 0v-675.59c-69.6104 -16.8701 -149.33 -16.8701 -218.93 0zM78.0898 -191.229c-12.6699 43.5801 -12.6699 93.5303 0 137.12c47.1396 15.6104 101.17 15.6104 148.32 0
c12.6699 -43.5898 12.6699 -93.54 0 -137.12c-47.1504 -14.2598 -101.181 -14.2598 -148.32 0z" />
    <glyph glyph-name="Igrave" unicode="&#xcc;" horiz-adv-x="302" 
d="M240.25 802.64c-11.9902 -32.9902 -34.3086 -65.0693 -61.249 -88.0693c-50.9805 38.5703 -117.03 76.1104 -181.351 103.04c14.7197 46.96 45.2598 90.9795 83.8398 120.84c58.8301 -35.6299 116.66 -85.1104 158.76 -135.811zM41.5215 7.2002v675.59
c69.5996 17.2402 149.319 17.2402 218.93 0v-675.59c-69.6104 -16.8701 -149.33 -16.8701 -218.93 0z" />
    <glyph glyph-name="uni1EC8" unicode="&#x1ec8;" horiz-adv-x="302" 
d="M160.76 951.54c65.2998 0 108.309 -36.6494 108.309 -92.2793c0 -61.6504 -42.8096 -110.28 -117.52 -133.511c-25.71 12.7695 -42.4795 36.5693 -46.4199 65.7793c19.3203 10.04 30.3906 22.1396 30.3906 33.1992c0 9.12012 -6.91016 14.9004 -17.8301 14.9004
c-10.5498 0 -23.7695 -6.38965 -34 -16.3398c-26.21 14.2402 -42.7402 37.8604 -45.7598 65.2607c28.5898 40.04 73.3398 62.9902 122.83 62.9902zM41.5283 7.20117v675.59c69.5996 17.2402 149.319 17.2402 218.93 0v-675.59c-69.6104 -16.8701 -149.33 -16.8701 -218.93 0
z" />
    <glyph glyph-name="uni020A" unicode="&#x20a;" horiz-adv-x="302" 
d="M188.49 728.44c-7.2998 17.9404 -20.2598 27.0703 -38.1895 27.0703c-17.2305 0 -29.7803 -9.12988 -36.96 -27.0703c-32.71 -10.8496 -79.1104 -10.8496 -111.811 0c8.53027 83.5 62.6904 131.36 148.671 131.36c86.8398 0 141.52 -47.8604 150.09 -131.36
c-32.7002 -10.8496 -79.1006 -10.8496 -111.801 0zM41.5205 7.2002v675.59c69.5996 17.2402 149.319 17.2402 218.93 0v-675.59c-69.6104 -16.8701 -149.33 -16.8701 -218.93 0z" />
    <glyph glyph-name="Imacron" unicode="&#x12a;" horiz-adv-x="302" 
d="M-6.37988 738.88c-13.4502 42.46 -13.4502 91.1201 0 133.57h314.72c13.46 -42.4502 13.46 -91.1104 0 -133.57h-314.72zM41.5205 7.2002v675.59c69.5996 17.2402 149.319 17.2402 218.93 0v-675.59c-69.6104 -16.8701 -149.33 -16.8701 -218.93 0z" />
    <glyph glyph-name="Iogonek" unicode="&#x12e;" horiz-adv-x="302" 
d="M211 -84.96c25.7002 -11.2695 44.8496 -34.6309 52.5498 -64.1211c-22.5303 -45.8799 -74.1699 -75.7295 -131.3 -75.7295c-70.3496 0 -115.899 35.79 -115.899 91.04c0 54.5195 46.5996 102.8 121.439 128.49c-32.9004 0.879883 -65.5801 5.04004 -96.2803 12.4805
v675.59c69.5996 17.2402 149.319 17.2402 218.93 0v-675.59c-65.0498 -31.1504 -89.2695 -58.7402 -89.2695 -81.4102c0 -11.9297 7.12012 -18.7695 19.5303 -18.7695c6.71973 0 14.1094 2.91992 20.2998 8.01953z" />
    <glyph glyph-name="Itilde" unicode="&#x128;" horiz-adv-x="302" 
d="M270.65 882.43c37.3604 -1.42969 69.3008 -17.291 88.4111 -44.1006c-24.5 -71.0195 -75.0801 -111.579 -135.08 -111.579c-64.21 0 -87.46 29.3701 -134.44 29.3701c-24.7002 0 -45.3906 -10.3301 -56.7002 -29.0801c-37.3496 1.33984 -69.2998 17.29 -88.4102 44.0996
c24.5098 71.0303 75.0898 111.59 135.08 111.59c64.4502 0 87.8105 -29.3701 134.44 -29.3701c24.71 0 45.3896 10.3203 56.6992 29.0703zM41.5205 7.19824v675.59c69.5996 17.2402 149.319 17.2402 218.93 0v-675.59c-69.6104 -16.8701 -149.33 -16.8701 -218.93 0z" />
    <glyph glyph-name="J" unicode="J" horiz-adv-x="448" 
d="M213.54 -10c-80.4004 0 -153.811 28.7109 -202.521 79.4111c9.2002 58.6201 40.6807 107.51 86.3906 134.189c16.0703 -13.4199 35.4004 -21.1104 53.0605 -21.1104c32.4404 0 43.3301 19 43.3301 68.54v255.34h-105.24c-16.5596 58.3604 -16.5596 125.261 0 183.631
h318.85v-456.98c0 -155.15 -70.5098 -243.021 -193.87 -243.021z" />
    <glyph glyph-name="Jcircumflex" unicode="&#x134;" horiz-adv-x="448" 
d="M416.92 782.27c-7.46973 -28.8799 -26.0791 -54.0107 -51.0791 -68.9805c-44.8301 10 -87.79 27.2998 -118.91 45.5195c-31.6396 -18.3701 -74.6201 -35.6797 -118.97 -45.5195c-25.3496 15.4004 -43.9395 40.5303 -51.0293 68.9805
c45.3096 25.6602 81.8799 55.3398 110.149 88.3994c37.5498 10.5 82.1396 10.5 119.689 0c28.2695 -33.0596 64.8398 -62.7393 110.149 -88.3994zM213.541 -10.001c-80.4004 0 -153.811 28.7109 -202.521 79.4111c9.2002 58.6201 40.6807 107.51 86.3906 134.189
c16.0703 -13.4199 35.4004 -21.1104 53.0605 -21.1104c32.4404 0 43.3301 19 43.3301 68.54v255.34h-105.24c-16.5596 58.3604 -16.5596 125.261 0 183.631h318.85v-456.98c0 -155.15 -70.5098 -243.021 -193.87 -243.021z" />
    <glyph glyph-name="K" unicode="K" horiz-adv-x="673" 
d="M479.01 379.53c75.5498 -116.45 139.538 -249.07 183.168 -372.33c-75.2695 -17.8896 -161.02 -17.8896 -236.449 0c-20.2402 73.1299 -49.5205 153.729 -83.3105 230.63c-25.7695 -32.4502 -56.3096 -66.7002 -87.3594 -97.46v-133.17
c-67.8896 -17.3701 -145.649 -17.3701 -213.539 0v675.59c67.8896 17.3701 145.649 17.3701 213.539 0v-305.28c63.4004 87.4004 119.391 197.36 156.19 305.28c67.1904 16.9004 151.65 16.9004 218.23 0c-33.5498 -99.6396 -86.1396 -208.46 -150.47 -303.26z" />
    <glyph glyph-name="Kcommaaccent" unicode="&#x136;" horiz-adv-x="673" 
d="M479.01 379.53c75.5498 -116.45 139.538 -249.07 183.168 -372.33c-75.2695 -17.8896 -161.02 -17.8896 -236.449 0c-20.2402 73.1299 -49.5205 153.729 -83.3105 230.63c-25.7695 -32.4502 -56.3096 -66.7002 -87.3594 -97.46v-133.17
c-67.8896 -17.3701 -145.649 -17.3701 -213.539 0v675.59c67.8896 17.3701 145.649 17.3701 213.539 0v-305.28c63.4004 87.4004 119.391 197.36 156.19 305.28c67.1904 16.9004 151.65 16.9004 218.23 0c-33.5498 -99.6396 -86.1396 -208.46 -150.47 -303.26z
M278.628 -52.6201c45.6699 12.2695 98 12.2695 143.67 0c6.00977 -19.5303 9.4502 -46.3398 9.4502 -73.6201c0 -63.8096 -25.0098 -125.93 -68.6602 -170.52c-29.2803 3.41016 -54 19.4297 -66.5 43.5098c13.9502 16.1299 23.2598 35.04 25.5498 51.8799
c-15.4805 1.44043 -31.3301 4.10059 -43.5098 7.32031c-12.1504 44.9502 -12.1504 96.4697 0 141.43z" />
    <glyph glyph-name="L" unicode="L" horiz-adv-x="522" 
d="M497.21 201.35c17.9297 -64 17.9297 -137.35 0 -201.35h-344.42h-111.27v682.79c68.75 16.8799 147.51 16.8799 216.27 0v-481.44h239.42z" />
    <glyph glyph-name="uni01C7" unicode="&#x1c7;" horiz-adv-x="979" 
d="M257.79 201.35h239.42c17.9297 -64 17.9297 -137.35 0 -201.35h-344.42h-111.27v682.79c68.75 16.8799 147.51 16.8799 216.27 0v-481.44zM619.21 690l318.859 0.000976562v-456.98c0 -155.15 -70.5098 -243.021 -193.87 -243.021
c-80.4004 0 -153.811 28.71 -202.53 79.4102c9.20996 58.6201 40.6904 107.51 86.4004 134.189c16.0703 -13.4199 35.4004 -21.1104 53.0508 -21.1104c32.4502 0 43.3398 19 43.3398 68.54v255.34h-105.25c-16.46 58.3604 -16.46 125.261 0 183.631z" />
    <glyph glyph-name="Lacute" unicode="&#x139;" horiz-adv-x="522" 
d="M146.68 715.57c-26.9502 23 -49.2715 55.0791 -61.2715 88.0693c42.1104 50.7002 99.9404 100.181 158.761 135.811c38.5898 -29.8604 69.1299 -73.8799 83.8398 -120.84c-64.3096 -26.9297 -130.369 -64.4697 -181.329 -103.04zM497.209 201.35
c17.9297 -64 17.9297 -137.35 0 -201.35h-344.42h-111.27v682.79c68.75 16.8799 147.51 16.8799 216.27 0v-481.44h239.42z" />
    <glyph glyph-name="Lcaron" unicode="&#x13d;" horiz-adv-x="522" 
d="M375.1 561.64c-15.4805 1.42969 -31.3301 4.08984 -43.5098 7.30957c-12.1504 44.96 -12.1504 96.4795 0 141.43c45.6699 12.2695 98.0098 12.2695 143.67 0c6.00977 -19.5195 9.4502 -46.3398 9.4502 -73.6094c0 -63.8096 -25.0098 -125.93 -68.6602 -170.529
c-29.2803 3.41992 -53.9902 19.4297 -66.5 43.5098c13.9502 16.1396 23.2598 35.04 25.5498 51.8896zM497.21 201.35c17.9297 -64 17.9297 -137.35 0 -201.35h-344.42h-111.27v682.79c68.75 16.8799 147.51 16.8799 216.27 0v-481.44h239.42z" />
    <glyph glyph-name="Lcommaaccent" unicode="&#x13b;" horiz-adv-x="522" 
d="M497.21 201.35c17.9297 -64 17.9297 -137.35 0 -201.35h-344.42h-111.27v682.79c68.75 16.8799 147.51 16.8799 216.27 0v-481.44h239.42zM196.69 -52.6201c45.6699 12.2695 98 12.2695 143.67 0c6.00977 -19.5303 9.4502 -46.3398 9.4502 -73.6201
c0 -63.8096 -25.0098 -125.93 -68.6602 -170.52c-29.2803 3.41016 -53.9902 19.4297 -66.5 43.5098c13.9502 16.1299 23.2598 35.04 25.5498 51.8799c-15.4805 1.44043 -31.3301 4.10059 -43.5098 7.32031c-12.1504 44.9502 -12.1504 96.4697 0 141.43z" />
    <glyph glyph-name="Ldot" unicode="&#x13f;" horiz-adv-x="522" 
d="M497.21 201.35c17.9297 -64 17.9297 -137.35 0 -201.35h-344.42h-111.27v682.79c68.75 16.8799 147.51 16.8799 216.27 0v-481.44h239.42zM485.15 272.649c-52.8604 -14.3701 -113.45 -14.3701 -166.311 0c-14.1504 52.5098 -14.1504 112.689 0 165.209
c52.8604 14.3701 113.45 14.3701 166.311 0c14.1602 -52.5195 14.1602 -112.699 0 -165.209z" />
    <glyph glyph-name="uni01C8" unicode="&#x1c8;" horiz-adv-x="821" 
d="M773.09 571.16c-64.1602 -17.3203 -137.7 -17.3203 -201.86 0c-17.25 52.9404 -17.25 113.61 0 166.561c64.1602 18.96 137.7 18.96 201.86 0c17.2402 -52.9502 17.2402 -113.62 0 -166.561zM497.21 201.351c17.9297 -64 17.9297 -137.35 0 -201.35h-344.42h-111.27
v682.79c68.75 16.8799 147.51 16.8799 216.27 0v-481.44h239.42zM567.66 523.601c66.75 -16.2598 143.252 -16.2588 210.002 0.000976562v-438.59c0 -180.15 -86.6104 -269.801 -244.9 -275.011c-30.1602 32.21 -44.1504 77.9795 -38.3809 125.649
c52.9297 33.5098 73.2793 72.7998 73.2793 140.16v447.79z" />
    <glyph glyph-name="Lslash" unicode="&#x141;" horiz-adv-x="522" 
d="M497.21 201.35c17.9297 -64 17.9287 -137.351 -0.000976562 -201.351h-344.42h-111.27v682.79c68.75 16.8799 147.51 16.8799 216.27 0v-206.83c28.71 17.5703 55.1104 37.5605 79.0908 59.9209c45.6602 -38.4697 72.04 -101.95 72.3799 -174.271
c-42.8896 -38.1797 -93.54 -66.5293 -151.47 -86.0195v-74.2402h239.42z" />
    <glyph glyph-name="M" unicode="M" horiz-adv-x="845" 
d="M31.1396 7.2002c3.86035 214.38 22.6162 463.11 51.4766 675.591c67.96 17.6201 145.79 17.6201 213.75 0c49.75 -104.88 95.5 -230.57 128.43 -355.73h1.83984c29.8096 125.18 73.8096 251.68 121.529 355.729c67.4004 17.4697 144.591 17.4697 211.98 0
c28.8604 -212.48 47.6104 -461.211 51.4805 -675.591c-65.6602 -16.4697 -140.87 -16.4697 -206.53 0c-1.80957 103.98 -6.15918 221.891 -15.2188 335.98h-1.84961c-31.2803 -73.3203 -61.2305 -162 -82.0801 -243.99c-51.6396 -16.9297 -110.85 -16.9297 -162.479 0
c-22.46 81.96 -54.0801 170.6 -86.9697 244.17h-1.83984c-9.01953 -111.3 -14.21 -229.27 -15.2295 -336.159c-66.2197 -16.5703 -142.069 -16.5703 -208.289 0z" />
    <glyph glyph-name="N" unicode="N" horiz-adv-x="707" 
d="M39.4404 7.2002v675.589c69.6504 16.2598 149.511 16.2598 219.161 0c74.7197 -98.6299 148.979 -221.84 209.02 -341.58c-2.73047 26.2998 -2.73047 49.0098 -2.73047 70.0898v271.49c64.5098 16.75 138.399 16.75 202.909 0v-675.59
c-69.6504 -17.1396 -149.511 -17.1396 -219.161 0c-60.25 117.21 -134.52 241.08 -209.02 343.86c2.73047 -26.5996 2.73047 -50.4395 2.73047 -70.3896v-273.47c-64.5098 -15.8896 -138.399 -15.8896 -202.909 0z" />
    <glyph glyph-name="uni01CA" unicode="&#x1ca;" horiz-adv-x="1143" 
d="M39.4404 7.2002v675.589c69.6504 16.2598 149.511 16.2598 219.161 0c74.7197 -98.6299 148.979 -221.84 209.02 -341.58c-2.73047 26.2998 -2.73047 49.0098 -2.73047 70.0898v271.49c64.5098 16.75 138.399 16.75 202.909 0v-675.59
c-69.6504 -17.1396 -149.511 -17.1396 -219.161 0c-60.25 117.21 -134.52 241.08 -209.02 343.86c2.73047 -26.5996 2.73047 -50.4395 2.73047 -70.3896v-273.47c-64.5098 -15.8896 -138.399 -15.8896 -202.909 0zM908.79 -10.001
c-80.4004 0 -153.811 28.7109 -202.53 79.4111c9.20996 58.6201 40.6904 107.51 86.4004 134.189c16.0703 -13.4199 35.4004 -21.1104 53.0605 -21.1104c32.4404 0 43.3301 19 43.3301 68.54v255.34h-105.24c-16.46 58.3604 -16.46 125.261 0 183.631h318.85v-456.98
c0 -155.15 -70.5098 -243.021 -193.87 -243.021z" />
    <glyph glyph-name="Nacute" unicode="&#x143;" horiz-adv-x="707" 
d="M288.91 803.64c42.0996 50.7002 99.9297 100.18 158.75 135.81c38.5898 -29.8604 69.1299 -73.8799 83.8398 -120.84c-64.3096 -26.9297 -130.359 -64.4697 -181.329 -103.04c-26.9502 23 -49.2705 55.0801 -61.2607 88.0703zM39.4404 7.19824v675.589
c69.6504 16.2598 149.511 16.2598 219.161 0c74.7197 -98.6299 148.979 -221.84 209.02 -341.58c-2.73047 26.2998 -2.73047 49.0098 -2.73047 70.0898v271.49c64.5098 16.75 138.399 16.75 202.909 0v-675.59c-69.6504 -17.1396 -149.511 -17.1396 -219.161 0
c-60.25 117.21 -134.52 241.08 -209.02 343.86c2.73047 -26.5996 2.73047 -50.4395 2.73047 -70.3896v-273.47c-64.5098 -15.8896 -138.399 -15.8896 -202.909 0z" />
    <glyph glyph-name="Ncaron" unicode="&#x147;" horiz-adv-x="707" 
d="M523.62 813.98c-45.3096 -25.6699 -81.8809 -55.3506 -110.15 -88.4102c-37.5498 -10.5 -82.1396 -10.5 -119.689 0c-28.2695 33.0596 -64.8398 62.7393 -110.149 88.4092c7.08984 28.4502 25.6797 53.5703 51.0293 68.9707
c44.3496 -9.83984 87.3301 -27.1396 118.97 -45.5098c31.1201 18.21 74.0801 35.5195 118.91 45.5098c25 -14.9697 43.6104 -40.0898 51.0801 -68.9697zM39.4395 7.19922v675.589c69.6504 16.2598 149.511 16.2598 219.161 0
c74.7197 -98.6299 148.979 -221.84 209.02 -341.58c-2.73047 26.2998 -2.73047 49.0098 -2.73047 70.0898v271.49c64.5098 16.75 138.399 16.75 202.909 0v-675.59c-69.6504 -17.1396 -149.511 -17.1396 -219.161 0c-60.25 117.21 -134.52 241.08 -209.02 343.86
c2.73047 -26.5996 2.73047 -50.4395 2.73047 -70.3896v-273.47c-64.5098 -15.8896 -138.399 -15.8896 -202.909 0z" />
    <glyph glyph-name="Ncommaaccent" unicode="&#x145;" horiz-adv-x="707" 
d="M39.4404 7.2002v675.589c69.6504 16.2598 149.511 16.2598 219.161 0c74.7197 -98.6299 148.979 -221.84 209.02 -341.58c-2.73047 26.2998 -2.73047 49.0098 -2.73047 70.0898v271.49c64.5098 16.75 138.399 16.75 202.909 0v-675.59
c-69.6504 -17.1396 -149.511 -17.1396 -219.161 0c-60.25 117.21 -134.52 241.08 -209.02 343.86c2.73047 -26.5996 2.73047 -50.4395 2.73047 -70.3896v-273.47c-64.5098 -15.8896 -138.399 -15.8896 -202.909 0zM424.521 -52.6211
c6 -19.5303 9.4502 -46.3398 9.4502 -73.6201c0 -63.8096 -25.0098 -125.93 -68.6602 -170.52c-29.2803 3.41016 -54 19.4297 -66.5098 43.5098c13.96 16.1299 23.2598 35.04 25.5498 51.8799c-15.4697 1.44043 -31.3193 4.10059 -43.5098 7.32031
c-12.1396 44.9502 -12.1396 96.4697 0 141.43c45.6699 12.2695 98.0098 12.2695 143.68 0z" />
    <glyph glyph-name="uni1E44" unicode="&#x1e44;" horiz-adv-x="707" 
d="M252.69 733.19c-17.2402 52.9404 -17.2402 113.61 0 166.551c64.1602 18.96 137.7 18.96 201.86 0c17.25 -52.9404 17.25 -113.61 0 -166.551c-64.1602 -17.3203 -137.7 -17.3203 -201.86 0zM39.4404 7.2002v675.589c69.6504 16.2598 149.511 16.2598 219.161 0
c74.7197 -98.6299 148.979 -221.84 209.02 -341.58c-2.73047 26.2998 -2.73047 49.0098 -2.73047 70.0898v271.49c64.5098 16.75 138.399 16.75 202.909 0v-675.59c-69.6504 -17.1396 -149.511 -17.1396 -219.161 0c-60.25 117.21 -134.52 241.08 -209.02 343.86
c2.73047 -26.5996 2.73047 -50.4395 2.73047 -70.3896v-273.47c-64.5098 -15.8896 -138.399 -15.8896 -202.909 0z" />
    <glyph glyph-name="Eng" unicode="&#x14a;" horiz-adv-x="707" 
d="M464.89 682.79c64.5098 16.75 138.399 16.748 202.909 -0.00195312v-646.78c0 -132.47 -96.3398 -220.8 -244.95 -226.01c-30.1396 32.3701 -44.1299 78.1006 -38.3799 125.511c42.2402 22.8604 65.6904 51.3408 65.6904 82.2109
c-62.4805 120.25 -128.551 233.01 -210.541 332.49c2.73047 -26.5996 2.73047 -49.5898 2.73047 -70.3896v-272.62c-64.5098 -15.8896 -138.399 -15.8896 -202.909 0v675.59c69.6299 16.25 149.37 16.25 219 0c72.4502 -96.71 148.49 -221.46 209.181 -341.34
c-2.73047 26.2998 -2.73047 49.2998 -2.73047 70.0898v271.25z" />
    <glyph glyph-name="uni01CB" unicode="&#x1cb;" horiz-adv-x="999" 
d="M748.82 571.16c-17.25 52.9404 -17.25 113.61 0 166.561c64.1602 18.96 137.7 18.96 201.86 0c17.2402 -52.9502 17.2402 -113.62 0 -166.561c-64.1602 -17.3203 -137.7 -17.3203 -201.86 0zM39.4404 7.2002v675.589c69.6504 16.2598 149.511 16.2598 219.161 0
c74.7197 -98.6299 148.979 -221.84 209.02 -341.58c-2.73047 26.2998 -2.73047 49.0098 -2.73047 70.0898v271.49c64.5098 16.75 138.399 16.75 202.909 0v-675.59c-69.6504 -17.1396 -149.511 -17.1396 -219.161 0c-60.25 117.21 -134.52 241.08 -209.02 343.86
c2.73047 -26.5996 2.73047 -50.4395 2.73047 -70.3896v-273.47c-64.5098 -15.8896 -138.399 -15.8896 -202.909 0zM710.351 -190.001c-30.1602 32.21 -44.1484 77.9805 -38.3789 125.65c52.9297 33.5098 73.2793 72.7998 73.2793 140.16v447.79
c66.75 -16.2598 143.25 -16.2598 210 0v-438.59c0 -180.15 -86.6104 -269.801 -244.9 -275.011z" />
    <glyph glyph-name="Ntilde" unicode="&#xd1;" horiz-adv-x="707" 
d="M473.29 882.43c37.3604 -1.42969 69.3008 -17.291 88.4111 -44.1006c-24.5098 -71.0195 -75.0801 -111.579 -135.08 -111.579c-64.21 0 -87.46 29.3701 -134.44 29.3701c-24.7002 0 -45.3906 -10.3301 -56.7002 -29.0801
c-37.3496 1.33984 -69.2998 17.29 -88.4102 44.0996c24.5098 71.0303 75.0898 111.59 135.08 111.59c64.4502 0 87.8105 -29.3701 134.44 -29.3701c24.71 0 45.3896 10.3203 56.6992 29.0703zM39.4404 7.19824v675.589c69.6504 16.2598 149.511 16.2598 219.161 0
c74.7197 -98.6299 148.979 -221.84 209.02 -341.58c-2.73047 26.2998 -2.73047 49.0098 -2.73047 70.0898v271.49c64.5098 16.75 138.399 16.75 202.909 0v-675.59c-69.6504 -17.1396 -149.511 -17.1396 -219.161 0c-60.25 117.21 -134.52 241.08 -209.02 343.86
c2.73047 -26.5996 2.73047 -50.4395 2.73047 -70.3896v-273.47c-64.5098 -15.8896 -138.399 -15.8896 -202.909 0z" />
    <glyph glyph-name="O" unicode="O" horiz-adv-x="687" 
d="M343.63 -10c-205.39 0 -315.781 123.95 -315.781 354.8c0 224.69 116.17 355.2 315.78 355.2c205.55 0 315.78 -126.61 315.78 -355.2c0 -224.71 -117.27 -354.8 -315.779 -354.8zM343.628 178.13c69.5303 0 99.4297 49.3193 99.4297 166.669
c0 119.82 -29.5996 169.011 -99.4297 169.011c-68.54 0 -99.4404 -50.7402 -99.4404 -169.01c0 -117.91 28.9004 -166.67 99.4404 -166.67z" />
    <glyph glyph-name="Oacute" unicode="&#xd3;" horiz-adv-x="687" 
d="M278.91 803.64c42.0996 50.7002 99.9395 100.18 158.76 135.81c38.5801 -29.8604 69.1201 -73.8799 83.8398 -120.84c-64.3096 -26.9297 -130.369 -64.4697 -181.329 -103.04c-26.9502 23 -49.2705 55.0801 -61.2705 88.0703zM343.63 -10.001
c-205.39 0 -315.781 123.95 -315.781 354.8c0 224.69 116.17 355.2 315.78 355.2c205.55 0 315.78 -126.61 315.78 -355.2c0 -224.71 -117.27 -354.8 -315.779 -354.8zM343.628 178.129c69.5303 0 99.4297 49.3193 99.4297 166.669
c0 119.82 -29.5996 169.011 -99.4297 169.011c-68.54 0 -99.4404 -50.7402 -99.4404 -169.01c0 -117.91 28.9004 -166.67 99.4404 -166.67z" />
    <glyph glyph-name="Obreve" unicode="&#x14e;" horiz-adv-x="687" 
d="M381.21 842.88c32.71 10.8398 79.1094 10.8398 111.81 0c-8.57031 -83.5098 -63.25 -131.359 -150.09 -131.359c-85.9805 0 -140.141 47.8496 -148.671 131.359c32.7002 10.8398 79.1006 10.8398 111.801 0c7.19043 -17.9404 19.7402 -27.0801 36.96 -27.0801
c17.9404 0 30.9004 9.13965 38.1904 27.0801zM343.629 -10c-205.39 0 -315.781 123.95 -315.781 354.8c0 224.69 116.17 355.2 315.78 355.2c205.55 0 315.78 -126.61 315.78 -355.2c0 -224.71 -117.27 -354.8 -315.779 -354.8zM343.627 178.13
c69.5303 0 99.4297 49.3193 99.4297 166.669c0 119.82 -29.5996 169.011 -99.4297 169.011c-68.54 0 -99.4404 -50.7402 -99.4404 -169.01c0 -117.91 28.9004 -166.67 99.4404 -166.67z" />
    <glyph glyph-name="uni01D1" unicode="&#x1d1;" horiz-adv-x="687" 
d="M513.62 813.98c-45.3096 -25.6699 -81.8711 -55.3506 -110.141 -88.4102c-37.5498 -10.5 -82.1494 -10.5 -119.699 0c-28.2695 33.0596 -64.8291 62.7393 -110.139 88.4092c7.08008 28.4502 25.6699 53.5703 51.0303 68.9707
c44.3496 -9.83984 87.3193 -27.1396 118.959 -45.5098c31.1299 18.21 74.0898 35.5195 118.92 45.5098c25 -14.9697 43.5996 -40.0898 51.0693 -68.9697zM343.628 -10.001c-205.39 0 -315.781 123.95 -315.781 354.8c0 224.69 116.17 355.2 315.78 355.2
c205.55 0 315.78 -126.61 315.78 -355.2c0 -224.71 -117.27 -354.8 -315.779 -354.8zM343.626 178.129c69.5303 0 99.4297 49.3193 99.4297 166.669c0 119.82 -29.5996 169.011 -99.4297 169.011c-68.54 0 -99.4404 -50.7402 -99.4404 -169.01
c0 -117.91 28.9004 -166.67 99.4404 -166.67z" />
    <glyph glyph-name="Ocircumflex" unicode="&#xd4;" horiz-adv-x="687" 
d="M513.62 782.27c-7.46973 -28.8799 -26.0791 -54.0107 -51.0791 -68.9805c-44.8301 10 -87.79 27.2998 -118.91 45.5195c-31.6396 -18.3701 -74.6201 -35.6797 -118.97 -45.5195c-25.3496 15.4004 -43.9395 40.5303 -51.0195 68.9805
c45.2998 25.6602 81.8701 55.3398 110.14 88.3994c37.5498 10.5 82.1396 10.5 119.689 0c28.2695 -33.0596 64.8398 -62.7393 110.149 -88.3994zM343.631 -10.001c-205.39 0 -315.781 123.95 -315.781 354.8c0 224.69 116.17 355.2 315.78 355.2
c205.55 0 315.78 -126.61 315.78 -355.2c0 -224.71 -117.27 -354.8 -315.779 -354.8zM343.629 178.129c69.5303 0 99.4297 49.3193 99.4297 166.669c0 119.82 -29.5996 169.011 -99.4297 169.011c-68.54 0 -99.4404 -50.7402 -99.4404 -169.01
c0 -117.91 28.9004 -166.67 99.4404 -166.67z" />
    <glyph glyph-name="uni1ED0" unicode="&#x1ed0;" horiz-adv-x="687" 
d="M288.42 956.57c38.3701 46.2197 91.0889 91.3086 144.709 123.789c35.1602 -27.2197 63 -67.3398 76.4199 -110.14c-58.6201 -24.5498 -118.83 -58.7598 -165.29 -93.9199c-24.5596 20.96 -44.9092 50.2002 -55.8389 80.2705zM513.719 774.26
c-7.46973 -28.8799 -26.0674 -54.001 -51.0674 -68.9707c-44.8301 9.99023 -87.79 27.2998 -118.92 45.5098c-31.6396 -18.3701 -74.6094 -35.6699 -118.959 -45.5098c-25.3604 15.4004 -43.9502 40.5303 -51.0303 68.9707c45.3096 25.6699 81.8691 55.3496 110.139 88.4092
c37.5498 10.5 82.1494 10.5 119.699 0c28.2695 -33.0596 64.8291 -62.7393 110.139 -88.4092zM343.631 -10.001c-205.39 0 -315.781 123.95 -315.781 354.8c0 224.69 116.17 355.2 315.78 355.2c205.55 0 315.78 -126.61 315.78 -355.2
c0 -224.71 -117.27 -354.8 -315.779 -354.8zM343.629 178.129c69.5303 0 99.4297 49.3193 99.4297 166.669c0 119.82 -29.5996 169.011 -99.4297 169.011c-68.54 0 -99.4404 -50.7402 -99.4404 -169.01c0 -117.91 28.9004 -166.67 99.4404 -166.67z" />
    <glyph glyph-name="uni1ED8" unicode="&#x1ed8;" horiz-adv-x="687" 
d="M513.62 782.27c-7.46973 -28.8799 -26.0791 -54.0107 -51.0791 -68.9805c-44.8301 10 -87.79 27.2998 -118.91 45.5195c-31.6396 -18.3701 -74.6201 -35.6797 -118.97 -45.5195c-25.3496 15.4004 -43.9395 40.5303 -51.0195 68.9805
c45.2998 25.6602 81.8701 55.3398 110.14 88.3994c37.5498 10.5 82.1396 10.5 119.689 0c28.2695 -33.0596 64.8398 -62.7393 110.149 -88.3994zM343.631 -10.001c-205.39 0 -315.781 123.95 -315.781 354.8c0 224.69 116.17 355.2 315.78 355.2
c205.55 0 315.78 -126.61 315.78 -355.2c0 -224.71 -117.27 -354.8 -315.779 -354.8zM343.629 178.129c69.5303 0 99.4297 49.3193 99.4297 166.669c0 119.82 -29.5996 169.011 -99.4297 169.011c-68.54 0 -99.4404 -50.7402 -99.4404 -169.01
c0 -117.91 28.9004 -166.67 99.4404 -166.67zM270.738 -191.232c-12.6797 43.5801 -12.6797 93.5303 0 137.12c47.1396 15.6104 101.17 15.6104 148.31 0c12.6699 -43.5898 12.6699 -93.54 0 -137.12c-47.1396 -14.2598 -101.17 -14.2598 -148.31 0z" />
    <glyph glyph-name="uni1ED2" unicode="&#x1ed2;" horiz-adv-x="687" 
d="M398.83 956.57c-10.9297 -30.0703 -31.2695 -59.3096 -55.8398 -80.2695c-46.4502 35.1602 -106.66 69.3701 -165.28 93.9199c13.4102 42.7998 41.25 82.9199 76.4199 110.14c53.6104 -32.4805 106.33 -77.5703 144.7 -123.79zM173.53 774.262
c45.3096 25.6699 81.8828 55.3506 110.143 88.4102c37.5498 10.5 82.1494 10.5 119.699 0c28.2695 -33.0596 64.8291 -62.7393 110.139 -88.4092c-7.08008 -28.4404 -25.6699 -53.5703 -51.0303 -68.9707c-44.3398 9.83984 -87.3203 27.1396 -118.96 45.5098
c-31.1201 -18.21 -74.0801 -35.5195 -118.91 -45.5098c-25 14.9697 -43.6104 40.0898 -51.0801 68.9697zM343.633 -9.99707c-205.39 0 -315.781 123.95 -315.781 354.8c0 224.69 116.17 355.2 315.78 355.2c205.55 0 315.78 -126.61 315.78 -355.2
c0 -224.71 -117.27 -354.8 -315.779 -354.8zM343.631 178.133c69.5303 0 99.4297 49.3193 99.4297 166.669c0 119.82 -29.5996 169.011 -99.4297 169.011c-68.54 0 -99.4404 -50.7402 -99.4404 -169.01c0 -117.91 28.9004 -166.67 99.4404 -166.67z" />
    <glyph glyph-name="uni1ED4" unicode="&#x1ed4;" horiz-adv-x="687" 
d="M350.73 1081.26c59.5195 0 98.7295 -33.3994 98.7295 -84.1094c0 -56.1904 -39.0195 -100.521 -107.119 -121.69c-23.4404 11.6396 -38.7207 33.3301 -42.3203 59.9502c17.6104 9.16016 27.7002 20.1797 27.7002 30.2598c0 8.32031 -6.2998 13.5898 -16.2402 13.5898
c-9.62988 0 -21.6699 -5.83008 -31 -14.9004c-23.8896 12.9902 -38.96 34.5098 -41.71 59.4902c26.0596 36.5 66.8496 57.4102 111.96 57.4102zM513.721 774.261c-7.46973 -28.8799 -26.0674 -54.001 -51.0674 -68.9707c-44.8301 9.99023 -87.79 27.2998 -118.92 45.5098
c-31.6396 -18.3701 -74.6094 -35.6699 -118.959 -45.5098c-25.3604 15.4004 -43.9502 40.5303 -51.0303 68.9707c45.3096 25.6699 81.8691 55.3496 110.139 88.4092c37.5498 10.5 82.1494 10.5 119.699 0c28.2695 -33.0596 64.8291 -62.7393 110.139 -88.4092zM343.633 -10
c-205.39 0 -315.781 123.95 -315.781 354.8c0 224.69 116.17 355.2 315.78 355.2c205.55 0 315.78 -126.61 315.78 -355.2c0 -224.71 -117.27 -354.8 -315.779 -354.8zM343.631 178.13c69.5303 0 99.4297 49.3193 99.4297 166.669
c0 119.82 -29.5996 169.011 -99.4297 169.011c-68.54 0 -99.4404 -50.7402 -99.4404 -169.01c0 -117.91 28.9004 -166.67 99.4404 -166.67z" />
    <glyph glyph-name="uni1ED6" unicode="&#x1ed6;" horiz-adv-x="687" 
d="M444.13 1015.91c31.4102 -1.12012 58.2705 -14.54 74.3408 -37.0801c-20.6104 -59.7305 -63.1406 -93.8301 -113.591 -93.8301c-53.9902 0 -73.54 24.7002 -113.04 24.7002c-20.7695 0 -38.1699 -8.67969 -47.6797 -24.4492
c-31.4102 1.12012 -58.2705 14.54 -74.3408 37.0801c20.6104 59.7197 63.1406 93.8301 113.591 93.8301c54.1797 0 73.8301 -24.7002 113.04 -24.7002c20.7803 0 38.1699 8.67969 47.6797 24.4492zM513.72 774.26c-7.46973 -28.8799 -26.0674 -54.001 -51.0674 -68.9707
c-44.8301 9.99023 -87.79 27.2998 -118.92 45.5098c-31.6396 -18.3701 -74.6094 -35.6699 -118.959 -45.5098c-25.3604 15.4004 -43.9502 40.5303 -51.0303 68.9707c45.3096 25.6699 81.8691 55.3496 110.139 88.4092c37.5498 10.5 82.1494 10.5 119.699 0
c28.2695 -33.0596 64.8291 -62.7393 110.139 -88.4092zM343.632 -10.001c-205.39 0 -315.781 123.95 -315.781 354.8c0 224.69 116.17 355.2 315.78 355.2c205.55 0 315.78 -126.61 315.78 -355.2c0 -224.71 -117.27 -354.8 -315.779 -354.8zM343.63 178.129
c69.5303 0 99.4297 49.3193 99.4297 166.669c0 119.82 -29.5996 169.011 -99.4297 169.011c-68.54 0 -99.4404 -50.7402 -99.4404 -169.01c0 -117.91 28.9004 -166.67 99.4404 -166.67z" />
    <glyph glyph-name="uni020C" unicode="&#x20c;" horiz-adv-x="687" 
d="M475.34 756.57c-28.1299 -19.9199 -64.3389 -33.3701 -99.3789 -36.9004c-20.21 58.6299 -48.5 115.25 -85.3604 170.83c38.0996 29.75 87.7295 48.1504 136.239 50.5c25.7998 -61.1602 41.8799 -122.29 48.5 -184.43zM317.341 768.71
c-23.9805 -25.2598 -57.0703 -45.5898 -90.8301 -55.8203c-29.71 50.8398 -67.5996 99.8398 -114.319 147.87c31.9697 36.9102 77.2998 64.8105 124.439 76.5801c34.5703 -50.5898 61.3203 -106.479 80.71 -168.63zM343.631 -10c-205.39 0 -315.781 123.95 -315.781 354.8
c0 224.69 116.17 355.2 315.78 355.2c205.55 0 315.78 -126.61 315.78 -355.2c0 -224.71 -117.27 -354.8 -315.779 -354.8zM343.629 178.13c69.5303 0 99.4297 49.3193 99.4297 166.669c0 119.82 -29.5996 169.011 -99.4297 169.011
c-68.54 0 -99.4404 -50.7402 -99.4404 -169.01c0 -117.91 28.9004 -166.67 99.4404 -166.67z" />
    <glyph glyph-name="Odieresis" unicode="&#xd6;" horiz-adv-x="687" 
d="M176.94 741.94c-12.7998 44.0801 -12.7998 94.5996 0 138.68c47.6299 15.79 102.22 15.79 149.85 0c12.7998 -44.0801 12.7998 -94.5996 0 -138.68c-47.6299 -14.4199 -102.22 -14.4199 -149.85 0zM364.591 741.94c-12.7998 44.0801 -12.7998 94.5996 0 138.68
c47.6299 15.79 102.22 15.79 149.85 0c12.7998 -44.0801 12.7998 -94.5996 0 -138.68c-47.6299 -14.4199 -102.22 -14.4199 -149.85 0zM343.631 -10c-205.39 0 -315.781 123.95 -315.781 354.8c0 224.69 116.17 355.2 315.78 355.2c205.55 0 315.78 -126.61 315.78 -355.2
c0 -224.71 -117.27 -354.8 -315.779 -354.8zM343.629 178.13c69.5303 0 99.4297 49.3193 99.4297 166.669c0 119.82 -29.5996 169.011 -99.4297 169.011c-68.54 0 -99.4404 -50.7402 -99.4404 -169.01c0 -117.91 28.9004 -166.67 99.4404 -166.67z" />
    <glyph glyph-name="uni1ECC" unicode="&#x1ecc;" horiz-adv-x="687" 
d="M343.63 -10c-205.39 0 -315.781 123.95 -315.781 354.8c0 224.69 116.17 355.2 315.78 355.2c205.55 0 315.78 -126.61 315.78 -355.2c0 -224.71 -117.27 -354.8 -315.779 -354.8zM343.628 178.13c69.5303 0 99.4297 49.3193 99.4297 166.669
c0 119.82 -29.5996 169.011 -99.4297 169.011c-68.54 0 -99.4404 -50.7402 -99.4404 -169.01c0 -117.91 28.9004 -166.67 99.4404 -166.67zM270.737 -191.231c-12.6797 43.5801 -12.6797 93.5303 0 137.12c47.1396 15.6104 101.17 15.6104 148.31 0
c12.6699 -43.5898 12.6699 -93.54 0 -137.12c-47.1396 -14.2598 -101.17 -14.2598 -148.31 0z" />
    <glyph glyph-name="Ograve" unicode="&#xd2;" horiz-adv-x="687" 
d="M432.9 802.64c-12 -32.9902 -34.3203 -65.0693 -61.2705 -88.0693c-50.96 38.5703 -117.02 76.1104 -181.329 103.04c14.71 46.96 45.2598 90.9795 83.8398 120.84c58.8203 -35.6299 116.66 -85.1104 158.76 -135.811zM343.631 -9.99902
c-205.39 0 -315.781 123.95 -315.781 354.8c0 224.69 116.17 355.2 315.78 355.2c205.55 0 315.78 -126.61 315.78 -355.2c0 -224.71 -117.27 -354.8 -315.779 -354.8zM343.629 178.131c69.5303 0 99.4297 49.3193 99.4297 166.669
c0 119.82 -29.5996 169.011 -99.4297 169.011c-68.54 0 -99.4404 -50.7402 -99.4404 -169.01c0 -117.91 28.9004 -166.67 99.4404 -166.67z" />
    <glyph glyph-name="uni1ECE" unicode="&#x1ece;" horiz-adv-x="687" 
d="M353.41 951.54c65.29 0 108.309 -36.6494 108.309 -92.2793c0 -61.6504 -42.8096 -110.28 -117.52 -133.511c-25.71 12.7695 -42.4902 36.5693 -46.4307 65.7793c19.3203 10.04 30.3906 22.1396 30.3906 33.1992c0 9.12012 -6.91016 14.9004 -17.8203 14.9004
c-10.5596 0 -23.7793 -6.38965 -33.999 -16.3398c-26.2197 14.2402 -42.75 37.8604 -45.7695 65.2607c28.5996 40.04 73.3398 62.9902 122.84 62.9902zM343.629 -9.99902c-205.39 0 -315.781 123.95 -315.781 354.8c0 224.69 116.17 355.2 315.78 355.2
c205.55 0 315.78 -126.61 315.78 -355.2c0 -224.71 -117.27 -354.8 -315.779 -354.8zM343.627 178.131c69.5303 0 99.4297 49.3193 99.4297 166.669c0 119.82 -29.5996 169.011 -99.4297 169.011c-68.54 0 -99.4404 -50.7402 -99.4404 -169.01
c0 -117.91 28.9004 -166.67 99.4404 -166.67z" />
    <glyph glyph-name="Ohorn" unicode="&#x1a0;" horiz-adv-x="687" 
d="M704.12 691.78c0 -52.6299 -32.252 -100.252 -83.8623 -146.982c25.8896 -53.7197 39.1494 -120.729 39.1494 -199.999c0 -224.71 -117.27 -354.8 -315.779 -354.8c-205.39 0 -315.779 123.95 -315.779 354.8c0 224.69 116.17 355.2 315.78 355.2
c71.7402 0 131.87 -15.4297 179.75 -45.2197c22.4004 14.9805 33.7207 30.3809 33.7207 46.0107c0 9.4502 -9.2002 20.2002 -25.2598 29.5c5.87012 39.4902 25.0303 74.1006 52.9902 95.5205c75.8301 -29.6104 119.29 -78.4307 119.29 -134.03zM343.628 178.128
c69.5303 0 99.4297 49.3193 99.4297 166.669c0 119.82 -29.5996 169.011 -99.4297 169.011c-68.54 0 -99.4404 -50.7402 -99.4404 -169.01c0 -117.91 28.9004 -166.67 99.4404 -166.67z" />
    <glyph glyph-name="uni1EDA" unicode="&#x1eda;" horiz-adv-x="687" 
d="M340.18 715.57c-26.9502 23 -49.2705 55.0791 -61.2705 88.0693c42.0996 50.7002 99.9395 100.181 158.76 135.811c38.5801 -29.8604 69.1201 -73.8799 83.8398 -120.84c-64.3096 -26.9297 -130.369 -64.4697 -181.329 -103.04zM704.12 691.779
c0 -52.6299 -32.252 -100.252 -83.8623 -146.982c25.8896 -53.7197 39.1494 -120.729 39.1494 -199.999c0 -224.71 -117.27 -354.8 -315.779 -354.8c-205.39 0 -315.779 123.95 -315.779 354.8c0 224.69 116.17 355.2 315.78 355.2
c71.7402 0 131.87 -15.4297 179.75 -45.2197c22.4004 14.9805 33.7207 30.3809 33.7207 46.0107c0 9.4502 -9.2002 20.2002 -25.2598 29.5c5.87012 39.4902 25.0303 74.1006 52.9902 95.5205c75.8301 -29.6104 119.29 -78.4307 119.29 -134.03zM343.628 178.127
c69.5303 0 99.4297 49.3193 99.4297 166.669c0 119.82 -29.5996 169.011 -99.4297 169.011c-68.54 0 -99.4404 -50.7402 -99.4404 -169.01c0 -117.91 28.9004 -166.67 99.4404 -166.67z" />
    <glyph glyph-name="uni1EE2" unicode="&#x1ee2;" horiz-adv-x="687" 
d="M704.12 691.78c0 -52.6299 -32.252 -100.252 -83.8623 -146.982c25.8896 -53.7197 39.1494 -120.729 39.1494 -199.999c0 -224.71 -117.27 -354.8 -315.779 -354.8c-205.39 0 -315.779 123.95 -315.779 354.8c0 224.69 116.17 355.2 315.78 355.2
c71.7402 0 131.87 -15.4297 179.75 -45.2197c22.4004 14.9805 33.7207 30.3809 33.7207 46.0107c0 9.4502 -9.2002 20.2002 -25.2598 29.5c5.87012 39.4902 25.0303 74.1006 52.9902 95.5205c75.8301 -29.6104 119.29 -78.4307 119.29 -134.03zM343.628 178.128
c69.5303 0 99.4297 49.3193 99.4297 166.669c0 119.82 -29.5996 169.011 -99.4297 169.011c-68.54 0 -99.4404 -50.7402 -99.4404 -169.01c0 -117.91 28.9004 -166.67 99.4404 -166.67zM270.737 -54.1133c47.1396 15.6104 101.17 15.6104 148.31 0
c12.6699 -43.5898 12.6699 -93.54 0 -137.12c-47.1396 -14.2598 -101.17 -14.2598 -148.31 0c-12.6797 43.5801 -12.6797 93.5303 0 137.12z" />
    <glyph glyph-name="uni1EDC" unicode="&#x1edc;" horiz-adv-x="687" 
d="M432.9 802.64c-12 -32.9902 -34.3203 -65.0693 -61.2705 -88.0693c-50.96 38.5703 -117.02 76.1104 -181.329 103.04c14.71 46.96 45.2598 90.9795 83.8398 120.84c58.8203 -35.6299 116.66 -85.1104 158.76 -135.811zM704.12 691.78
c0 -52.6299 -32.252 -100.252 -83.8623 -146.982c25.8896 -53.7197 39.1494 -120.729 39.1494 -199.999c0 -224.71 -117.27 -354.8 -315.779 -354.8c-205.39 0 -315.779 123.95 -315.779 354.8c0 224.69 116.17 355.2 315.78 355.2
c71.7402 0 131.87 -15.4297 179.75 -45.2197c22.4004 14.9805 33.7207 30.3809 33.7207 46.0107c0 9.4502 -9.2002 20.2002 -25.2598 29.5c5.87012 39.4902 25.0303 74.1006 52.9902 95.5205c75.8301 -29.6104 119.29 -78.4307 119.29 -134.03zM343.628 178.128
c69.5303 0 99.4297 49.3193 99.4297 166.669c0 119.82 -29.5996 169.011 -99.4297 169.011c-68.54 0 -99.4404 -50.7402 -99.4404 -169.01c0 -117.91 28.9004 -166.67 99.4404 -166.67z" />
    <glyph glyph-name="uni1EDE" unicode="&#x1ede;" horiz-adv-x="687" 
d="M276.34 823.29c-26.2197 14.2402 -42.751 37.8613 -45.7705 65.2617c28.5996 40.04 73.3398 62.9902 122.84 62.9902c65.29 0 108.31 -36.6504 108.31 -92.2803c0 -61.6504 -42.8096 -110.28 -117.52 -133.511c-25.71 12.7695 -42.4902 36.5693 -46.4307 65.7793
c19.3203 10.04 30.3906 22.1396 30.3906 33.1992c0 9.12012 -6.91016 14.9004 -17.8203 14.9004c-10.5596 0 -23.7793 -6.38965 -33.999 -16.3398zM704.119 691.781c0 -52.6299 -32.252 -100.252 -83.8623 -146.982c25.8896 -53.7197 39.1494 -120.729 39.1494 -199.999
c0 -224.71 -117.27 -354.8 -315.779 -354.8c-205.39 0 -315.779 123.95 -315.779 354.8c0 224.69 116.17 355.2 315.78 355.2c71.7402 0 131.87 -15.4297 179.75 -45.2197c22.4004 14.9805 33.7207 30.3809 33.7207 46.0107c0 9.4502 -9.2002 20.2002 -25.2598 29.5
c5.87012 39.4902 25.0303 74.1006 52.9902 95.5205c75.8301 -29.6104 119.29 -78.4307 119.29 -134.03zM343.627 178.129c69.5303 0 99.4297 49.3193 99.4297 166.669c0 119.82 -29.5996 169.011 -99.4297 169.011c-68.54 0 -99.4404 -50.7402 -99.4404 -169.01
c0 -117.91 28.9004 -166.67 99.4404 -166.67z" />
    <glyph glyph-name="uni1EE0" unicode="&#x1ee0;" horiz-adv-x="687" 
d="M225.49 727.04c-37.3604 1.33984 -69.3018 17.2891 -88.4121 44.0986c24.5098 71.0303 75.0801 111.59 135.08 111.59c64.4404 0 87.8105 -29.3701 134.44 -29.3701c24.7002 0 45.3906 10.3203 56.7002 29.0703c37.3496 -1.42969 69.2998 -17.29 88.4102 -44.0996
c-24.5098 -71.0195 -75.0898 -111.579 -135.08 -111.579c-64.21 0 -87.4697 29.3701 -134.439 29.3701c-24.71 0 -45.3896 -10.3301 -56.6992 -29.0801zM704.119 691.779c0 -52.6299 -32.252 -100.252 -83.8623 -146.982
c25.8896 -53.7197 39.1494 -120.729 39.1494 -199.999c0 -224.71 -117.27 -354.8 -315.779 -354.8c-205.39 0 -315.779 123.95 -315.779 354.8c0 224.69 116.17 355.2 315.78 355.2c71.7402 0 131.87 -15.4297 179.75 -45.2197
c22.4004 14.9805 33.7207 30.3809 33.7207 46.0107c0 9.4502 -9.2002 20.2002 -25.2598 29.5c5.87012 39.4902 25.0303 74.1006 52.9902 95.5205c75.8301 -29.6104 119.29 -78.4307 119.29 -134.03zM343.627 178.127c69.5303 0 99.4297 49.3193 99.4297 166.669
c0 119.82 -29.5996 169.011 -99.4297 169.011c-68.54 0 -99.4404 -50.7402 -99.4404 -169.01c0 -117.91 28.9004 -166.67 99.4404 -166.67z" />
    <glyph glyph-name="Ohungarumlaut" unicode="&#x150;" horiz-adv-x="687" 
d="M211.91 755.58c6.62012 62.1396 22.7002 123.26 48.5 184.43c48.5098 -2.36035 98.1396 -20.75 136.239 -50.5098c-36.8496 -55.5801 -65.1396 -112.2 -85.3496 -170.83c-35.0498 3.54004 -71.25 16.9805 -99.3896 36.9102zM369.91 767.71
c19.3896 62.1504 46.1396 118.04 80.71 168.63c47.1396 -11.7803 92.4697 -39.6699 124.45 -76.5898c-46.7305 -48.0195 -84.6201 -97.0195 -114.33 -147.85c-33.7598 10.2197 -66.8496 30.5498 -90.8301 55.8096zM343.63 -10.0107
c-205.39 0 -315.781 123.95 -315.781 354.8c0 224.69 116.17 355.2 315.78 355.2c205.55 0 315.78 -126.61 315.78 -355.2c0 -224.71 -117.27 -354.8 -315.779 -354.8zM343.628 178.119c69.5303 0 99.4297 49.3193 99.4297 166.669
c0 119.82 -29.5996 169.011 -99.4297 169.011c-68.54 0 -99.4404 -50.7402 -99.4404 -169.01c0 -117.91 28.9004 -166.67 99.4404 -166.67z" />
    <glyph glyph-name="uni020E" unicode="&#x20e;" horiz-adv-x="687" 
d="M381.13 728.44c-7.29004 17.9404 -20.248 27.0703 -38.1885 27.0703c-17.2305 0 -29.7705 -9.12988 -36.9609 -27.0703c-32.7002 -10.8496 -79.1006 -10.8496 -111.811 0c8.54004 83.5 62.7002 131.36 148.67 131.36c86.8496 0 141.52 -47.8604 150.1 -131.36
c-32.71 -10.8496 -79.0996 -10.8496 -111.81 0zM343.632 -10c-205.39 0 -315.781 123.95 -315.781 354.8c0 224.69 116.17 355.2 315.78 355.2c205.55 0 315.78 -126.61 315.78 -355.2c0 -224.71 -117.27 -354.8 -315.779 -354.8zM343.63 178.13
c69.5303 0 99.4297 49.3193 99.4297 166.669c0 119.82 -29.5996 169.011 -99.4297 169.011c-68.54 0 -99.4404 -50.7402 -99.4404 -169.01c0 -117.91 28.9004 -166.67 99.4404 -166.67z" />
    <glyph glyph-name="Omacron" unicode="&#x14c;" horiz-adv-x="687" 
d="M186.27 738.88c-13.46 42.46 -13.46 91.1201 0 133.57h314.71c13.46 -42.4502 13.46 -91.1104 0 -133.57h-314.71zM343.63 -10c-205.39 0 -315.781 123.95 -315.781 354.8c0 224.69 116.17 355.2 315.78 355.2c205.55 0 315.78 -126.61 315.78 -355.2
c0 -224.71 -117.27 -354.8 -315.779 -354.8zM343.628 178.13c69.5303 0 99.4297 49.3193 99.4297 166.669c0 119.82 -29.5996 169.011 -99.4297 169.011c-68.54 0 -99.4404 -50.7402 -99.4404 -169.01c0 -117.91 28.9004 -166.67 99.4404 -166.67z" />
    <glyph glyph-name="uni01EA" unicode="&#x1ea;" horiz-adv-x="687" 
d="M427.08 -1.40039c-62.8701 -30.5801 -86.3691 -57.6787 -86.3691 -80.0088c0 -11.9404 7.12012 -18.7705 19.5303 -18.7705c6.71973 0 14.1094 2.91992 20.2891 8.01953c25.71 -11.2695 44.8496 -34.6299 52.5596 -64.1201
c-22.5303 -45.8799 -74.1699 -75.7295 -131.31 -75.7295c-70.3398 0 -115.89 35.79 -115.89 91.0303c0 56.1299 36.6699 104.21 100.93 134.43c-168.86 21.4697 -258.971 142.779 -258.971 351.35c0 224.69 116.17 355.2 315.78 355.2
c205.55 0 315.78 -126.61 315.78 -355.2c0 -191.12 -84.8301 -313.8 -232.33 -346.2zM244.191 344.801c0 -117.91 28.8994 -166.671 99.4395 -166.671c69.5303 0 99.4307 49.3203 99.4307 166.67c0 119.82 -29.5996 169.011 -99.4297 169.011
c-68.54 0 -99.4404 -50.7402 -99.4404 -169.01z" />
    <glyph glyph-name="Oslash" unicode="&#xd8;" horiz-adv-x="687" 
d="M560.09 626.96c65.3604 -59.8301 99.3193 -155.292 99.3193 -282.162c0 -224.71 -117.27 -354.8 -315.779 -354.8c-75.8496 0 -138.75 16.9004 -187.91 49.8506l-59.2998 -86.0898c-11.2695 2.50977 -21.2393 9.5498 -27.4893 19.3701l60.1602 87.3301
c-66.5898 59.2305 -101.24 155.011 -101.24 284.341c0 224.69 116.17 355.2 315.78 355.2c77.0098 0 140.64 -17.7695 190.109 -52.0195l59.4697 86.3496c11.2695 -2.51953 21.25 -9.5498 27.4902 -19.3701zM244.188 344.798c0 -41.9297 3.66016 -75.1094 11.54 -100.47
l161.2 234.06c-16.1504 24.3701 -40.21 35.4199 -73.2998 35.4199c-68.54 0 -99.4404 -50.7402 -99.4404 -169.01zM343.629 178.128c69.5303 0 99.4297 49.3193 99.4297 166.669c0 40.04 -3.30957 72.2002 -10.3193 97.2598l-160.15 -232.52
c16.04 -21.5596 39.3301 -31.4092 71.04 -31.4092z" />
    <glyph glyph-name="Oslashacute" unicode="&#x1fe;" horiz-adv-x="687" 
d="M340.18 715.57c-26.9502 23 -49.2705 55.0791 -61.2705 88.0693c42.0996 50.7002 99.9395 100.181 158.76 135.811c38.5801 -29.8604 69.1201 -73.8799 83.8398 -120.84c-64.3096 -26.9297 -130.369 -64.4697 -181.329 -103.04zM560.09 626.959
c65.3604 -59.8301 99.3193 -155.292 99.3193 -282.162c0 -224.71 -117.27 -354.8 -315.779 -354.8c-75.8496 0 -138.75 16.9004 -187.91 49.8506l-59.2998 -86.0898c-11.2695 2.50977 -21.2393 9.5498 -27.4893 19.3701l60.1602 87.3301
c-66.5898 59.2305 -101.24 155.011 -101.24 284.341c0 224.69 116.17 355.2 315.78 355.2c77.0098 0 140.64 -17.7695 190.109 -52.0195l59.4697 86.3496c11.2695 -2.51953 21.25 -9.5498 27.4902 -19.3701zM244.188 344.797c0 -41.9297 3.66016 -75.1094 11.54 -100.47
l161.2 234.06c-16.1504 24.3701 -40.21 35.4199 -73.2998 35.4199c-68.54 0 -99.4404 -50.7402 -99.4404 -169.01zM343.629 178.127c69.5303 0 99.4297 49.3193 99.4297 166.669c0 40.04 -3.30957 72.2002 -10.3193 97.2598l-160.15 -232.52
c16.04 -21.5596 39.3301 -31.4092 71.04 -31.4092z" />
    <glyph glyph-name="Otilde" unicode="&#xd5;" horiz-adv-x="687" 
d="M463.3 882.43c37.3496 -1.42969 69.2988 -17.291 88.4092 -44.1006c-24.5098 -71.0195 -75.0898 -111.579 -135.08 -111.579c-64.21 0 -87.4697 29.3701 -134.439 29.3701c-24.71 0 -45.3896 -10.3301 -56.6992 -29.0801
c-37.3604 1.33984 -69.3008 17.29 -88.4111 44.0996c24.5098 71.0303 75.0801 111.59 135.08 111.59c64.4404 0 87.8105 -29.3701 134.44 -29.3701c24.7002 0 45.3906 10.3203 56.7002 29.0703zM343.629 -10.001c-205.39 0 -315.781 123.95 -315.781 354.8
c0 224.69 116.17 355.2 315.78 355.2c205.55 0 315.78 -126.61 315.78 -355.2c0 -224.71 -117.27 -354.8 -315.779 -354.8zM343.627 178.129c69.5303 0 99.4297 49.3193 99.4297 166.669c0 119.82 -29.5996 169.011 -99.4297 169.011
c-68.54 0 -99.4404 -50.7402 -99.4404 -169.01c0 -117.91 28.9004 -166.67 99.4404 -166.67z" />
    <glyph glyph-name="OE" unicode="&#x152;" horiz-adv-x="853" 
d="M824.71 179.69c16.5195 -57.1201 16.5186 -122.58 -0.000976562 -179.69h-351.54h-111.3c-215.31 -0.19043 -334.02 121.239 -334.02 344.799c0 220.5 121.23 345.2 334.021 345.2h213.62h234.2c16.5098 -56.5 16.5098 -121.26 0 -177.76h-234.2v-77.0498h209.21
c16.5303 -53.9697 16.5303 -115.819 0 -169.789h-209.21v-85.71h249.22zM243.799 344.801c0 -115.26 34.6602 -164.329 118.07 -164.27v323.28c-82.8203 0 -118.07 -47.4805 -118.07 -159.011z" />
    <glyph glyph-name="P" unicode="P" horiz-adv-x="562" 
d="M41.5195 7.2002v645c66.2803 30.3604 153.71 47.8008 239.729 47.8008c171.45 0 269.69 -89.5498 269.69 -245.81c0 -157.48 -82.7998 -247.721 -227.3 -247.721c-24.7305 0 -50.0801 2.87988 -68.5098 7.66992v-206.94c-67.9102 -16.7197 -145.7 -16.7197 -213.61 0z
M282.96 382.29c42.0801 0 61.459 25.1992 61.459 80.8994c0 49.0898 -17.6602 71.3799 -56.0098 71.3799c-11.6299 0 -24.7295 -2.34961 -35.9395 -6.55957v-141.8c7.79004 -2.41992 19.4502 -3.91992 30.4902 -3.91992z" />
    <glyph glyph-name="Thorn" unicode="&#xde;" horiz-adv-x="579" 
d="M307.84 608.1c151.98 0 243.101 -87.9795 243.101 -236.8c0 -163.2 -82.1904 -256.72 -225.19 -256.72c-24.7402 0 -50.7998 2.96973 -70.6201 7.9502v-115.33c-67.9102 -16.7197 -145.7 -16.7197 -213.61 0v675.59c67.9102 17.3701 145.7 17.3701 213.61 0v-83.4404
c13.6699 5.62988 32.8896 8.75 52.71 8.75zM284.1 290.671c41.3203 0 60.3213 25.6904 60.3213 80.6309c0 48.5898 -17.6299 71.2295 -56.0098 71.2295c-12 0 -25.7402 -3.20996 -35.9404 -8.44043v-138.45c8.46973 -3.08008 18.1094 -4.96973 31.6289 -4.96973z" />
    <glyph glyph-name="Q" unicode="Q" horiz-adv-x="687" 
d="M525.1 48.3799c24.7002 -30.9404 63.9219 -58.3789 111.271 -77.3193c-11.7803 -64 -56.2002 -114.06 -121.91 -137.399c-65.5801 32.4697 -118.39 88.5293 -149.05 157.049c-7.17969 -0.469727 -14.4395 -0.709961 -21.7793 -0.709961
c-208.19 0 -315.78 123.59 -315.78 354.8c0 226.97 116.47 355.2 315.779 355.2c204.85 0 315.779 -126.61 315.779 -355.2c0 -129.9 -51.7002 -235.21 -134.311 -296.42zM244.502 344.802c0 -118.35 28.5703 -166.67 99.1299 -166.67
c66.9502 0 99.1299 52.04 99.1299 166.67c0 118.99 -29.6699 169.01 -99.1299 169.01c-68.9502 0 -99.1299 -50.46 -99.1299 -169.01z" />
    <glyph glyph-name="R" unicode="R" horiz-adv-x="610" 
d="M461.48 275.91c44.6299 -64.29 92.8291 -161.47 134.319 -268.71c-70.1797 -16.96 -151.97 -16.96 -222.149 0c-24.2695 81.96 -53.4893 164.75 -88.8496 239.8c-10.6699 1.25 -20.7998 2.95996 -29.6699 5.05957v-244.86c-67.9102 -16.7197 -145.7 -16.7197 -213.61 0
v645c66.2803 30.3604 153.78 47.8008 240.08 47.8008c179.72 0 282.72 -82.5195 282.72 -226.51c0 -92.8203 -36.5 -160.83 -102.84 -197.58zM252.479 407.87c8.75977 -2.90039 21.5596 -4.67969 33.6191 -4.67969c49.1396 0 71.71 21.9297 71.71 70.2998
c0 42.0703 -20.8496 61.2207 -66.3896 61.2207c-13.5498 0 -27.8398 -2.15039 -38.9395 -7.60059v-119.24z" />
    <glyph glyph-name="Racute" unicode="&#x154;" horiz-adv-x="610" 
d="M278.22 715.57c-26.9502 23 -49.2705 55.0791 -61.2705 88.0693c42.0996 50.7002 99.9395 100.181 158.76 135.811c38.5801 -29.8604 69.1201 -73.8799 83.8398 -120.84c-64.3096 -26.9297 -130.369 -64.4697 -181.329 -103.04zM461.479 275.909
c44.6299 -64.29 92.8291 -161.47 134.319 -268.71c-70.1797 -16.96 -151.97 -16.96 -222.149 0c-24.2695 81.96 -53.4893 164.75 -88.8496 239.8c-10.6699 1.25 -20.7998 2.95996 -29.6699 5.05957v-244.86c-67.9102 -16.7197 -145.7 -16.7197 -213.61 0v645
c66.2803 30.3604 153.78 47.8008 240.08 47.8008c179.72 0 282.72 -82.5195 282.72 -226.51c0 -92.8203 -36.5 -160.83 -102.84 -197.58zM252.479 407.869c8.75977 -2.90039 21.5596 -4.67969 33.6191 -4.67969c49.1396 0 71.71 21.9297 71.71 70.2998
c0 42.0703 -20.8496 61.2207 -66.3896 61.2207c-13.5498 0 -27.8398 -2.15039 -38.9395 -7.60059v-119.24z" />
    <glyph glyph-name="Rcaron" unicode="&#x158;" horiz-adv-x="610" 
d="M221.82 725.57c-28.2695 33.0596 -64.8203 62.7383 -110.141 88.4082c7.08008 28.4502 25.6699 53.5703 51.0303 68.9707c44.3496 -9.83984 87.3193 -27.1396 118.959 -45.5098c31.1299 18.21 74.0898 35.5195 118.92 45.5098
c25 -14.9697 43.5996 -40.0898 51.0693 -68.9697c-45.3096 -25.6699 -81.8691 -55.3496 -110.139 -88.4092c-37.5498 -10.5 -82.1494 -10.5 -119.699 0zM461.479 275.909c44.6299 -64.29 92.8291 -161.47 134.319 -268.71c-70.1797 -16.96 -151.97 -16.96 -222.149 0
c-24.2695 81.96 -53.4893 164.75 -88.8496 239.8c-10.6699 1.25 -20.7998 2.95996 -29.6699 5.05957v-244.86c-67.9102 -16.7197 -145.7 -16.7197 -213.61 0v645c66.2803 30.3604 153.78 47.8008 240.08 47.8008c179.72 0 282.72 -82.5195 282.72 -226.51
c0 -92.8203 -36.5 -160.83 -102.84 -197.58zM252.479 407.869c8.75977 -2.90039 21.5596 -4.67969 33.6191 -4.67969c49.1396 0 71.71 21.9297 71.71 70.2998c0 42.0703 -20.8496 61.2207 -66.3896 61.2207c-13.5498 0 -27.8398 -2.15039 -38.9395 -7.60059v-119.24z" />
    <glyph glyph-name="Rcommaaccent" unicode="&#x156;" horiz-adv-x="610" 
d="M461.48 275.91c44.6299 -64.29 92.8291 -161.47 134.319 -268.71c-70.1797 -16.96 -151.97 -16.96 -222.149 0c-24.2695 81.96 -53.4893 164.75 -88.8496 239.8c-10.6699 1.25 -20.7998 2.95996 -29.6699 5.05957v-244.86c-67.9102 -16.7197 -145.7 -16.7197 -213.61 0
v645c66.2803 30.3604 153.78 47.8008 240.08 47.8008c179.72 0 282.72 -82.5195 282.72 -226.51c0 -92.8203 -36.5 -160.83 -102.84 -197.58zM252.479 407.87c8.75977 -2.90039 21.5596 -4.67969 33.6191 -4.67969c49.1396 0 71.71 21.9297 71.71 70.2998
c0 42.0703 -20.8496 61.2207 -66.3896 61.2207c-13.5498 0 -27.8398 -2.15039 -38.9395 -7.60059v-119.24zM245.409 -52.6191c45.6699 12.2695 98.0098 12.2695 143.67 0c6.00977 -19.5303 9.4502 -46.3398 9.4502 -73.6201c0 -63.8096 -25.0098 -125.93 -68.6602 -170.52
c-29.2803 3.41016 -53.9902 19.4297 -66.5 43.5098c13.9502 16.1299 23.2598 35.04 25.5498 51.8799c-15.4805 1.44043 -31.3301 4.10059 -43.5098 7.32031c-12.1504 44.9502 -12.1504 96.4697 0 141.43z" />
    <glyph glyph-name="uni0210" unicode="&#x210;" horiz-adv-x="610" 
d="M413.38 756.57c-28.1299 -19.9199 -64.3389 -33.3701 -99.3789 -36.9004c-20.21 58.6299 -48.5 115.25 -85.3604 170.83c38.0996 29.75 87.7295 48.1504 136.239 50.5c25.7998 -61.1602 41.8799 -122.29 48.5 -184.43zM255.381 768.71
c-23.9805 -25.2598 -57.0703 -45.5898 -90.8301 -55.8203c-29.71 50.8398 -67.5996 99.8398 -114.319 147.87c31.9697 36.9102 77.2998 64.8105 124.439 76.5801c34.5703 -50.5898 61.3203 -106.479 80.71 -168.63zM461.48 275.91
c44.6299 -64.29 92.8291 -161.47 134.319 -268.71c-70.1797 -16.96 -151.97 -16.96 -222.149 0c-24.2695 81.96 -53.4893 164.75 -88.8496 239.8c-10.6699 1.25 -20.7998 2.95996 -29.6699 5.05957v-244.86c-67.9102 -16.7197 -145.7 -16.7197 -213.61 0v645
c66.2803 30.3604 153.78 47.8008 240.08 47.8008c179.72 0 282.72 -82.5195 282.72 -226.51c0 -92.8203 -36.5 -160.83 -102.84 -197.58zM252.479 407.87c8.75977 -2.90039 21.5596 -4.67969 33.6191 -4.67969c49.1396 0 71.71 21.9297 71.71 70.2998
c0 42.0703 -20.8496 61.2207 -66.3896 61.2207c-13.5498 0 -27.8398 -2.15039 -38.9395 -7.60059v-119.24z" />
    <glyph glyph-name="uni1E5A" unicode="&#x1e5a;" horiz-adv-x="610" 
d="M461.48 275.91c44.6299 -64.29 92.8291 -161.47 134.319 -268.71c-70.1797 -16.96 -151.97 -16.96 -222.149 0c-24.2695 81.96 -53.4893 164.75 -88.8496 239.8c-10.6699 1.25 -20.7998 2.95996 -29.6699 5.05957v-244.86c-67.9102 -16.7197 -145.7 -16.7197 -213.61 0
v645c66.2803 30.3604 153.78 47.8008 240.08 47.8008c179.72 0 282.72 -82.5195 282.72 -226.51c0 -92.8203 -36.5 -160.83 -102.84 -197.58zM252.479 407.87c8.75977 -2.90039 21.5596 -4.67969 33.6191 -4.67969c49.1396 0 71.71 21.9297 71.71 70.2998
c0 42.0703 -20.8496 61.2207 -66.3896 61.2207c-13.5498 0 -27.8398 -2.15039 -38.9395 -7.60059v-119.24zM245.3 -54.1094c47.1396 15.6104 101.17 15.6104 148.31 0c12.6797 -43.5898 12.6797 -93.54 0 -137.12c-47.1396 -14.2598 -101.17 -14.2598 -148.31 0
c-12.6797 43.5801 -12.6797 93.5303 0 137.12z" />
    <glyph glyph-name="uni0212" unicode="&#x212;" horiz-adv-x="610" 
d="M244.02 728.44c-32.7002 -10.8496 -79.0986 -10.8496 -111.809 0c8.54004 83.5 62.7002 131.36 148.67 131.36c86.8496 0 141.52 -47.8604 150.1 -131.36c-32.71 -10.8496 -79.0996 -10.8496 -111.81 0c-7.29004 17.9404 -20.25 27.0703 -38.1904 27.0703
c-17.2305 0 -29.7705 -9.12988 -36.9609 -27.0703zM461.481 275.91c44.6299 -64.29 92.8291 -161.47 134.319 -268.71c-70.1797 -16.96 -151.97 -16.96 -222.149 0c-24.2695 81.96 -53.4893 164.75 -88.8496 239.8c-10.6699 1.25 -20.7998 2.95996 -29.6699 5.05957v-244.86
c-67.9102 -16.7197 -145.7 -16.7197 -213.61 0v645c66.2803 30.3604 153.78 47.8008 240.08 47.8008c179.72 0 282.72 -82.5195 282.72 -226.51c0 -92.8203 -36.5 -160.83 -102.84 -197.58zM252.48 407.87c8.75977 -2.90039 21.5596 -4.67969 33.6191 -4.67969
c49.1396 0 71.71 21.9297 71.71 70.2998c0 42.0703 -20.8496 61.2207 -66.3896 61.2207c-13.5498 0 -27.8398 -2.15039 -38.9395 -7.60059v-119.24z" />
    <glyph glyph-name="S" unicode="S" horiz-adv-x="579" 
d="M275.67 -10c-94.0996 0 -186.809 22.3311 -254.358 60.8008c-3.24023 63.21 14.9795 123.1 50.0391 164.38c64.8604 -26.1797 132.641 -40.71 186.9 -40.71c51.21 0 79.7197 15.1699 79.7197 41.6299c0 80.1299 -276.62 41.4795 -276.62 275.52
c0 125.29 95.3701 208.38 240.37 208.38c91.7598 0 173.76 -36.7598 224.55 -100.91c-18.6602 -58.9199 -59.1602 -105.92 -110.95 -129.03c-22.1904 27.8096 -54.8301 43.75 -89.2002 43.75c-30.0996 0 -46.7295 -12.0098 -46.7295 -32.96
c0 -74.5703 275.55 -49.9502 275.55 -258.46c0 -147.31 -101.7 -232.39 -279.271 -232.39z" />
    <glyph glyph-name="Sacute" unicode="&#x15a;" horiz-adv-x="579" 
d="M236.89 803.64c42.0996 50.7002 99.9395 100.18 158.76 135.81c38.5801 -29.8604 69.1201 -73.8799 83.8398 -120.84c-64.3096 -26.9297 -130.369 -64.4697 -181.329 -103.04c-26.9502 23 -49.2705 55.0801 -61.2705 88.0703zM275.67 -10.001
c-94.0996 0 -186.809 22.3311 -254.358 60.8008c-3.24023 63.21 14.9795 123.1 50.0391 164.38c64.8604 -26.1797 132.641 -40.71 186.9 -40.71c51.21 0 79.7197 15.1699 79.7197 41.6299c0 80.1299 -276.62 41.4795 -276.62 275.52c0 125.29 95.3701 208.38 240.37 208.38
c91.7598 0 173.76 -36.7598 224.55 -100.91c-18.6602 -58.9199 -59.1602 -105.92 -110.95 -129.03c-22.1904 27.8096 -54.8301 43.75 -89.2002 43.75c-30.0996 0 -46.7295 -12.0098 -46.7295 -32.96c0 -74.5703 275.55 -49.9502 275.55 -258.46
c0 -147.31 -101.7 -232.39 -279.271 -232.39z" />
    <glyph glyph-name="Scaron" unicode="&#x160;" horiz-adv-x="579" 
d="M471.6 813.98c-45.3096 -25.6699 -81.8711 -55.3506 -110.141 -88.4102c-37.5498 -10.5 -82.1494 -10.5 -119.699 0c-28.2695 33.0596 -64.8291 62.7393 -110.139 88.4092c7.08008 28.4502 25.6699 53.5703 51.0303 68.9707
c44.3496 -9.83984 87.3193 -27.1396 118.959 -45.5098c31.1299 18.21 74.0898 35.5195 118.92 45.5098c25 -14.9697 43.5996 -40.0898 51.0693 -68.9697zM275.668 -10.001c-94.0996 0 -186.809 22.3311 -254.358 60.8008c-3.24023 63.21 14.9795 123.1 50.0391 164.38
c64.8604 -26.1797 132.641 -40.71 186.9 -40.71c51.21 0 79.7197 15.1699 79.7197 41.6299c0 80.1299 -276.62 41.4795 -276.62 275.52c0 125.29 95.3701 208.38 240.37 208.38c91.7598 0 173.76 -36.7598 224.55 -100.91
c-18.6602 -58.9199 -59.1602 -105.92 -110.95 -129.03c-22.1904 27.8096 -54.8301 43.75 -89.2002 43.75c-30.0996 0 -46.7295 -12.0098 -46.7295 -32.96c0 -74.5703 275.55 -49.9502 275.55 -258.46c0 -147.31 -101.7 -232.39 -279.271 -232.39z" />
    <glyph glyph-name="Scedilla" unicode="&#x15e;" horiz-adv-x="579" 
d="M554.94 222.39c0 -134.92 -85.3193 -217.638 -236.1 -230.598l-6.13965 -20.4805c44.5596 -4.19043 73.21 -36.4805 73.21 -82.2109c0 -64.1602 -44.96 -105.73 -114.5 -105.73c-67.0098 0 -114.21 31.5996 -129.57 86.75
c24.2402 20.2598 56.1699 29.5498 88.3496 25.7197c3.83984 -9.71973 12.0898 -15.2793 22.6602 -15.2793c14.3496 0 22.5801 7.32031 22.5801 20.1006c0 13.1396 -9.01953 19.9297 -26.5898 20.0293l-45.3496 0.290039l20.7402 71.2305
c-75.79 6.50977 -147.75 27.1602 -202.92 58.5898c-3.24023 63.21 14.9795 123.1 50.0391 164.38c64.8604 -26.1797 132.641 -40.71 186.9 -40.71c51.21 0 79.7197 15.1699 79.7197 41.6299c0 80.1299 -276.62 41.4795 -276.62 275.52
c0 125.29 95.3701 208.38 240.37 208.38c91.7598 0 173.76 -36.7598 224.55 -100.91c-18.6602 -58.9199 -59.1602 -105.92 -110.95 -129.03c-22.1904 27.8096 -54.8301 43.75 -89.2002 43.75c-30.0996 0 -46.7295 -12.0098 -46.7295 -32.96
c0 -74.5703 275.55 -49.9502 275.55 -258.46z" />
    <glyph glyph-name="Scircumflex" unicode="&#x15c;" horiz-adv-x="579" 
d="M471.6 782.27c-7.46973 -28.8799 -26.0791 -54.0107 -51.0791 -68.9805c-44.8301 10 -87.79 27.2998 -118.91 45.5195c-31.6396 -18.3701 -74.6201 -35.6797 -118.97 -45.5195c-25.3496 15.4004 -43.9395 40.5303 -51.0195 68.9805
c45.2998 25.6602 81.8701 55.3398 110.14 88.3994c37.5498 10.5 82.1396 10.5 119.689 0c28.2695 -33.0596 64.8398 -62.7393 110.149 -88.3994zM275.671 -10.001c-94.0996 0 -186.809 22.3311 -254.358 60.8008c-3.24023 63.21 14.9795 123.1 50.0391 164.38
c64.8604 -26.1797 132.641 -40.71 186.9 -40.71c51.21 0 79.7197 15.1699 79.7197 41.6299c0 80.1299 -276.62 41.4795 -276.62 275.52c0 125.29 95.3701 208.38 240.37 208.38c91.7598 0 173.76 -36.7598 224.55 -100.91
c-18.6602 -58.9199 -59.1602 -105.92 -110.95 -129.03c-22.1904 27.8096 -54.8301 43.75 -89.2002 43.75c-30.0996 0 -46.7295 -12.0098 -46.7295 -32.96c0 -74.5703 275.55 -49.9502 275.55 -258.46c0 -147.31 -101.7 -232.39 -279.271 -232.39z" />
    <glyph glyph-name="Scommaaccent" unicode="&#x218;" horiz-adv-x="579" 
d="M275.67 -10c-94.0996 0 -186.809 22.3311 -254.358 60.8008c-3.24023 63.21 14.9795 123.1 50.0391 164.38c64.8604 -26.1797 132.641 -40.71 186.9 -40.71c51.21 0 79.7197 15.1699 79.7197 41.6299c0 80.1299 -276.62 41.4795 -276.62 275.52
c0 125.29 95.3701 208.38 240.37 208.38c91.7598 0 173.76 -36.7598 224.55 -100.91c-18.6602 -58.9199 -59.1602 -105.92 -110.95 -129.03c-22.1904 27.8096 -54.8301 43.75 -89.2002 43.75c-30.0996 0 -46.7295 -12.0098 -46.7295 -32.96
c0 -74.5703 275.55 -49.9502 275.55 -258.46c0 -147.31 -101.7 -232.39 -279.271 -232.39zM346.571 -52.6191c6.00977 -19.5303 9.4502 -46.3398 9.4502 -73.6201c0 -63.8096 -25.0098 -125.93 -68.6602 -170.52c-29.2803 3.41016 -54 19.4297 -66.5098 43.5098
c13.96 16.1299 23.2598 35.04 25.5498 51.8799c-15.4697 1.44043 -31.3193 4.10059 -43.5098 7.32031c-12.1396 44.9502 -12.1396 96.4697 0 141.43c45.6699 12.2695 98.0098 12.2695 143.68 0z" />
    <glyph glyph-name="uni1E62" unicode="&#x1e62;" horiz-adv-x="579" 
d="M275.67 -10c-94.0996 0 -186.809 22.3311 -254.358 60.8008c-3.24023 63.21 14.9795 123.1 50.0391 164.38c64.8604 -26.1797 132.641 -40.71 186.9 -40.71c51.21 0 79.7197 15.1699 79.7197 41.6299c0 80.1299 -276.62 41.4795 -276.62 275.52
c0 125.29 95.3701 208.38 240.37 208.38c91.7598 0 173.76 -36.7598 224.55 -100.91c-18.6602 -58.9199 -59.1602 -105.92 -110.95 -129.03c-22.1904 27.8096 -54.8301 43.75 -89.2002 43.75c-30.0996 0 -46.7295 -12.0098 -46.7295 -32.96
c0 -74.5703 275.55 -49.9502 275.55 -258.46c0 -147.31 -101.7 -232.39 -279.271 -232.39zM202.781 -191.229c-12.6699 43.5801 -12.6699 93.5303 0 137.12c47.1396 15.6104 101.17 15.6104 148.32 0c12.6699 -43.5898 12.6699 -93.54 0 -137.12
c-47.1504 -14.2598 -101.181 -14.2598 -148.32 0z" />
    <glyph glyph-name="uni1E9E" unicode="&#x1e9e;" horiz-adv-x="663" 
d="M432.64 -10c-48.8604 0 -113.84 13.373 -159.39 39.7031c-2.07031 57.4805 15.1797 118.721 44.4492 162.28c14.6104 -7.75 33.8799 -12.1904 52.9199 -12.1904c32.2598 0 48.25 15.79 48.25 47.6299c0 35.0703 -33.5303 54.6201 -102.07 54.6201
c-17.1797 46.7598 -17.1797 109.39 0 155.239c15.71 28.8096 34.0801 54.3594 56.1299 77.6689h-117.8v-507.75c-67.8896 -17.3701 -145.72 -17.3701 -213.609 0v682.8h562.72c15.2803 -47.8701 15.2803 -104.09 0 -151.96
c-56.96 -36.9004 -110.76 -86.7305 -148.51 -143.931v-1c118.46 -4.86035 186.34 -75.3906 186.34 -186.4c0 -137.77 -76.29 -216.71 -209.43 -216.71z" />
    <glyph glyph-name="uni018F" unicode="&#x18f;" horiz-adv-x="639" 
d="M291.75 700.26c207.87 0 319.28 -125.029 319.28 -352.739c0 -228.9 -115.15 -357.061 -316.101 -357.061c-166.51 0 -264.33 87.4102 -267 245.95c-0.879883 52.9697 5.91016 108.819 19.0098 155.35c112.69 26.0303 242.091 27.3301 355.701 3.78027
c-16.6504 90.8896 -72.1006 135.909 -168.631 135.909c-51.71 0 -104.13 -15.3398 -145.12 -43.8799c-33.8398 30.71 -52.0195 84.5 -47.3193 139.58c65.04 44.4902 152.18 73.1104 250.18 73.1104zM299.41 146.82c59.9297 0 94.5312 40.1289 105.111 122.039
c-67 11.8604 -130.15 12.2305 -177.971 0.890625c-1.90039 -12.1396 -2.88086 -26.2598 -2.88086 -38.1299c0 -55.8398 26.5098 -84.7998 75.7402 -84.7998z" />
    <glyph glyph-name="T" unicode="T" horiz-adv-x="591" 
d="M569.25 690c17.7695 -63.96 17.7695 -137.26 0 -201.22h-165.47v-481.58c-68.7598 -17.3604 -147.52 -17.3604 -216.27 0v481.58h-167.25c-16.0098 63.96 -16.0098 137.26 0 201.22h383.52h165.47z" />
    <glyph glyph-name="Tbar" unicode="&#x166;" horiz-adv-x="591" 
d="M569.25 488.78h-165.47v-81.5996h68.96c13.0801 -33.1699 13.0801 -71.1895 0 -104.369h-68.96v-295.61c-68.7598 -17.3604 -147.52 -17.3604 -216.27 0v295.61h-69.3496c-13.0801 33.1797 -13.0801 71.1992 0 104.369h69.3496v81.5996h-167.25
c-16.0098 63.96 -16.0098 137.26 0 201.22h383.52h165.47c17.7695 -63.96 17.7695 -137.26 0 -201.22z" />
    <glyph glyph-name="Tcaron" unicode="&#x164;" horiz-adv-x="591" 
d="M235.1 725.57c-28.2695 33.0596 -64.8418 62.7383 -110.142 88.4082c7.08008 28.4502 25.6699 53.5703 51.0303 68.9707c44.3398 -9.83984 87.3203 -27.1396 118.96 -45.5098c31.1201 18.21 74.0801 35.5195 118.91 45.5098
c25 -14.9697 43.6104 -40.0898 51.0801 -68.9697c-45.3096 -25.6699 -81.8799 -55.3496 -110.14 -88.4092c-37.5498 -10.5 -82.1494 -10.5 -119.699 0zM569.248 689.999c17.7695 -63.96 17.7695 -137.26 0 -201.22h-165.47v-481.58
c-68.7598 -17.3604 -147.52 -17.3604 -216.27 0v481.58h-167.25c-16.0098 63.96 -16.0098 137.26 0 201.22h383.52h165.47z" />
    <glyph glyph-name="uni0162" unicode="&#x162;" horiz-adv-x="596" 
d="M406.53 7.2002c-20.6602 -5.21973 -42.2197 -8.85938 -64.1396 -10.9395l-7.65039 -25.6504c44.0801 -4.19043 73.04 -36.4307 73.04 -81.5107c0 -62.8799 -44.6904 -104.31 -112.54 -104.31c-66.5898 0 -113.84 31.3701 -128.92 85.6104
c23.7197 19.3096 54.9199 28.2598 85.75 24.5898c4.00977 -10.1904 13.2197 -16.2705 24.6094 -16.2705c15.3604 0 24.5205 8.24023 24.5205 22.0898c0 14.3398 -10.3096 21.96 -29.5195 21.9902l-42.25 0.299805l21.5303 73.5
c-20.7402 2.12012 -41.1201 5.66016 -60.7002 10.6006v481.58h-167.25c-16 63.96 -16 137.26 0 201.22h383.52h165.48c17.7598 -63.96 17.7598 -137.26 0 -201.22h-165.48v-481.58z" />
    <glyph glyph-name="uni021A" unicode="&#x21a;" horiz-adv-x="591" 
d="M569.25 690c17.7695 -63.96 17.7695 -137.26 0 -201.22h-165.47v-481.58c-68.7598 -17.3604 -147.52 -17.3604 -216.27 0v481.58h-167.25c-16.0098 63.96 -16.0098 137.26 0 201.22h383.52h165.47zM222.2 -52.6201c45.6699 12.2695 98.0107 12.2695 143.681 0
c6 -19.5303 9.4502 -46.3398 9.4502 -73.6201c0 -63.8096 -25.0098 -125.93 -68.6602 -170.52c-29.2803 3.41016 -54 19.4297 -66.5098 43.5098c13.9502 16.1299 23.2598 35.04 25.5498 51.8799c-15.4805 1.44043 -31.3203 4.10059 -43.5107 7.32031
c-12.1396 44.9502 -12.1396 96.4697 0 141.43z" />
    <glyph glyph-name="uni1E6C" unicode="&#x1e6c;" horiz-adv-x="591" 
d="M569.25 690c17.7695 -63.96 17.7695 -137.26 0 -201.22h-165.47v-481.58c-68.7598 -17.3604 -147.52 -17.3604 -216.27 0v481.58h-167.25c-16.0098 63.96 -16.0098 137.26 0 201.22h383.52h165.47zM222.09 -54.1104c47.1396 15.6104 101.17 15.6104 148.32 0
c12.6699 -43.5898 12.6699 -93.54 0 -137.12c-47.1504 -14.2598 -101.181 -14.2598 -148.32 0c-12.6699 43.5801 -12.6699 93.5303 0 137.12z" />
    <glyph glyph-name="U" unicode="U" horiz-adv-x="630" 
d="M315.87 -10c-174.89 0 -274.349 91.2402 -274.349 252.79v440c67.9102 16.7305 145.7 16.7305 213.61 0v-430.09c0 -49.7598 21.0098 -74.4297 63.3994 -74.4297c42.9297 0 64.21 24.6699 64.21 74.4297v430.09c66.2197 16.7305 142.069 16.7305 208.289 0v-440
c0 -161.55 -99.7598 -252.79 -275.16 -252.79z" />
    <glyph glyph-name="Uacute" unicode="&#xda;" horiz-adv-x="630" 
d="M252.04 803.64c42.0996 50.7002 99.9307 100.18 158.761 135.81c38.5801 -29.8604 69.1201 -73.8799 83.8398 -120.84c-64.3203 -26.9297 -130.37 -64.4697 -181.34 -103.04c-26.9502 23 -49.2705 55.0801 -61.2607 88.0703zM315.871 -10.001
c-174.89 0 -274.349 91.2402 -274.349 252.79v440c67.9102 16.7305 145.7 16.7305 213.61 0v-430.09c0 -49.7598 21.0098 -74.4297 63.3994 -74.4297c42.9297 0 64.21 24.6699 64.21 74.4297v430.09c66.2197 16.7305 142.069 16.7305 208.289 0v-440
c0 -161.55 -99.7598 -252.79 -275.16 -252.79z" />
    <glyph glyph-name="Ubreve" unicode="&#x16c;" horiz-adv-x="630" 
d="M354.34 842.88c32.7002 10.8398 79.0977 10.8398 111.808 0c-8.58008 -83.5098 -63.25 -131.359 -150.1 -131.359c-85.9697 0 -140.13 47.8496 -148.67 131.359c32.71 10.8398 79.1104 10.8398 111.811 0c7.19043 -17.9404 19.7305 -27.0801 36.9609 -27.0801
c17.9404 0 30.9004 9.13965 38.1904 27.0801zM315.867 -10c-174.89 0 -274.349 91.2402 -274.349 252.79v440c67.9102 16.7305 145.7 16.7305 213.61 0v-430.09c0 -49.7598 21.0098 -74.4297 63.3994 -74.4297c42.9297 0 64.21 24.6699 64.21 74.4297v430.09
c66.2197 16.7305 142.069 16.7305 208.289 0v-440c0 -161.55 -99.7598 -252.79 -275.16 -252.79z" />
    <glyph glyph-name="uni01D3" unicode="&#x1d3;" horiz-adv-x="630" 
d="M486.75 813.98c-45.3096 -25.6699 -81.8809 -55.3506 -110.141 -88.4102c-37.5596 -10.5 -82.1494 -10.5 -119.699 0c-28.2695 33.0596 -64.8398 62.7393 -110.14 88.4092c7.08008 28.4502 25.6699 53.5703 51.0195 68.9707
c44.3496 -9.83984 87.3301 -27.1396 118.97 -45.5098c31.1201 18.21 74.0801 35.5195 118.91 45.5098c25 -14.9697 43.6104 -40.0898 51.0801 -68.9697zM315.869 -10.001c-174.89 0 -274.349 91.2402 -274.349 252.79v440c67.9102 16.7305 145.7 16.7305 213.61 0v-430.09
c0 -49.7598 21.0098 -74.4297 63.3994 -74.4297c42.9297 0 64.21 24.6699 64.21 74.4297v430.09c66.2197 16.7305 142.069 16.7305 208.289 0v-440c0 -161.55 -99.7598 -252.79 -275.16 -252.79z" />
    <glyph glyph-name="Ucircumflex" unicode="&#xdb;" horiz-adv-x="630" 
d="M486.74 782.27c-7.46973 -28.8799 -26.0693 -54.0107 -51.0693 -68.9805c-44.8301 10 -87.79 27.2998 -118.92 45.5195c-31.6396 -18.3701 -74.6094 -35.6797 -118.959 -45.5195c-25.3604 15.4004 -43.9404 40.5303 -51.0303 68.9805
c45.3096 25.6602 81.8799 55.3398 110.14 88.3994c37.5596 10.5 82.1494 10.5 119.699 0c28.2695 -33.0596 64.8398 -62.7393 110.14 -88.3994zM315.87 -10.001c-174.89 0 -274.349 91.2402 -274.349 252.79v440c67.9102 16.7305 145.7 16.7305 213.61 0v-430.09
c0 -49.7598 21.0098 -74.4297 63.3994 -74.4297c42.9297 0 64.21 24.6699 64.21 74.4297v430.09c66.2197 16.7305 142.069 16.7305 208.289 0v-440c0 -161.55 -99.7598 -252.79 -275.16 -252.79z" />
    <glyph glyph-name="uni0214" unicode="&#x214;" horiz-adv-x="630" 
d="M448.47 756.57c-28.1396 -19.9199 -64.3398 -33.3701 -99.3896 -36.9004c-20.21 58.6299 -48.5 115.25 -85.3496 170.83c38.0996 29.75 87.7295 48.1504 136.239 50.5c25.7998 -61.1602 41.8799 -122.29 48.5 -184.43zM290.47 768.71
c-23.9805 -25.2598 -57.0713 -45.5898 -90.8311 -55.8203c-29.71 50.8398 -67.5996 99.8398 -114.33 147.87c31.9805 36.9102 77.3105 64.8105 124.44 76.5801c34.5703 -50.5898 61.3203 -106.479 80.7207 -168.63zM315.869 -10c-174.89 0 -274.349 91.2402 -274.349 252.79
v440c67.9102 16.7305 145.7 16.7305 213.61 0v-430.09c0 -49.7598 21.0098 -74.4297 63.3994 -74.4297c42.9297 0 64.21 24.6699 64.21 74.4297v430.09c66.2197 16.7305 142.069 16.7305 208.289 0v-440c0 -161.55 -99.7598 -252.79 -275.16 -252.79z" />
    <glyph glyph-name="Udieresis" unicode="&#xdc;" horiz-adv-x="630" 
d="M150.07 741.94c-12.8096 44.0801 -12.8096 94.5996 0 138.68c47.6299 15.79 102.21 15.79 149.84 0c12.7998 -44.0801 12.7998 -94.5996 0 -138.68c-47.6299 -14.4199 -102.21 -14.4199 -149.84 0zM337.721 741.94c-12.8096 44.0801 -12.8096 94.5996 0 138.68
c47.6299 15.79 102.21 15.79 149.84 0c12.7998 -44.0801 12.7998 -94.5996 0 -138.68c-47.6299 -14.4199 -102.21 -14.4199 -149.84 0zM315.871 -10c-174.89 0 -274.349 91.2402 -274.349 252.79v440c67.9102 16.7305 145.7 16.7305 213.61 0v-430.09
c0 -49.7598 21.0098 -74.4297 63.3994 -74.4297c42.9297 0 64.21 24.6699 64.21 74.4297v430.09c66.2197 16.7305 142.069 16.7305 208.289 0v-440c0 -161.55 -99.7598 -252.79 -275.16 -252.79z" />
    <glyph glyph-name="uni01D7" unicode="&#x1d7;" horiz-adv-x="630" 
d="M259.98 922.91c38.3701 46.21 91.0898 91.3086 144.7 123.789c35.1699 -27.2197 63.0098 -67.3398 76.4199 -110.14c-58.6201 -24.5498 -118.83 -58.7695 -165.28 -93.9199c-24.5703 20.96 -44.9102 50.2002 -55.8398 80.2705zM180.771 726.77
c-10.54 36.29 -10.54 77.8799 0 114.17c39.21 13 84.1504 13 123.36 0c10.54 -36.29 10.54 -77.8799 0 -114.17c-39.21 -11.7695 -84.1504 -11.7695 -123.36 0zM335.261 726.77c-10.54 36.29 -10.54 77.8799 0 114.17c39.21 13 84.1504 13 123.36 0
c10.54 -36.29 10.54 -77.8799 0 -114.17c-39.21 -11.7695 -84.1504 -11.7695 -123.36 0zM315.871 -10c-174.89 0 -274.349 91.2402 -274.349 252.79v440c67.9102 16.7305 145.7 16.7305 213.61 0v-430.09c0 -49.7598 21.0098 -74.4297 63.3994 -74.4297
c42.9297 0 64.21 24.6699 64.21 74.4297v430.09c66.2197 16.7305 142.069 16.7305 208.289 0v-440c0 -161.55 -99.7598 -252.79 -275.16 -252.79z" />
    <glyph glyph-name="uni01D9" unicode="&#x1d9;" horiz-adv-x="630" 
d="M164.43 952c6.71973 25.9902 23.5703 48.6113 45.9707 62.0811c40.3398 -9 79.0098 -24.5703 107.02 -40.96c28.4697 16.5303 67.1494 32.1104 107.069 40.96c22.8203 -13.8604 39.5508 -36.4707 45.9209 -62.0811
c-40.7695 -23.0996 -73.6797 -49.8096 -99.1299 -79.5596c-33.79 -9.45996 -73.9297 -9.45996 -107.72 0c-25.4404 29.75 -58.3506 56.46 -99.1309 79.5596zM181.101 726.771c-10.54 36.29 -10.54 77.8799 0 114.17c39.21 13 84.1504 13 123.36 0
c10.54 -36.29 10.54 -77.8799 0 -114.17c-39.21 -11.7695 -84.1504 -11.7695 -123.36 0zM335.591 726.771c-10.54 36.29 -10.54 77.8799 0 114.17c39.21 13 84.1504 13 123.36 0c10.54 -36.29 10.54 -77.8799 0 -114.17c-39.21 -11.7695 -84.1504 -11.7695 -123.36 0z
M315.871 -9.99902c-174.89 0 -274.349 91.2402 -274.349 252.79v440c67.9102 16.7305 145.7 16.7305 213.61 0v-430.09c0 -49.7598 21.0098 -74.4297 63.3994 -74.4297c42.9297 0 64.21 24.6699 64.21 74.4297v430.09c66.2197 16.7305 142.069 16.7305 208.289 0v-440
c0 -161.55 -99.7598 -252.79 -275.16 -252.79z" />
    <glyph glyph-name="uni01DB" unicode="&#x1db;" horiz-adv-x="630" 
d="M374.19 922.91c-10.9404 -30.0703 -31.2783 -59.3096 -55.8486 -80.2695c-46.4502 35.1504 -106.66 69.3701 -165.28 93.9199c13.4102 42.7998 41.25 82.9199 76.4199 110.14c53.5195 -32.4805 106.329 -77.5801 144.709 -123.79zM180.942 726.771
c-10.54 36.29 -10.54 77.8799 0 114.17c39.21 13 84.1504 13 123.36 0c10.54 -36.29 10.54 -77.8799 0 -114.17c-39.21 -11.7695 -84.1504 -11.7695 -123.36 0zM335.433 726.771c-10.5498 36.29 -10.5498 77.8799 0 114.17c39.21 13 84.1504 13 123.36 0
c10.54 -36.29 10.54 -77.8799 0 -114.17c-39.21 -11.7695 -84.1504 -11.7695 -123.36 0zM315.873 -9.99805c-174.89 0 -274.349 91.2402 -274.349 252.79v440c67.9102 16.7305 145.7 16.7305 213.61 0v-430.09c0 -49.7598 21.0098 -74.4297 63.3994 -74.4297
c42.9297 0 64.21 24.6699 64.21 74.4297v430.09c66.2197 16.7305 142.069 16.7305 208.289 0v-440c0 -161.55 -99.7598 -252.79 -275.16 -252.79z" />
    <glyph glyph-name="uni01D5" unicode="&#x1d5;" horiz-adv-x="630" 
d="M179.2 874.22c-12.1104 38.21 -12.1104 82 0 120.22h283.25c12.1104 -38.2197 12.1104 -82.0098 0 -120.22h-283.25zM181.101 726.77c-10.54 36.29 -10.54 77.8799 0 114.17c39.21 13 84.1504 13 123.36 0c10.54 -36.29 10.54 -77.8799 0 -114.17
c-39.21 -11.7695 -84.1504 -11.7695 -123.36 0zM335.591 726.77c-10.54 36.29 -10.54 77.8799 0 114.17c39.21 13 84.1504 13 123.36 0c10.54 -36.29 10.54 -77.8799 0 -114.17c-39.21 -11.7695 -84.1504 -11.7695 -123.36 0zM315.871 -10
c-174.89 0 -274.349 91.2402 -274.349 252.79v440c67.9102 16.7305 145.7 16.7305 213.61 0v-430.09c0 -49.7598 21.0098 -74.4297 63.3994 -74.4297c42.9297 0 64.21 24.6699 64.21 74.4297v430.09c66.2197 16.7305 142.069 16.7305 208.289 0v-440
c0 -161.55 -99.7598 -252.79 -275.16 -252.79z" />
    <glyph glyph-name="uni1EE4" unicode="&#x1ee4;" horiz-adv-x="630" 
d="M315.87 -10c-174.89 0 -274.349 91.2402 -274.349 252.79v440c67.9102 16.7305 145.7 16.7305 213.61 0v-430.09c0 -49.7598 21.0098 -74.4297 63.3994 -74.4297c42.9297 0 64.21 24.6699 64.21 74.4297v430.09c66.2197 16.7305 142.069 16.7305 208.289 0v-440
c0 -161.55 -99.7598 -252.79 -275.16 -252.79zM242.981 -191.23c-12.6797 43.5801 -12.6797 93.5303 0 137.12c47.1396 15.6104 101.17 15.6104 148.31 0c12.6699 -43.5898 12.6699 -93.54 0 -137.12c-47.1396 -14.2598 -101.17 -14.2598 -148.31 0z" />
    <glyph glyph-name="Ugrave" unicode="&#xd9;" horiz-adv-x="630" 
d="M406.02 802.64c-11.9902 -32.9902 -34.3096 -65.0693 -61.2598 -88.0693c-50.9697 38.5703 -117.02 76.1104 -181.34 103.04c14.7197 46.96 45.2598 90.9795 83.8398 120.84c58.8301 -35.6299 116.66 -85.1104 158.76 -135.811zM315.87 -9.99902
c-174.89 0 -274.349 91.2402 -274.349 252.79v440c67.9102 16.7305 145.7 16.7305 213.61 0v-430.09c0 -49.7598 21.0098 -74.4297 63.3994 -74.4297c42.9297 0 64.21 24.6699 64.21 74.4297v430.09c66.2197 16.7305 142.069 16.7305 208.289 0v-440
c0 -161.55 -99.7598 -252.79 -275.16 -252.79z" />
    <glyph glyph-name="uni1EE6" unicode="&#x1ee6;" horiz-adv-x="630" 
d="M326.53 951.54c65.2998 0 108.319 -36.6494 108.319 -92.2793c0 -61.6504 -42.8203 -110.28 -117.53 -133.511c-25.71 12.7695 -42.4795 36.5693 -46.4199 65.7793c19.3203 10.04 30.3906 22.1396 30.3906 33.1992c0 9.12012 -6.91016 14.9004 -17.8301 14.9004
c-10.5498 0 -23.7695 -6.38965 -34 -16.3398c-26.21 14.2402 -42.7402 37.8604 -45.7598 65.2607c28.5898 40.04 73.3398 62.9902 122.83 62.9902zM315.87 -9.99902c-174.89 0 -274.349 91.2402 -274.349 252.79v440c67.9102 16.7305 145.7 16.7305 213.61 0v-430.09
c0 -49.7598 21.0098 -74.4297 63.3994 -74.4297c42.9297 0 64.21 24.6699 64.21 74.4297v430.09c66.2197 16.7305 142.069 16.7305 208.289 0v-440c0 -161.55 -99.7598 -252.79 -275.16 -252.79z" />
    <glyph glyph-name="Uhorn" unicode="&#x1af;" horiz-adv-x="630" 
d="M696.89 752.38c0 -59.7598 -41.5693 -113.051 -105.859 -165.921v-343.67c0 -161.55 -99.7598 -252.79 -275.16 -252.79c-174.89 0 -274.35 91.2402 -274.35 252.79v440c67.9102 16.7305 145.7 16.7305 213.61 0v-430.09c0 -49.7598 21.0098 -74.4297 63.3994 -74.4297
c42.9297 0 64.21 24.6699 64.21 74.4297v430.09c30.6299 7.74023 63.3096 11.8906 96.1592 12.4707c47.0596 21.2002 70.9697 43.4102 70.9697 66.1299c0 9.4502 -9.2002 20.2002 -25.2598 29.5c5.87012 39.4902 25.0303 74.1006 52.9902 95.5205
c75.8398 -29.6104 119.29 -78.4307 119.29 -134.03z" />
    <glyph glyph-name="uni1EE8" unicode="&#x1ee8;" horiz-adv-x="630" 
d="M313.3 715.57c-26.9502 23 -49.2695 55.0791 -61.2598 88.0693c42.0996 50.7002 99.9297 100.181 158.76 135.811c38.5801 -29.8604 69.1201 -73.8799 83.8398 -120.84c-64.3203 -26.9297 -130.37 -64.4697 -181.34 -103.04zM696.891 752.379
c0 -59.7598 -41.5693 -113.051 -105.859 -165.921v-343.67c0 -161.55 -99.7598 -252.79 -275.16 -252.79c-174.89 0 -274.35 91.2402 -274.35 252.79v440c67.9102 16.7305 145.7 16.7305 213.61 0v-430.09c0 -49.7598 21.0098 -74.4297 63.3994 -74.4297
c42.9297 0 64.21 24.6699 64.21 74.4297v430.09c30.6299 7.74023 63.3096 11.8906 96.1592 12.4707c47.0596 21.2002 70.9697 43.4102 70.9697 66.1299c0 9.4502 -9.2002 20.2002 -25.2598 29.5c5.87012 39.4902 25.0303 74.1006 52.9902 95.5205
c75.8398 -29.6104 119.29 -78.4307 119.29 -134.03z" />
    <glyph glyph-name="uni1EF0" unicode="&#x1ef0;" horiz-adv-x="630" 
d="M696.89 752.38c0 -59.7598 -41.5693 -113.051 -105.859 -165.921v-343.67c0 -161.55 -99.7598 -252.79 -275.16 -252.79c-174.89 0 -274.35 91.2402 -274.35 252.79v440c67.9102 16.7305 145.7 16.7305 213.61 0v-430.09c0 -49.7598 21.0098 -74.4297 63.3994 -74.4297
c42.9297 0 64.21 24.6699 64.21 74.4297v430.09c30.6299 7.74023 63.3096 11.8906 96.1592 12.4707c47.0596 21.2002 70.9697 43.4102 70.9697 66.1299c0 9.4502 -9.2002 20.2002 -25.2598 29.5c5.87012 39.4902 25.0303 74.1006 52.9902 95.5205
c75.8398 -29.6104 119.29 -78.4307 119.29 -134.03zM242.98 -54.1113c47.1396 15.6104 101.17 15.6104 148.31 0c12.6699 -43.5898 12.6699 -93.54 0 -137.12c-47.1396 -14.2598 -101.17 -14.2598 -148.31 0c-12.6797 43.5801 -12.6797 93.5303 0 137.12z" />
    <glyph glyph-name="uni1EEA" unicode="&#x1eea;" horiz-adv-x="630" 
d="M406.02 802.64c-11.9902 -32.9902 -34.3096 -65.0693 -61.2598 -88.0693c-50.9697 38.5703 -117.02 76.1104 -181.34 103.04c14.7197 46.96 45.2598 90.9795 83.8398 120.84c58.8301 -35.6299 116.66 -85.1104 158.76 -135.811zM696.891 752.381
c0 -59.7598 -41.5693 -113.051 -105.859 -165.921v-343.67c0 -161.55 -99.7598 -252.79 -275.16 -252.79c-174.89 0 -274.35 91.2402 -274.35 252.79v440c67.9102 16.7305 145.7 16.7305 213.61 0v-430.09c0 -49.7598 21.0098 -74.4297 63.3994 -74.4297
c42.9297 0 64.21 24.6699 64.21 74.4297v430.09c30.6299 7.74023 63.3096 11.8906 96.1592 12.4707c47.0596 21.2002 70.9697 43.4102 70.9697 66.1299c0 9.4502 -9.2002 20.2002 -25.2598 29.5c5.87012 39.4902 25.0303 74.1006 52.9902 95.5205
c75.8398 -29.6104 119.29 -78.4307 119.29 -134.03z" />
    <glyph glyph-name="uni1EEC" unicode="&#x1eec;" horiz-adv-x="630" 
d="M249.46 823.29c-26.21 14.2402 -42.7402 37.8613 -45.7598 65.2617c28.5898 40.04 73.3398 62.9902 122.83 62.9902c65.2998 0 108.319 -36.6504 108.319 -92.2803c0 -61.6504 -42.8203 -110.28 -117.53 -133.511c-25.71 12.7695 -42.4795 36.5693 -46.4199 65.7793
c19.3203 10.04 30.3906 22.1396 30.3906 33.1992c0 9.12012 -6.91016 14.9004 -17.8301 14.9004c-10.5498 0 -23.7695 -6.38965 -34 -16.3398zM696.89 752.381c0 -59.7598 -41.5693 -113.051 -105.859 -165.921v-343.67c0 -161.55 -99.7598 -252.79 -275.16 -252.79
c-174.89 0 -274.35 91.2402 -274.35 252.79v440c67.9102 16.7305 145.7 16.7305 213.61 0v-430.09c0 -49.7598 21.0098 -74.4297 63.3994 -74.4297c42.9297 0 64.21 24.6699 64.21 74.4297v430.09c30.6299 7.74023 63.3096 11.8906 96.1592 12.4707
c47.0596 21.2002 70.9697 43.4102 70.9697 66.1299c0 9.4502 -9.2002 20.2002 -25.2598 29.5c5.87012 39.4902 25.0303 74.1006 52.9902 95.5205c75.8398 -29.6104 119.29 -78.4307 119.29 -134.03z" />
    <glyph glyph-name="uni1EEE" unicode="&#x1eee;" horiz-adv-x="630" 
d="M696.89 752.38c0 -59.7598 -41.5693 -113.051 -105.859 -165.921v-343.67c0 -161.55 -99.7598 -252.79 -275.16 -252.79c-174.89 0 -274.35 91.2402 -274.35 252.79v440c67.9102 16.7305 145.7 16.7305 213.61 0v-430.09c0 -49.7598 21.0098 -74.4297 63.3994 -74.4297
c42.9297 0 64.21 24.6699 64.21 74.4297v430.09c30.6299 7.74023 63.3096 11.8906 96.1592 12.4707c47.0596 21.2002 70.9697 43.4102 70.9697 66.1299c0 9.4502 -9.2002 20.2002 -25.2598 29.5c5.87012 39.4902 25.0303 74.1006 52.9902 95.5205
c75.8398 -29.6104 119.29 -78.4307 119.29 -134.03zM198.61 727.039c-37.3496 1.33984 -69.2998 17.2891 -88.4102 44.0986c24.5098 71.0303 75.0898 111.59 135.08 111.59c64.4502 0 87.8203 -29.3701 134.45 -29.3701c24.7002 0 45.3799 10.3203 56.6895 29.0703
c37.3604 -1.42969 69.3008 -17.29 88.4111 -44.0996c-24.5 -71.0195 -75.0801 -111.579 -135.08 -111.579c-64.21 0 -87.46 29.3701 -134.44 29.3701c-24.7002 0 -45.3906 -10.3301 -56.7002 -29.0801z" />
    <glyph glyph-name="Uhungarumlaut" unicode="&#x170;" horiz-adv-x="630" 
d="M185.04 755.58c6.62012 62.1396 22.7012 123.26 48.501 184.43c48.5098 -2.36035 98.1396 -20.75 136.239 -50.5098c-36.8604 -55.5801 -65.1504 -112.2 -85.3604 -170.83c-35.04 3.54004 -71.25 16.9805 -99.3799 36.9102zM343.041 767.71
c19.3896 62.1504 46.1396 118.04 80.71 168.63c47.1299 -11.7803 92.4697 -39.6699 124.439 -76.5898c-46.7197 -48.0195 -84.6094 -97.0195 -114.319 -147.85c-33.7598 10.2197 -66.8496 30.5498 -90.8301 55.8096zM315.871 -10.0107
c-174.89 0 -274.349 91.2402 -274.349 252.79v440c67.9102 16.7305 145.7 16.7305 213.61 0v-430.09c0 -49.7598 21.0098 -74.4297 63.3994 -74.4297c42.9297 0 64.21 24.6699 64.21 74.4297v430.09c66.2197 16.7305 142.069 16.7305 208.289 0v-440
c0 -161.55 -99.7598 -252.79 -275.16 -252.79z" />
    <glyph glyph-name="uni0216" unicode="&#x216;" horiz-adv-x="630" 
d="M354.26 728.44c-7.2998 17.9404 -20.2598 27.0703 -38.1895 27.0703c-17.2305 0 -29.7803 -9.12988 -36.96 -27.0703c-32.71 -10.8496 -79.1104 -10.8496 -111.811 0c8.53027 83.5 62.6904 131.36 148.671 131.36c86.8398 0 141.52 -47.8604 150.09 -131.36
c-32.7002 -10.8496 -79.1006 -10.8496 -111.801 0zM315.87 -10c-174.89 0 -274.349 91.2402 -274.349 252.79v440c67.9102 16.7305 145.7 16.7305 213.61 0v-430.09c0 -49.7598 21.0098 -74.4297 63.3994 -74.4297c42.9297 0 64.21 24.6699 64.21 74.4297v430.09
c66.2197 16.7305 142.069 16.7305 208.289 0v-440c0 -161.55 -99.7598 -252.79 -275.16 -252.79z" />
    <glyph glyph-name="Umacron" unicode="&#x16a;" horiz-adv-x="630" 
d="M159.39 738.88c-13.4502 42.46 -13.4502 91.1201 0 133.57h314.72c13.46 -42.4502 13.46 -91.1104 0 -133.57h-314.72zM315.87 -10c-174.89 0 -274.349 91.2402 -274.349 252.79v440c67.9102 16.7305 145.7 16.7305 213.61 0v-430.09
c0 -49.7598 21.0098 -74.4297 63.3994 -74.4297c42.9297 0 64.21 24.6699 64.21 74.4297v430.09c66.2197 16.7305 142.069 16.7305 208.289 0v-440c0 -161.55 -99.7598 -252.79 -275.16 -252.79z" />
    <glyph glyph-name="Uogonek" unicode="&#x172;" horiz-adv-x="630" 
d="M382.74 682.79c66.2197 16.7305 142.071 16.7295 208.291 -0.000976562v-440c0 -133.72 -68.3496 -219.27 -191.369 -244.779c-61.9697 -30.3398 -85.1699 -57.2295 -85.1699 -79.4199c0 -11.9404 7.11035 -18.7705 19.5303 -18.7705
c6.71973 0 14.1094 2.91992 20.2891 8.01953c25.71 -11.2695 44.8496 -34.6299 52.5596 -64.1201c-22.5303 -45.8799 -74.1807 -75.7295 -131.311 -75.7295c-70.3398 0 -115.89 35.79 -115.89 91.0303c0 56.0703 36.5801 104.101 100.72 134.331
c-140.29 17.79 -218.87 105.84 -218.87 249.439v440c67.9102 16.7305 145.7 16.7305 213.61 0v-430.09c0 -49.7598 21.0098 -74.4297 63.3994 -74.4297c42.9297 0 64.21 24.6699 64.21 74.4297v430.09z" />
    <glyph glyph-name="Uring" unicode="&#x16e;" horiz-adv-x="630" 
d="M317.71 706.52c-71.4199 0 -118.479 46.8701 -118.479 118.021c0 71.1396 47.6201 118.01 119.91 118.01c71.4297 0 118.479 -46.25 118.479 -116.46c0 -72.0898 -47.6201 -119.57 -119.91 -119.57zM317.85 801.189c15.7002 0 26.04 9.78027 26.04 24.6104
c0 13.3096 -9.88965 22.0791 -24.8799 22.0791c-15.7002 0 -26.0498 -9.26953 -26.0498 -23.3398c0 -14.0801 9.88965 -23.3496 24.8896 -23.3496zM315.869 -10.001c-174.89 0 -274.349 91.2402 -274.349 252.79v440c67.9102 16.7305 145.7 16.7305 213.61 0v-430.09
c0 -49.7598 21.0098 -74.4297 63.3994 -74.4297c42.9297 0 64.21 24.6699 64.21 74.4297v430.09c66.2197 16.7305 142.069 16.7305 208.289 0v-440c0 -161.55 -99.7598 -252.79 -275.16 -252.79z" />
    <glyph glyph-name="Utilde" unicode="&#x168;" horiz-adv-x="630" 
d="M436.42 882.43c37.3604 -1.42969 69.3008 -17.291 88.4111 -44.1006c-24.5 -71.0195 -75.0801 -111.579 -135.08 -111.579c-64.21 0 -87.46 29.3701 -134.44 29.3701c-24.7002 0 -45.3906 -10.3301 -56.7002 -29.0801c-37.3496 1.33984 -69.2998 17.29 -88.4102 44.0996
c24.5098 71.0303 75.0898 111.59 135.08 111.59c64.4502 0 87.8203 -29.3701 134.45 -29.3701c24.7002 0 45.3799 10.3203 56.6895 29.0703zM315.87 -10.001c-174.89 0 -274.349 91.2402 -274.349 252.79v440c67.9102 16.7305 145.7 16.7305 213.61 0v-430.09
c0 -49.7598 21.0098 -74.4297 63.3994 -74.4297c42.9297 0 64.21 24.6699 64.21 74.4297v430.09c66.2197 16.7305 142.069 16.7305 208.289 0v-440c0 -161.55 -99.7598 -252.79 -275.16 -252.79z" />
    <glyph glyph-name="V" unicode="V" horiz-adv-x="718" 
d="M210.99 7.19043c-81.8203 203.9 -154.751 452.631 -199.971 675.601c69.8203 17.1699 152.82 17.1699 227.931 0c28.7305 -159.29 73.0703 -334.85 121.49 -480.38h1.83984c48.1602 145.53 92.1406 321.09 120.61 480.38c73.5098 17.0098 155.22 17.0098 224.39 0
c-45.25 -222.97 -118.2 -471.7 -200.04 -675.601c-94.1699 -17.1699 -202.09 -17.1699 -296.25 0z" />
    <glyph glyph-name="W" unicode="W" horiz-adv-x="1071" 
d="M170.2 7.19043c-71.4502 214 -121.999 441.6 -156.979 675.6c72.75 16.7197 156.16 16.7197 228.91 0c17.71 -167.21 45.5098 -327.92 83.7197 -480.14h1.84961c37.5898 151.3 70.2402 322.83 91.5303 474.54c72.6104 18.9805 155.91 18.9805 228.521 0
c21.5703 -151.71 54.54 -323.24 92.4199 -474.54h1.83984c37.9199 152.22 65.75 312.93 83.1602 480.14c73.8799 16.7197 158.26 16.7197 232.14 0c-40.9199 -234 -97.4004 -461.6 -174.78 -675.6c-91.25 -17.0195 -196.91 -17.0195 -290.04 0
c-26.9805 89.5703 -47.8008 199.07 -58.4805 319.511h-1.83984c-13.2598 -120.44 -37.0498 -229.94 -66.6094 -319.511c-94.8203 -17.2402 -202.42 -17.2402 -295.36 0z" />
    <glyph glyph-name="Wacute" unicode="&#x1e82;" horiz-adv-x="1071" 
d="M470.55 803.64c42.0996 50.7002 99.9307 100.18 158.761 135.81c38.5801 -29.8604 69.1201 -73.8799 83.8398 -120.84c-64.3203 -26.9297 -130.37 -64.4697 -181.34 -103.04c-26.9502 23 -49.2705 55.0801 -61.2607 88.0703zM170.201 7.18848
c-71.4502 214 -121.999 441.6 -156.979 675.6c72.75 16.7197 156.16 16.7197 228.91 0c17.71 -167.21 45.5098 -327.92 83.7197 -480.14h1.84961c37.5898 151.3 70.2402 322.83 91.5303 474.54c72.6104 18.9805 155.91 18.9805 228.521 0
c21.5703 -151.71 54.54 -323.24 92.4199 -474.54h1.83984c37.9199 152.22 65.75 312.93 83.1602 480.14c73.8799 16.7197 158.26 16.7197 232.14 0c-40.9199 -234 -97.4004 -461.6 -174.78 -675.6c-91.25 -17.0195 -196.91 -17.0195 -290.04 0
c-26.9805 89.5703 -47.8008 199.07 -58.4805 319.511h-1.83984c-13.2598 -120.44 -37.0498 -229.94 -66.6094 -319.511c-94.8203 -17.2402 -202.42 -17.2402 -295.36 0z" />
    <glyph glyph-name="Wcircumflex" unicode="&#x174;" horiz-adv-x="1071" 
d="M705.25 782.27c-7.46973 -28.8799 -26.0684 -54.0107 -51.0684 -68.9805c-44.8301 10 -87.79 27.2998 -118.92 45.5195c-31.6396 -18.3701 -74.6094 -35.6797 -118.959 -45.5195c-25.3604 15.4004 -43.9502 40.5303 -51.0303 68.9805
c45.3096 25.6602 81.8799 55.3398 110.14 88.3994c37.5498 10.5 82.1494 10.5 119.699 0c28.2695 -33.0596 64.8291 -62.7393 110.139 -88.3994zM170.201 7.18848c-71.4502 214 -121.999 441.6 -156.979 675.6c72.75 16.7197 156.16 16.7197 228.91 0
c17.71 -167.21 45.5098 -327.92 83.7197 -480.14h1.84961c37.5898 151.3 70.2402 322.83 91.5303 474.54c72.6104 18.9805 155.91 18.9805 228.521 0c21.5703 -151.71 54.54 -323.24 92.4199 -474.54h1.83984c37.9199 152.22 65.75 312.93 83.1602 480.14
c73.8799 16.7197 158.26 16.7197 232.14 0c-40.9199 -234 -97.4004 -461.6 -174.78 -675.6c-91.25 -17.0195 -196.91 -17.0195 -290.04 0c-26.9805 89.5703 -47.8008 199.07 -58.4805 319.511h-1.83984c-13.2598 -120.44 -37.0498 -229.94 -66.6094 -319.511
c-94.8203 -17.2402 -202.42 -17.2402 -295.36 0z" />
    <glyph glyph-name="Wdieresis" unicode="&#x1e84;" horiz-adv-x="1071" 
d="M368.58 741.94c-12.8096 44.0801 -12.8096 94.5996 0 138.68c47.6299 15.79 102.21 15.79 149.84 0c12.7998 -44.0801 12.7998 -94.5996 0 -138.68c-47.6299 -14.4199 -102.21 -14.4199 -149.84 0zM556.23 741.94c-12.8096 44.0801 -12.8096 94.5996 0 138.68
c47.6299 15.79 102.21 15.79 149.84 0c12.7998 -44.0801 12.7998 -94.5996 0 -138.68c-47.6299 -14.4199 -102.21 -14.4199 -149.84 0zM170.2 7.19043c-71.4502 214 -121.999 441.6 -156.979 675.6c72.75 16.7197 156.16 16.7197 228.91 0
c17.71 -167.21 45.5098 -327.92 83.7197 -480.14h1.84961c37.5898 151.3 70.2402 322.83 91.5303 474.54c72.6104 18.9805 155.91 18.9805 228.521 0c21.5703 -151.71 54.54 -323.24 92.4199 -474.54h1.83984c37.9199 152.22 65.75 312.93 83.1602 480.14
c73.8799 16.7197 158.26 16.7197 232.14 0c-40.9199 -234 -97.4004 -461.6 -174.78 -675.6c-91.25 -17.0195 -196.91 -17.0195 -290.04 0c-26.9805 89.5703 -47.8008 199.07 -58.4805 319.511h-1.83984c-13.2598 -120.44 -37.0498 -229.94 -66.6094 -319.511
c-94.8203 -17.2402 -202.42 -17.2402 -295.36 0z" />
    <glyph glyph-name="Wgrave" unicode="&#x1e80;" horiz-adv-x="1071" 
d="M624.53 802.64c-11.9902 -32.9902 -34.3096 -65.0693 -61.2598 -88.0693c-50.9697 38.5703 -117.02 76.1104 -181.34 103.04c14.7197 46.96 45.2598 90.9795 83.8398 120.84c58.8301 -35.6299 116.66 -85.1104 158.76 -135.811zM170.201 7.19043
c-71.4502 214 -121.999 441.6 -156.979 675.6c72.75 16.7197 156.16 16.7197 228.91 0c17.71 -167.21 45.5098 -327.92 83.7197 -480.14h1.84961c37.5898 151.3 70.2402 322.83 91.5303 474.54c72.6104 18.9805 155.91 18.9805 228.521 0
c21.5703 -151.71 54.54 -323.24 92.4199 -474.54h1.83984c37.9199 152.22 65.75 312.93 83.1602 480.14c73.8799 16.7197 158.26 16.7197 232.14 0c-40.9199 -234 -97.4004 -461.6 -174.78 -675.6c-91.25 -17.0195 -196.91 -17.0195 -290.04 0
c-26.9805 89.5703 -47.8008 199.07 -58.4805 319.511h-1.83984c-13.2598 -120.44 -37.0498 -229.94 -66.6094 -319.511c-94.8203 -17.2402 -202.42 -17.2402 -295.36 0z" />
    <glyph glyph-name="X" unicode="X" horiz-adv-x="695" 
d="M485.34 374.59c77.1396 -115.41 147.462 -245.42 199.052 -367.39c-76.6699 -18.1504 -164.49 -18.1504 -241.16 0c-28.5 74.0596 -62.9902 150.22 -100.431 220.38c-36.0498 -70.5801 -70.7295 -147.43 -99.6895 -220.38c-72.4199 -17.9502 -159.67 -17.9502 -232.09 0
c52.4902 119.35 119.34 243.25 192.8 355.94c-67.4805 103.17 -128.591 216.05 -173.411 319.649c76.6699 17.3701 164.49 17.3701 241.16 0c20.6504 -55.0996 46.9707 -114.35 75.7705 -170.18c26.9697 55.79 52.1094 115.01 72.1895 170.18
c72.4199 17.1797 159.68 17.1797 232.1 0c-44.46 -102.97 -101.99 -210.01 -166.29 -308.2z" />
    <glyph glyph-name="Y" unicode="Y" horiz-adv-x="655" 
d="M224.08 7.2002l-0.000976562 251.788c-76.3496 113.65 -154.97 269.351 -215.819 423.801c69.8604 17.2002 152.891 17.2002 228.03 0c20.8096 -70.5098 54.8291 -157.05 93.6787 -234.189h1.83984c37.9297 75.7402 71.0498 162.28 91.21 234.19
c73.2598 16.9697 154.68 16.9697 223.6 0c-45.8496 -130.58 -121.949 -286.28 -208.919 -423.8v-251.79c-67.96 -16.7197 -145.729 -16.7197 -213.619 0z" />
    <glyph glyph-name="Yacute" unicode="&#xdd;" horiz-adv-x="655" 
d="M262.98 803.64c42.0996 50.7002 99.9287 100.18 158.759 135.81c38.5801 -29.8604 69.1201 -73.8799 83.8398 -120.84c-64.3096 -26.9297 -130.369 -64.4697 -181.339 -103.04c-26.9502 23 -49.2598 55.0801 -61.2598 88.0703zM224.079 7.19824l-0.000976562 251.788
c-76.3496 113.65 -154.97 269.351 -215.819 423.801c69.8604 17.2002 152.891 17.2002 228.03 0c20.8096 -70.5098 54.8291 -157.05 93.6787 -234.189h1.83984c37.9297 75.7402 71.0498 162.28 91.21 234.19c73.2598 16.9697 154.68 16.9697 223.6 0
c-45.8496 -130.58 -121.949 -286.28 -208.919 -423.8v-251.79c-67.96 -16.7197 -145.729 -16.7197 -213.619 0z" />
    <glyph glyph-name="Ycircumflex" unicode="&#x176;" horiz-adv-x="655" 
d="M497.69 782.27c-7.46973 -28.8799 -26.0791 -54.0107 -51.0791 -68.9805c-44.8301 10 -87.79 27.2998 -118.91 45.5195c-31.6396 -18.3701 -74.6201 -35.6797 -118.97 -45.5195c-25.3496 15.4004 -43.9395 40.5303 -51.0293 68.9805
c45.3096 25.6602 81.8799 55.3398 110.149 88.3994c37.5498 10.5 82.1396 10.5 119.689 0c28.2695 -33.0596 64.8398 -62.7393 110.149 -88.3994zM224.081 7.19824l-0.000976562 251.788c-76.3496 113.65 -154.97 269.351 -215.819 423.801
c69.8604 17.2002 152.891 17.2002 228.03 0c20.8096 -70.5098 54.8291 -157.05 93.6787 -234.189h1.83984c37.9297 75.7402 71.0498 162.28 91.21 234.19c73.2598 16.9697 154.68 16.9697 223.6 0c-45.8496 -130.58 -121.949 -286.28 -208.919 -423.8v-251.79
c-67.96 -16.7197 -145.729 -16.7197 -213.619 0z" />
    <glyph glyph-name="Ydieresis" unicode="&#x178;" horiz-adv-x="655" 
d="M161 741.94c-12.7998 44.0801 -12.7998 94.5996 0 138.68c47.6299 15.79 102.22 15.79 149.84 0c12.8096 -44.0801 12.8096 -94.5996 0 -138.68c-47.6201 -14.4199 -102.21 -14.4199 -149.84 0zM348.65 741.94c-12.7998 44.0801 -12.7998 94.5996 0 138.68
c47.6299 15.79 102.22 15.79 149.84 0c12.8096 -44.0801 12.8096 -94.5996 0 -138.68c-47.6201 -14.4199 -102.21 -14.4199 -149.84 0zM224.07 7.2002l-0.000976562 251.788c-76.3496 113.65 -154.97 269.351 -215.819 423.801c69.8604 17.2002 152.891 17.2002 228.03 0
c20.8096 -70.5098 54.8291 -157.05 93.6787 -234.189h1.83984c37.9297 75.7402 71.0498 162.28 91.21 234.19c73.2598 16.9697 154.68 16.9697 223.6 0c-45.8496 -130.58 -121.949 -286.28 -208.919 -423.8v-251.79c-67.96 -16.7197 -145.729 -16.7197 -213.619 0z" />
    <glyph glyph-name="uni1EF4" unicode="&#x1ef4;" horiz-adv-x="655" 
d="M224.08 7.2002l-0.000976562 251.788c-76.3496 113.65 -154.97 269.351 -215.819 423.801c69.8604 17.2002 152.891 17.2002 228.03 0c20.8096 -70.5098 54.8291 -157.05 93.6787 -234.189h1.83984c37.9297 75.7402 71.0498 162.28 91.21 234.19
c73.2598 16.9697 154.68 16.9697 223.6 0c-45.8496 -130.58 -121.949 -286.28 -208.919 -423.8v-251.79c-67.96 -16.7197 -145.729 -16.7197 -213.619 0zM257.999 -191.231c-12.6797 43.5801 -12.6797 93.5303 0 137.12c47.1396 15.6104 101.17 15.6104 148.32 0
c12.6699 -43.5898 12.6699 -93.54 0 -137.12c-47.1504 -14.2598 -101.181 -14.2598 -148.32 0z" />
    <glyph glyph-name="Ygrave" unicode="&#x1ef2;" horiz-adv-x="655" 
d="M416.97 802.64c-12 -32.9902 -34.3203 -65.0693 -61.2705 -88.0693c-50.96 38.5703 -117.02 76.1104 -181.329 103.04c14.71 46.96 45.2598 90.9795 83.8398 120.84c58.8203 -35.6299 116.66 -85.1104 158.76 -135.811zM224.08 7.2002l-0.000976562 251.788
c-76.3496 113.65 -154.97 269.351 -215.819 423.801c69.8604 17.2002 152.891 17.2002 228.03 0c20.8096 -70.5098 54.8291 -157.05 93.6787 -234.189h1.83984c37.9297 75.7402 71.0498 162.28 91.21 234.19c73.2598 16.9697 154.68 16.9697 223.6 0
c-45.8496 -130.58 -121.949 -286.28 -208.919 -423.8v-251.79c-67.96 -16.7197 -145.729 -16.7197 -213.619 0z" />
    <glyph glyph-name="uni1EF6" unicode="&#x1ef6;" horiz-adv-x="655" 
d="M337.48 951.54c65.29 0 108.308 -36.6494 108.308 -92.2793c0 -61.6504 -42.8096 -110.28 -117.529 -133.511c-25.71 12.7695 -42.4795 36.5693 -46.4199 65.7793c19.3203 10.04 30.3906 22.1396 30.3906 33.1992c0 9.12012 -6.91016 14.9004 -17.8203 14.9004
c-10.5596 0 -23.7793 -6.38965 -33.999 -16.3398c-26.2197 14.2402 -42.75 37.8604 -45.7695 65.2607c28.5898 40.04 73.3398 62.9902 122.84 62.9902zM224.078 7.20117l-0.000976562 251.788c-76.3496 113.65 -154.97 269.351 -215.819 423.801
c69.8604 17.2002 152.891 17.2002 228.03 0c20.8096 -70.5098 54.8291 -157.05 93.6787 -234.189h1.83984c37.9297 75.7402 71.0498 162.28 91.21 234.19c73.2598 16.9697 154.68 16.9697 223.6 0c-45.8496 -130.58 -121.949 -286.28 -208.919 -423.8v-251.79
c-67.96 -16.7197 -145.729 -16.7197 -213.619 0z" />
    <glyph glyph-name="uni1EF8" unicode="&#x1ef8;" horiz-adv-x="655" 
d="M447.36 882.43c37.3604 -1.42969 69.3096 -17.291 88.4199 -44.1006c-24.5098 -71.0195 -75.0898 -111.579 -135.08 -111.579c-64.2197 0 -87.4697 29.3701 -134.45 29.3701c-24.7002 0 -45.3799 -10.3301 -56.6895 -29.0801
c-37.3604 1.33984 -69.3008 17.29 -88.4111 44.0996c24.5 71.0303 75.0801 111.59 135.08 111.59c64.4404 0 87.8105 -29.3701 134.44 -29.3701c24.7002 0 45.3906 10.3203 56.6904 29.0703zM224.079 7.19824l-0.000976562 251.788
c-76.3496 113.65 -154.97 269.351 -215.819 423.801c69.8604 17.2002 152.891 17.2002 228.03 0c20.8096 -70.5098 54.8291 -157.05 93.6787 -234.189h1.83984c37.9297 75.7402 71.0498 162.28 91.21 234.19c73.2598 16.9697 154.68 16.9697 223.6 0
c-45.8496 -130.58 -121.949 -286.28 -208.919 -423.8v-251.79c-67.96 -16.7197 -145.729 -16.7197 -213.619 0z" />
    <glyph glyph-name="Z" unicode="Z" horiz-adv-x="617" 
d="M65.4902 0c-25.71 39.8896 -42.0098 96.709 -44.7295 155.949c80.6299 120.61 180.97 245.21 278.97 348.76h-259.25c-16.4004 58.7803 -16.4004 126.511 0 185.291h493.04c25.5801 -38.8799 41.8896 -94.3799 44.7295 -152.36
c-102.29 -114.27 -192.42 -230.52 -266.81 -348.75h272.27c16.4004 -59.9199 16.4004 -128.97 0 -188.89h-518.22z" />
    <glyph glyph-name="Zacute" unicode="&#x179;" horiz-adv-x="617" 
d="M237.97 803.64c42.0996 50.7002 99.9297 100.18 158.76 135.81c38.5801 -29.8604 69.1201 -73.8799 83.8398 -120.84c-64.3096 -26.9297 -130.369 -64.4697 -181.339 -103.04c-26.9502 23 -49.2705 55.0801 -61.2607 88.0703zM65.4893 -0.000976562
c-25.71 39.8896 -42.0098 96.709 -44.7295 155.949c80.6299 120.61 180.97 245.21 278.97 348.76h-259.25c-16.4004 58.7803 -16.4004 126.511 0 185.291h493.04c25.5801 -38.8799 41.8896 -94.3799 44.7295 -152.36c-102.29 -114.27 -192.42 -230.52 -266.81 -348.75
h272.27c16.4004 -59.9199 16.4004 -128.97 0 -188.89h-518.22z" />
    <glyph glyph-name="Zcaron" unicode="&#x17d;" horiz-adv-x="617" 
d="M472.68 813.98c-45.3096 -25.6699 -81.873 -55.3506 -110.143 -88.4102c-37.5498 -10.5 -82.1494 -10.5 -119.699 0c-28.2695 33.0596 -64.8291 62.7393 -110.139 88.4092c7.08008 28.4502 25.6699 53.5703 51.0303 68.9707
c44.3398 -9.83984 87.3203 -27.1396 118.96 -45.5098c31.1201 18.21 74.0801 35.5195 118.91 45.5098c25 -14.9697 43.6104 -40.0898 51.0801 -68.9697zM65.4854 -0.000976562c-25.71 39.8896 -42.0098 96.709 -44.7295 155.949c80.6299 120.61 180.97 245.21 278.97 348.76
h-259.25c-16.4004 58.7803 -16.4004 126.511 0 185.291h493.04c25.5801 -38.8799 41.8896 -94.3799 44.7295 -152.36c-102.29 -114.27 -192.42 -230.52 -266.81 -348.75h272.27c16.4004 -59.9199 16.4004 -128.97 0 -188.89h-518.22z" />
    <glyph glyph-name="Zdotaccent" unicode="&#x17b;" horiz-adv-x="617" 
d="M201.76 733.19c-17.25 52.9404 -17.25 113.61 0 166.551c64.1602 18.96 137.69 18.96 201.851 0c17.25 -52.9404 17.25 -113.61 0 -166.551c-64.1602 -17.3203 -137.69 -17.3203 -201.851 0zM65.4902 0c-25.71 39.8896 -42.0098 96.709 -44.7295 155.949
c80.6299 120.61 180.97 245.21 278.97 348.76h-259.25c-16.4004 58.7803 -16.4004 126.511 0 185.291h493.04c25.5801 -38.8799 41.8896 -94.3799 44.7295 -152.36c-102.29 -114.27 -192.42 -230.52 -266.81 -348.75h272.27c16.4004 -59.9199 16.4004 -128.97 0 -188.89
h-518.22z" />
    <glyph glyph-name="uni1E92" unicode="&#x1e92;" horiz-adv-x="617" 
d="M65.4902 0c-25.71 39.8896 -42.0098 96.709 -44.7295 155.949c80.6299 120.61 180.97 245.21 278.97 348.76h-259.25c-16.4004 58.7803 -16.4004 126.511 0 185.291h493.04c25.5801 -38.8799 41.8896 -94.3799 44.7295 -152.36
c-102.29 -114.27 -192.42 -230.52 -266.81 -348.75h272.27c16.4004 -59.9199 16.4004 -128.97 0 -188.89h-518.22zM235.65 -191.231c-12.6699 43.5801 -12.6699 93.5303 0 137.12c47.1396 15.6104 101.17 15.6104 148.32 0c12.6699 -43.5898 12.6699 -93.54 0 -137.12
c-47.1504 -14.2598 -101.181 -14.2598 -148.32 0z" />
    <glyph glyph-name="uni018F.ss01" horiz-adv-x="644" 
d="M291.64 699.66c207.45 0 324.278 -120.14 324.278 -349.069c0 -233.31 -121.94 -361.02 -328.2 -361.02c-166.92 0 -258.38 83.46 -259.84 219.22c-1.30957 133.22 77.8604 217.72 212.42 219.689c60.8301 0.900391 120.61 -16.1797 163.63 -47.29
c0.0498047 6.37012 -0.00976562 10.4297 -0.00976562 15.6094c0 81.1602 -59.1797 128.16 -162.18 128.16c-52.7598 0 -106.58 -16.5596 -148.14 -46.2695c-39.5898 36.2402 -58.7197 90.1201 -52.5293 147.93c64.9004 43.6104 150.011 73.04 250.57 73.04zM301.678 286.471
c-44.29 0 -70.2607 -24.6602 -71.291 -67.71c-1.16016 -42.3604 24.0596 -66.6299 69.25 -66.6299c54.3604 0 85.1904 34.0703 92.0107 100.11c-20.4102 21.7598 -53.1797 34.2295 -89.9697 34.2295z" />
    <glyph glyph-name="a" unicode="a" horiz-adv-x="534" 
d="M252.4 -10c-148.25 0 -233.21 65.3906 -233.21 179.501c0 102.7 69.5596 161.55 193.399 161.55c43.7402 0 83.8906 -7.2998 109.601 -18.5098l0.200195 6.5498c0.44043 34.5898 -33.75 54.1797 -96.04 54.1797c-41.2998 0 -86.8896 -8.74023 -125.17 -23.9902
c-28.0898 31.8398 -45.4297 83.2197 -43.9395 132.22c55.9102 30.8301 127.93 48.5 197.699 48.5c153.53 0 249.971 -60.4805 249.971 -262.33v-226.07c-63.6504 -32.7998 -155.641 -51.5996 -252.511 -51.5996zM268.28 131.311c16.0498 0 31.6992 2.51074 42.3496 6.82031
v59.0996c-10.9502 6.7002 -26.7998 10.5801 -42.9102 10.5801c-32 0 -48.79 -14.0498 -48.79 -39.21c0 -23.96 16.9805 -37.29 49.3506 -37.29z" />
    <glyph glyph-name="aacute" unicode="&#xe1;" horiz-adv-x="534" 
d="M211.1 643.64c42.1104 50.7002 99.9395 100.18 158.76 135.81c38.5898 -29.8604 69.1299 -73.8799 83.8398 -120.84c-64.3096 -26.9297 -130.359 -64.4697 -181.329 -103.04c-26.9502 23 -49.2705 55.0801 -61.2705 88.0703zM252.398 -10.001
c-148.25 0 -233.21 65.3906 -233.21 179.501c0 102.7 69.5596 161.55 193.399 161.55c43.7402 0 83.8906 -7.2998 109.601 -18.5098l0.200195 6.5498c0.44043 34.5898 -33.75 54.1797 -96.04 54.1797c-41.2998 0 -86.8896 -8.74023 -125.17 -23.9902
c-28.0898 31.8398 -45.4297 83.2197 -43.9395 132.22c55.9102 30.8301 127.93 48.5 197.699 48.5c153.53 0 249.971 -60.4805 249.971 -262.33v-226.07c-63.6504 -32.7998 -155.641 -51.5996 -252.511 -51.5996zM268.278 131.31c16.0498 0 31.6992 2.51074 42.3496 6.82031
v59.0996c-10.9502 6.7002 -26.7998 10.5801 -42.9102 10.5801c-32 0 -48.79 -14.0498 -48.79 -39.21c0 -23.96 16.9805 -37.29 49.3506 -37.29z" />
    <glyph glyph-name="abreve" unicode="&#x103;" horiz-adv-x="534" 
d="M309.64 695.84c32.71 10.8496 79.0996 10.8496 111.81 0c-3.9502 -83.5098 -57.2197 -131.359 -146.26 -131.359c-88.1602 0 -140.92 47.8496 -144.83 131.359c32.7002 10.8496 79.1006 10.8496 111.811 0c3.41992 -16.75 16.29 -27.5 33.1201 -27.5
c17.4697 0 30.8301 10.75 34.3496 27.5zM252.399 -10c-148.25 0 -233.21 65.3906 -233.21 179.501c0 102.7 69.5596 161.55 193.399 161.55c43.7402 0 83.8906 -7.2998 109.601 -18.5098l0.200195 6.5498c0.44043 34.5898 -33.75 54.1797 -96.04 54.1797
c-41.2998 0 -86.8896 -8.74023 -125.17 -23.9902c-28.0898 31.8398 -45.4297 83.2197 -43.9395 132.22c55.9102 30.8301 127.93 48.5 197.699 48.5c153.53 0 249.971 -60.4805 249.971 -262.33v-226.07c-63.6504 -32.7998 -155.641 -51.5996 -252.511 -51.5996z
M268.279 131.311c16.0498 0 31.6992 2.51074 42.3496 6.82031v59.0996c-10.9502 6.7002 -26.7998 10.5801 -42.9102 10.5801c-32 0 -48.79 -14.0498 -48.79 -39.21c0 -23.96 16.9805 -37.29 49.3506 -37.29z" />
    <glyph glyph-name="uni1EAF" unicode="&#x1eaf;" horiz-adv-x="534" 
d="M221.58 788.7c38.3799 46.21 91.0898 91.2988 144.71 123.789c35.1699 -27.2197 63 -67.3496 76.4199 -110.149c-58.6201 -24.5498 -118.83 -58.7598 -165.29 -93.9102c-24.5596 20.96 -44.8994 50.2002 -55.8398 80.2705zM309.67 695.839
c32.71 10.8496 79.1104 10.8496 111.811 0c-3.94043 -83.5098 -57.2207 -131.359 -146.261 -131.359c-88.1602 0 -140.92 47.8496 -144.83 131.359c32.6104 10.8496 79.1104 10.8496 111.811 0c3.41992 -16.75 16.29 -27.5 33.1201 -27.5
c17.4805 0 30.8301 10.75 34.3496 27.5zM252.4 -10.001c-148.25 0 -233.21 65.3906 -233.21 179.501c0 102.7 69.5596 161.55 193.399 161.55c43.7402 0 83.8906 -7.2998 109.601 -18.5098l0.200195 6.5498c0.44043 34.5898 -33.75 54.1797 -96.04 54.1797
c-41.2998 0 -86.8896 -8.74023 -125.17 -23.9902c-28.0898 31.8398 -45.4297 83.2197 -43.9395 132.22c55.9102 30.8301 127.93 48.5 197.699 48.5c153.53 0 249.971 -60.4805 249.971 -262.33v-226.07c-63.6504 -32.7998 -155.641 -51.5996 -252.511 -51.5996z
M268.28 131.31c16.0498 0 31.6992 2.51074 42.3496 6.82031v59.0996c-10.9502 6.7002 -26.7998 10.5801 -42.9102 10.5801c-32 0 -48.79 -14.0498 -48.79 -39.21c0 -23.96 16.9805 -37.29 49.3506 -37.29z" />
    <glyph glyph-name="uni1EB7" unicode="&#x1eb7;" horiz-adv-x="534" 
d="M309.64 695.84c32.71 10.8496 79.0996 10.8496 111.81 0c-3.9502 -83.5098 -57.2197 -131.359 -146.26 -131.359c-88.1602 0 -140.92 47.8496 -144.83 131.359c32.7002 10.8496 79.1006 10.8496 111.811 0c3.41992 -16.75 16.29 -27.5 33.1201 -27.5
c17.4697 0 30.8301 10.75 34.3496 27.5zM252.399 -10c-148.25 0 -233.21 65.3906 -233.21 179.501c0 102.7 69.5596 161.55 193.399 161.55c43.7402 0 83.8906 -7.2998 109.601 -18.5098l0.200195 6.5498c0.44043 34.5898 -33.75 54.1797 -96.04 54.1797
c-41.2998 0 -86.8896 -8.74023 -125.17 -23.9902c-28.0898 31.8398 -45.4297 83.2197 -43.9395 132.22c55.9102 30.8301 127.93 48.5 197.699 48.5c153.53 0 249.971 -60.4805 249.971 -262.33v-226.07c-63.6504 -32.7998 -155.641 -51.5996 -252.511 -51.5996z
M268.279 131.311c16.0498 0 31.6992 2.51074 42.3496 6.82031v59.0996c-10.9502 6.7002 -26.7998 10.5801 -42.9102 10.5801c-32 0 -48.79 -14.0498 -48.79 -39.21c0 -23.96 16.9805 -37.29 49.3506 -37.29zM197.118 -191.219c-12.6797 43.5801 -12.6797 93.5303 0 137.12
c47.1396 15.6104 101.17 15.6104 148.31 0c12.6797 -43.5898 12.6797 -93.54 0 -137.12c-47.1396 -14.2598 -101.17 -14.2598 -148.31 0z" />
    <glyph glyph-name="uni1EB1" unicode="&#x1eb1;" horiz-adv-x="534" 
d="M331.04 789.21c-10.9404 -30.0703 -31.2803 -59.3096 -55.8398 -80.2695c-46.46 35.1504 -106.67 69.3701 -165.29 93.9199c13.4102 42.7998 41.25 82.9199 76.4199 110.14c53.6201 -32.4805 106.33 -77.5801 144.71 -123.79zM309.67 695.841
c32.71 10.8496 79.1104 10.8496 111.811 0c-3.94043 -83.5098 -57.2207 -131.359 -146.261 -131.359c-88.1602 0 -140.92 47.8496 -144.83 131.359c32.6104 10.8496 79.1104 10.8496 111.811 0c3.41992 -16.75 16.29 -27.5 33.1201 -27.5
c17.4805 0 30.8301 10.75 34.3496 27.5zM252.4 -9.99902c-148.25 0 -233.21 65.3906 -233.21 179.501c0 102.7 69.5596 161.55 193.399 161.55c43.7402 0 83.8906 -7.2998 109.601 -18.5098l0.200195 6.5498c0.44043 34.5898 -33.75 54.1797 -96.04 54.1797
c-41.2998 0 -86.8896 -8.74023 -125.17 -23.9902c-28.0898 31.8398 -45.4297 83.2197 -43.9395 132.22c55.9102 30.8301 127.93 48.5 197.699 48.5c153.53 0 249.971 -60.4805 249.971 -262.33v-226.07c-63.6504 -32.7998 -155.641 -51.5996 -252.511 -51.5996z
M268.28 131.312c16.0498 0 31.6992 2.51074 42.3496 6.82031v59.0996c-10.9502 6.7002 -26.7998 10.5801 -42.9102 10.5801c-32 0 -48.79 -14.0498 -48.79 -39.21c0 -23.96 16.9805 -37.29 49.3506 -37.29z" />
    <glyph glyph-name="uni1EB3" unicode="&#x1eb3;" horiz-adv-x="534" 
d="M281.79 925.51c59.7998 0 99.1895 -38.3809 99.1895 -96.6406c0 -57.7002 -38.0898 -101.36 -104.56 -119.851c-23.4297 11.6396 -38.7197 33.3398 -42.3096 59.96c16.3496 10.2803 25.7295 23.4805 25.7295 36.2402c0 10.1299 -6.2002 15.9395 -17.0205 15.9395
c-9.41992 0 -19.7695 -5.42969 -28.3994 -14.8994c-23.8896 12.9805 -38.96 34.5107 -41.71 59.4912c23.71 37.9902 63.4502 59.7598 109.08 59.7598zM309.67 695.839c32.71 10.8496 79.1104 10.8496 111.811 0c-3.94043 -83.5098 -57.2207 -131.359 -146.261 -131.359
c-88.1602 0 -140.92 47.8496 -144.83 131.359c32.6104 10.8496 79.1104 10.8496 111.811 0c3.41992 -16.75 16.29 -27.5 33.1201 -27.5c17.4805 0 30.8301 10.75 34.3496 27.5zM252.4 -10.001c-148.25 0 -233.21 65.3906 -233.21 179.501
c0 102.7 69.5596 161.55 193.399 161.55c43.7402 0 83.8906 -7.2998 109.601 -18.5098l0.200195 6.5498c0.44043 34.5898 -33.75 54.1797 -96.04 54.1797c-41.2998 0 -86.8896 -8.74023 -125.17 -23.9902c-28.0898 31.8398 -45.4297 83.2197 -43.9395 132.22
c55.9102 30.8301 127.93 48.5 197.699 48.5c153.53 0 249.971 -60.4805 249.971 -262.33v-226.07c-63.6504 -32.7998 -155.641 -51.5996 -252.511 -51.5996zM268.28 131.31c16.0498 0 31.6992 2.51074 42.3496 6.82031v59.0996
c-10.9502 6.7002 -26.7998 10.5801 -42.9102 10.5801c-32 0 -48.79 -14.0498 -48.79 -39.21c0 -23.96 16.9805 -37.29 49.3506 -37.29z" />
    <glyph glyph-name="uni1EB5" unicode="&#x1eb5;" horiz-adv-x="534" 
d="M375.52 869.72c31.4102 -1.12012 58.2715 -14.541 74.3418 -37.0811c-22.5098 -66.6104 -67.3301 -104.66 -119.94 -104.66c-50.2002 0 -71.8701 32.2803 -105.46 32.2803c-18.6797 0 -35.7998 -12.9902 -46.9902 -35.6406
c-31.4102 1.12012 -58.2705 14.54 -74.3408 37.0801c22.5 66.6104 67.3203 104.66 119.94 104.66c50.3896 0 72.1494 -32.2695 105.459 -32.2695c18.6797 0 35.7998 12.9805 46.9902 35.6309zM309.79 695.839c32.71 10.8496 79.1006 10.8496 111.811 0
c-3.9502 -83.5098 -57.2305 -131.359 -146.261 -131.359c-88.1699 0 -140.93 47.8496 -144.83 131.359c32.7002 10.8496 79.1006 10.8496 111.811 0c3.41992 -16.75 16.29 -27.5 33.1201 -27.5c17.4697 0 30.8301 10.75 34.3496 27.5zM252.401 -10.001
c-148.25 0 -233.21 65.3906 -233.21 179.501c0 102.7 69.5596 161.55 193.399 161.55c43.7402 0 83.8906 -7.2998 109.601 -18.5098l0.200195 6.5498c0.44043 34.5898 -33.75 54.1797 -96.04 54.1797c-41.2998 0 -86.8896 -8.74023 -125.17 -23.9902
c-28.0898 31.8398 -45.4297 83.2197 -43.9395 132.22c55.9102 30.8301 127.93 48.5 197.699 48.5c153.53 0 249.971 -60.4805 249.971 -262.33v-226.07c-63.6504 -32.7998 -155.641 -51.5996 -252.511 -51.5996zM268.281 131.31c16.0498 0 31.6992 2.51074 42.3496 6.82031
v59.0996c-10.9502 6.7002 -26.7998 10.5801 -42.9102 10.5801c-32 0 -48.79 -14.0498 -48.79 -39.21c0 -23.96 16.9805 -37.29 49.3506 -37.29z" />
    <glyph glyph-name="uni01CE" unicode="&#x1ce;" horiz-adv-x="534" 
d="M435.84 662.84c-35.6396 -25.75 -73 -60.25 -100.98 -93.8496c-37.5498 -10.5098 -80.5195 -10.5098 -118.069 0c-27.9902 33.5996 -65.3506 68.0996 -100.98 93.8496c7.74023 31.2998 29.1006 56.1797 58.6309 68.3096c34.2803 -12.2402 71 -31.0205 101.38 -51.8701
c30.1699 20.8799 66.5703 39.6602 100.5 51.8701c29.7803 -12.0898 51.46 -36.9795 59.5195 -68.3096zM252.399 -10c-148.25 0 -233.21 65.3906 -233.21 179.501c0 102.7 69.5596 161.55 193.399 161.55c43.7402 0 83.8906 -7.2998 109.601 -18.5098l0.200195 6.5498
c0.44043 34.5898 -33.75 54.1797 -96.04 54.1797c-41.2998 0 -86.8896 -8.74023 -125.17 -23.9902c-28.0898 31.8398 -45.4297 83.2197 -43.9395 132.22c55.9102 30.8301 127.93 48.5 197.699 48.5c153.53 0 249.971 -60.4805 249.971 -262.33v-226.07
c-63.6504 -32.7998 -155.641 -51.5996 -252.511 -51.5996zM268.279 131.311c16.0498 0 31.6992 2.51074 42.3496 6.82031v59.0996c-10.9502 6.7002 -26.7998 10.5801 -42.9102 10.5801c-32 0 -48.79 -14.0498 -48.79 -39.21c0 -23.96 16.9805 -37.29 49.3506 -37.29z" />
    <glyph glyph-name="acircumflex" unicode="&#xe2;" horiz-adv-x="534" 
d="M435.84 619.16c-8.05957 -31.3398 -29.75 -56.2197 -59.5195 -68.3096c-33.9297 12.2002 -70.3301 30.9805 -100.5 51.8701c-30.3799 -20.8496 -67.0996 -39.6299 -101.38 -51.8701c-29.5303 12.1299 -50.8906 37.0098 -58.6309 68.3096
c35.6299 25.75 72.9902 60.25 100.98 93.8496c37.5498 10.5 80.5195 10.5 118.069 0c27.9805 -33.5996 65.3408 -68.0996 100.98 -93.8496zM252.399 -10c-148.25 0 -233.21 65.3906 -233.21 179.501c0 102.7 69.5596 161.55 193.399 161.55
c43.7402 0 83.8906 -7.2998 109.601 -18.5098l0.200195 6.5498c0.44043 34.5898 -33.75 54.1797 -96.04 54.1797c-41.2998 0 -86.8896 -8.74023 -125.17 -23.9902c-28.0898 31.8398 -45.4297 83.2197 -43.9395 132.22c55.9102 30.8301 127.93 48.5 197.699 48.5
c153.53 0 249.971 -60.4805 249.971 -262.33v-226.07c-63.6504 -32.7998 -155.641 -51.5996 -252.511 -51.5996zM268.279 131.311c16.0498 0 31.6992 2.51074 42.3496 6.82031v59.0996c-10.9502 6.7002 -26.7998 10.5801 -42.9102 10.5801
c-32 0 -48.79 -14.0498 -48.79 -39.21c0 -23.96 16.9805 -37.29 49.3506 -37.29z" />
    <glyph glyph-name="uni1EA5" unicode="&#x1ea5;" horiz-adv-x="534" 
d="M221.78 816.16c38.3701 46.2197 91.0898 91.3096 144.7 123.8c35.1699 -27.2305 63.0098 -67.3506 76.4199 -110.15c-58.6201 -24.5498 -118.83 -58.7598 -165.28 -93.9199c-24.5703 20.96 -44.9102 50.2002 -55.8398 80.2705zM435.84 619.16
c-8.05957 -31.3398 -29.75 -56.2197 -59.5195 -68.3096c-33.9297 12.2002 -70.3301 30.9805 -100.5 51.8701c-30.3799 -20.8496 -67.0996 -39.6299 -101.38 -51.8701c-29.5303 12.1299 -50.8906 37.0098 -58.6309 68.3096c35.6299 25.75 72.9902 60.25 100.98 93.8496
c37.5498 10.5 80.5195 10.5 118.069 0c27.9805 -33.5996 65.3408 -68.0996 100.98 -93.8496zM252.399 -10c-148.25 0 -233.21 65.3906 -233.21 179.501c0 102.7 69.5596 161.55 193.399 161.55c43.7402 0 83.8906 -7.2998 109.601 -18.5098l0.200195 6.5498
c0.44043 34.5898 -33.75 54.1797 -96.04 54.1797c-41.2998 0 -86.8896 -8.74023 -125.17 -23.9902c-28.0898 31.8398 -45.4297 83.2197 -43.9395 132.22c55.9102 30.8301 127.93 48.5 197.699 48.5c153.53 0 249.971 -60.4805 249.971 -262.33v-226.07
c-63.6504 -32.7998 -155.641 -51.5996 -252.511 -51.5996zM268.279 131.311c16.0498 0 31.6992 2.51074 42.3496 6.82031v59.0996c-10.9502 6.7002 -26.7998 10.5801 -42.9102 10.5801c-32 0 -48.79 -14.0498 -48.79 -39.21c0 -23.96 16.9805 -37.29 49.3506 -37.29z" />
    <glyph glyph-name="uni1EAD" unicode="&#x1ead;" horiz-adv-x="534" 
d="M435.84 619.16c-8.05957 -31.3398 -29.75 -56.2197 -59.5195 -68.3096c-33.9297 12.2002 -70.3301 30.9805 -100.5 51.8701c-30.3799 -20.8496 -67.0996 -39.6299 -101.38 -51.8701c-29.5303 12.1299 -50.8906 37.0098 -58.6309 68.3096
c35.6299 25.75 72.9902 60.25 100.98 93.8496c37.5498 10.5 80.5195 10.5 118.069 0c27.9805 -33.5996 65.3408 -68.0996 100.98 -93.8496zM252.399 -10c-148.25 0 -233.21 65.3906 -233.21 179.501c0 102.7 69.5596 161.55 193.399 161.55
c43.7402 0 83.8906 -7.2998 109.601 -18.5098l0.200195 6.5498c0.44043 34.5898 -33.75 54.1797 -96.04 54.1797c-41.2998 0 -86.8896 -8.74023 -125.17 -23.9902c-28.0898 31.8398 -45.4297 83.2197 -43.9395 132.22c55.9102 30.8301 127.93 48.5 197.699 48.5
c153.53 0 249.971 -60.4805 249.971 -262.33v-226.07c-63.6504 -32.7998 -155.641 -51.5996 -252.511 -51.5996zM268.279 131.311c16.0498 0 31.6992 2.51074 42.3496 6.82031v59.0996c-10.9502 6.7002 -26.7998 10.5801 -42.9102 10.5801
c-32 0 -48.79 -14.0498 -48.79 -39.21c0 -23.96 16.9805 -37.29 49.3506 -37.29zM197.118 -191.219c-12.6797 43.5801 -12.6797 93.5303 0 137.12c47.1396 15.6104 101.17 15.6104 148.31 0c12.6797 -43.5898 12.6797 -93.54 0 -137.12
c-47.1396 -14.2598 -101.17 -14.2598 -148.31 0z" />
    <glyph glyph-name="uni1EA7" unicode="&#x1ea7;" horiz-adv-x="534" 
d="M330.86 815.79c-10.9404 -30.0703 -31.2803 -59.3105 -55.8398 -80.2705c-46.46 35.1602 -106.67 69.3701 -165.29 93.9199c13.4199 42.7998 41.25 82.9199 76.4199 110.15c53.6201 -32.4902 106.33 -77.5801 144.71 -123.8zM435.841 619.16
c-8.05957 -31.3398 -29.75 -56.2197 -59.5195 -68.3096c-33.9297 12.2002 -70.3301 30.9805 -100.5 51.8701c-30.3799 -20.8496 -67.0996 -39.6299 -101.38 -51.8701c-29.5303 12.1299 -50.8906 37.0098 -58.6309 68.3096c35.6299 25.75 72.9902 60.25 100.98 93.8496
c37.5498 10.5 80.5195 10.5 118.069 0c27.9805 -33.5996 65.3408 -68.0996 100.98 -93.8496zM252.4 -10c-148.25 0 -233.21 65.3906 -233.21 179.501c0 102.7 69.5596 161.55 193.399 161.55c43.7402 0 83.8906 -7.2998 109.601 -18.5098l0.200195 6.5498
c0.44043 34.5898 -33.75 54.1797 -96.04 54.1797c-41.2998 0 -86.8896 -8.74023 -125.17 -23.9902c-28.0898 31.8398 -45.4297 83.2197 -43.9395 132.22c55.9102 30.8301 127.93 48.5 197.699 48.5c153.53 0 249.971 -60.4805 249.971 -262.33v-226.07
c-63.6504 -32.7998 -155.641 -51.5996 -252.511 -51.5996zM268.28 131.311c16.0498 0 31.6992 2.51074 42.3496 6.82031v59.0996c-10.9502 6.7002 -26.7998 10.5801 -42.9102 10.5801c-32 0 -48.79 -14.0498 -48.79 -39.21c0 -23.96 16.9805 -37.29 49.3506 -37.29z" />
    <glyph glyph-name="uni1EA9" unicode="&#x1ea9;" horiz-adv-x="534" 
d="M285.14 944.51c59.79 0 99.1895 -38.3809 99.1895 -96.6406c0 -57.7002 -38.0898 -101.36 -104.56 -119.841c-23.4404 11.6396 -38.7207 33.3301 -42.3203 59.9502c16.3604 10.2803 25.7305 23.4902 25.7305 36.2402c0 10.1299 -6.19043 15.9395 -17.0107 15.9395
c-9.42969 0 -19.7695 -5.42969 -28.3994 -14.8994c-23.9004 12.9805 -38.96 34.5107 -41.7197 59.4912c23.7197 37.9902 63.46 59.7598 109.09 59.7598zM435.839 610.148c-8.05957 -31.3301 -29.75 -56.21 -59.5195 -68.3096
c-33.9297 12.21 -70.3301 30.9902 -100.5 51.8701c-30.3799 -20.8496 -67.0996 -39.6299 -101.38 -51.8701c-29.5303 12.1299 -50.8906 37.0195 -58.6309 68.3096c35.6299 25.75 72.9902 60.2598 100.98 93.8496c37.5498 10.5098 80.5195 10.5098 118.069 0
c27.9805 -33.5898 65.3408 -68.0996 100.98 -93.8496zM252.398 -10.002c-148.25 0 -233.21 65.3906 -233.21 179.501c0 102.7 69.5596 161.55 193.399 161.55c43.7402 0 83.8906 -7.2998 109.601 -18.5098l0.200195 6.5498c0.44043 34.5898 -33.75 54.1797 -96.04 54.1797
c-41.2998 0 -86.8896 -8.74023 -125.17 -23.9902c-28.0898 31.8398 -45.4297 83.2197 -43.9395 132.22c55.9102 30.8301 127.93 48.5 197.699 48.5c153.53 0 249.971 -60.4805 249.971 -262.33v-226.07c-63.6504 -32.7998 -155.641 -51.5996 -252.511 -51.5996z
M268.278 131.309c16.0498 0 31.6992 2.51074 42.3496 6.82031v59.0996c-10.9502 6.7002 -26.7998 10.5801 -42.9102 10.5801c-32 0 -48.79 -14.0498 -48.79 -39.21c0 -23.96 16.9805 -37.29 49.3506 -37.29z" />
    <glyph glyph-name="uni1EAB" unicode="&#x1eab;" horiz-adv-x="534" 
d="M374.4 868.54c31.4102 -1.12988 58.2705 -14.541 74.3408 -37.0908c-22.5 -66.6104 -67.3203 -104.66 -119.94 -104.66c-50.2002 0 -71.8604 32.2803 -105.46 32.2803c-18.6797 0 -35.7998 -12.9805 -46.9902 -35.6406c-31.4102 1.12012 -58.2705 14.54 -74.3408 37.0801
c22.5098 66.6104 67.3301 104.66 119.94 104.66c50.4004 0 72.1602 -32.2695 105.46 -32.2695c18.6797 0 35.7998 12.9805 46.9902 35.6406zM434.95 610.149c-8.05957 -31.3301 -29.7383 -56.21 -59.5186 -68.3096c-33.9297 12.21 -70.3301 30.9902 -100.49 51.8701
c-30.3799 -20.8496 -67.0996 -39.6299 -101.38 -51.8701c-29.54 12.1299 -50.9004 37.0195 -58.6406 68.3096c35.6396 25.75 72.9893 60.2598 100.979 93.8496c37.5498 10.5098 80.5195 10.5098 118.069 0c27.9902 -33.5898 65.3506 -68.0996 100.98 -93.8496z
M252.401 -10.001c-148.25 0 -233.21 65.3906 -233.21 179.501c0 102.7 69.5596 161.55 193.399 161.55c43.7402 0 83.8906 -7.2998 109.601 -18.5098l0.200195 6.5498c0.44043 34.5898 -33.75 54.1797 -96.04 54.1797c-41.2998 0 -86.8896 -8.74023 -125.17 -23.9902
c-28.0898 31.8398 -45.4297 83.2197 -43.9395 132.22c55.9102 30.8301 127.93 48.5 197.699 48.5c153.53 0 249.971 -60.4805 249.971 -262.33v-226.07c-63.6504 -32.7998 -155.641 -51.5996 -252.511 -51.5996zM268.281 131.31c16.0498 0 31.6992 2.51074 42.3496 6.82031
v59.0996c-10.9502 6.7002 -26.7998 10.5801 -42.9102 10.5801c-32 0 -48.79 -14.0498 -48.79 -39.21c0 -23.96 16.9805 -37.29 49.3506 -37.29z" />
    <glyph glyph-name="uni0201" unicode="&#x201;" horiz-adv-x="534" 
d="M404.9 587.54c-27.8896 -20.8096 -63.8311 -35.2598 -98.6709 -39.6602c-21.25 59.6797 -55.5801 126.71 -94.2197 184c37.7305 30.9102 86.9805 50.7803 135.19 54.54c29.3701 -61.5195 50.3799 -133.97 57.7002 -198.88zM248.27 599.6
c-23.3496 -25.9902 -55.8887 -47.3203 -89.3291 -58.5303c-32.71 54.5703 -79.75 113.801 -129.11 162.591c31.0498 37.8799 75.6201 67.1699 122.36 80.4004c41.0596 -54.7803 76.0596 -121.98 96.0791 -184.461zM252.4 -10c-148.25 0 -233.21 65.3906 -233.21 179.501
c0 102.7 69.5596 161.55 193.399 161.55c43.7402 0 83.8906 -7.2998 109.601 -18.5098l0.200195 6.5498c0.44043 34.5898 -33.75 54.1797 -96.04 54.1797c-41.2998 0 -86.8896 -8.74023 -125.17 -23.9902c-28.0898 31.8398 -45.4297 83.2197 -43.9395 132.22
c55.9102 30.8301 127.93 48.5 197.699 48.5c153.53 0 249.971 -60.4805 249.971 -262.33v-226.07c-63.6504 -32.7998 -155.641 -51.5996 -252.511 -51.5996zM268.28 131.311c16.0498 0 31.6992 2.51074 42.3496 6.82031v59.0996
c-10.9502 6.7002 -26.7998 10.5801 -42.9102 10.5801c-32 0 -48.79 -14.0498 -48.79 -39.21c0 -23.96 16.9805 -37.29 49.3506 -37.29z" />
    <glyph glyph-name="adieresis" unicode="&#xe4;" horiz-adv-x="534" 
d="M109.27 580.06c-12.6699 43.5898 -12.6699 93.54 0 137.13c47.1504 15.6104 101.181 15.6104 148.32 0c12.6699 -43.5898 12.6699 -93.54 0 -137.13c-47.1396 -14.25 -101.17 -14.25 -148.32 0zM297.67 580.06c-12.6797 43.5898 -12.6797 93.54 0 137.13
c47.1396 15.6104 101.17 15.6104 148.32 0c12.6699 -43.5898 12.6699 -93.54 0 -137.13c-47.1504 -14.25 -101.181 -14.25 -148.32 0zM252.4 -10c-148.25 0 -233.21 65.3906 -233.21 179.501c0 102.7 69.5596 161.55 193.399 161.55
c43.7402 0 83.8906 -7.2998 109.601 -18.5098l0.200195 6.5498c0.44043 34.5898 -33.75 54.1797 -96.04 54.1797c-41.2998 0 -86.8896 -8.74023 -125.17 -23.9902c-28.0898 31.8398 -45.4297 83.2197 -43.9395 132.22c55.9102 30.8301 127.93 48.5 197.699 48.5
c153.53 0 249.971 -60.4805 249.971 -262.33v-226.07c-63.6504 -32.7998 -155.641 -51.5996 -252.511 -51.5996zM268.28 131.311c16.0498 0 31.6992 2.51074 42.3496 6.82031v59.0996c-10.9502 6.7002 -26.7998 10.5801 -42.9102 10.5801
c-32 0 -48.79 -14.0498 -48.79 -39.21c0 -23.96 16.9805 -37.29 49.3506 -37.29z" />
    <glyph glyph-name="uni1EA1" unicode="&#x1ea1;" horiz-adv-x="534" 
d="M252.4 -10c-148.25 0 -233.21 65.3906 -233.21 179.501c0 102.7 69.5596 161.55 193.399 161.55c43.7402 0 83.8906 -7.2998 109.601 -18.5098l0.200195 6.5498c0.44043 34.5898 -33.75 54.1797 -96.04 54.1797c-41.2998 0 -86.8896 -8.74023 -125.17 -23.9902
c-28.0898 31.8398 -45.4297 83.2197 -43.9395 132.22c55.9102 30.8301 127.93 48.5 197.699 48.5c153.53 0 249.971 -60.4805 249.971 -262.33v-226.07c-63.6504 -32.7998 -155.641 -51.5996 -252.511 -51.5996zM268.28 131.311c16.0498 0 31.6992 2.51074 42.3496 6.82031
v59.0996c-10.9502 6.7002 -26.7998 10.5801 -42.9102 10.5801c-32 0 -48.79 -14.0498 -48.79 -39.21c0 -23.96 16.9805 -37.29 49.3506 -37.29zM197.119 -191.219c-12.6797 43.5801 -12.6797 93.5303 0 137.12c47.1396 15.6104 101.17 15.6104 148.31 0
c12.6797 -43.5898 12.6797 -93.54 0 -137.12c-47.1396 -14.2598 -101.17 -14.2598 -148.31 0z" />
    <glyph glyph-name="agrave" unicode="&#xe0;" horiz-adv-x="534" 
d="M365.09 642.64c-11.9902 -32.9902 -34.3105 -65.0693 -61.2607 -88.0693c-50.9697 38.5703 -117.029 76.1104 -181.339 103.04c14.7197 46.96 45.2598 90.9795 83.8398 120.84c58.8301 -35.6299 116.66 -85.1104 158.76 -135.811zM252.399 -9.99902
c-148.25 0 -233.21 65.3906 -233.21 179.501c0 102.7 69.5596 161.55 193.399 161.55c43.7402 0 83.8906 -7.2998 109.601 -18.5098l0.200195 6.5498c0.44043 34.5898 -33.75 54.1797 -96.04 54.1797c-41.2998 0 -86.8896 -8.74023 -125.17 -23.9902
c-28.0898 31.8398 -45.4297 83.2197 -43.9395 132.22c55.9102 30.8301 127.93 48.5 197.699 48.5c153.53 0 249.971 -60.4805 249.971 -262.33v-226.07c-63.6504 -32.7998 -155.641 -51.5996 -252.511 -51.5996zM268.279 131.312c16.0498 0 31.6992 2.51074 42.3496 6.82031
v59.0996c-10.9502 6.7002 -26.7998 10.5801 -42.9102 10.5801c-32 0 -48.79 -14.0498 -48.79 -39.21c0 -23.96 16.9805 -37.29 49.3506 -37.29z" />
    <glyph glyph-name="uni1EA3" unicode="&#x1ea3;" horiz-adv-x="534" 
d="M282.79 795.38c65.5996 0 108.81 -42.1104 108.81 -106.021c0 -63.3096 -41.7803 -111.21 -114.71 -131.49c-25.71 12.7695 -42.4795 36.5693 -46.4199 65.7793c17.9404 11.2803 28.2305 25.7705 28.2305 39.7607c0 11.1104 -6.7998 17.4805 -18.6699 17.4805
c-10.3398 0 -21.6895 -5.9502 -31.1592 -16.3398c-26.21 14.2402 -42.75 37.8604 -45.75 65.2607c26.0195 41.6797 69.6094 65.5693 119.669 65.5693zM252.391 -10c-148.25 0 -233.21 65.3906 -233.21 179.501c0 102.7 69.5596 161.55 193.399 161.55
c43.7402 0 83.8906 -7.2998 109.601 -18.5098l0.200195 6.5498c0.44043 34.5898 -33.75 54.1797 -96.04 54.1797c-41.2998 0 -86.8896 -8.74023 -125.17 -23.9902c-28.0898 31.8398 -45.4297 83.2197 -43.9395 132.22c55.9102 30.8301 127.93 48.5 197.699 48.5
c153.53 0 249.971 -60.4805 249.971 -262.33v-226.07c-63.6504 -32.7998 -155.641 -51.5996 -252.511 -51.5996zM268.271 131.311c16.0498 0 31.6992 2.51074 42.3496 6.82031v59.0996c-10.9502 6.7002 -26.7998 10.5801 -42.9102 10.5801
c-32 0 -48.79 -14.0498 -48.79 -39.21c0 -23.96 16.9805 -37.29 49.3506 -37.29z" />
    <glyph glyph-name="uni0203" unicode="&#x203;" horiz-adv-x="534" 
d="M309.56 571.64c-3.51953 16.7598 -16.8799 27.5 -34.3496 27.5c-16.8301 0 -29.71 -10.7402 -33.1299 -27.5c-32.7002 -10.8398 -79.1006 -10.8398 -111.801 0c3.90039 83.5098 56.6602 131.359 144.83 131.359c89.0303 0 142.311 -47.8496 146.261 -131.359
c-32.71 -10.8398 -79.1104 -10.8398 -111.811 0zM252.399 -10c-148.25 0 -233.21 65.3906 -233.21 179.501c0 102.7 69.5596 161.55 193.399 161.55c43.7402 0 83.8906 -7.2998 109.601 -18.5098l0.200195 6.5498c0.44043 34.5898 -33.75 54.1797 -96.04 54.1797
c-41.2998 0 -86.8896 -8.74023 -125.17 -23.9902c-28.0898 31.8398 -45.4297 83.2197 -43.9395 132.22c55.9102 30.8301 127.93 48.5 197.699 48.5c153.53 0 249.971 -60.4805 249.971 -262.33v-226.07c-63.6504 -32.7998 -155.641 -51.5996 -252.511 -51.5996z
M268.279 131.311c16.0498 0 31.6992 2.51074 42.3496 6.82031v59.0996c-10.9502 6.7002 -26.7998 10.5801 -42.9102 10.5801c-32 0 -48.79 -14.0498 -48.79 -39.21c0 -23.96 16.9805 -37.29 49.3506 -37.29z" />
    <glyph glyph-name="amacron" unicode="&#x101;" horiz-adv-x="534" 
d="M118.46 574.86c-13.4502 42.46 -13.4502 91.1201 0 133.58h314.72c13.46 -42.46 13.46 -91.1201 0 -133.58h-314.72zM252.4 -10c-148.25 0 -233.21 65.3906 -233.21 179.501c0 102.7 69.5596 161.55 193.399 161.55c43.7402 0 83.8906 -7.2998 109.601 -18.5098
l0.200195 6.5498c0.44043 34.5898 -33.75 54.1797 -96.04 54.1797c-41.2998 0 -86.8896 -8.74023 -125.17 -23.9902c-28.0898 31.8398 -45.4297 83.2197 -43.9395 132.22c55.9102 30.8301 127.93 48.5 197.699 48.5c153.53 0 249.971 -60.4805 249.971 -262.33v-226.07
c-63.6504 -32.7998 -155.641 -51.5996 -252.511 -51.5996zM268.28 131.311c16.0498 0 31.6992 2.51074 42.3496 6.82031v59.0996c-10.9502 6.7002 -26.7998 10.5801 -42.9102 10.5801c-32 0 -48.79 -14.0498 -48.79 -39.21c0 -23.96 16.9805 -37.29 49.3506 -37.29z" />
    <glyph glyph-name="aogonek" unicode="&#x105;" horiz-adv-x="534" 
d="M455.47 -50.5596c25.7002 -11.2695 44.8389 -34.6201 52.5488 -64.1104c-22.5303 -45.8799 -74.1699 -75.7295 -131.3 -75.7295c-70.3496 0 -115.899 35.79 -115.899 91.04c0 34.46 18.6201 66.4199 51.21 91.7695
c-19.5195 -1.58984 -39.4697 -2.39941 -59.6299 -2.39941c-148.25 0 -233.21 65.3799 -233.21 179.49c0 102.7 69.5596 161.55 193.399 161.55c43.7402 0 83.8906 -7.2998 109.601 -18.5098l0.200195 6.5498c0.44043 34.5898 -33.75 54.1797 -96.04 54.1797
c-41.2998 0 -86.8896 -8.74023 -125.17 -23.9902c-28.0898 31.8398 -45.4297 83.2197 -43.9395 132.22c55.9102 30.8301 127.93 48.5 197.699 48.5c153.53 0 249.971 -60.4805 249.971 -262.33v-226.07c-3.32031 -1.70996 -6.7207 -3.37988 -10.1904 -5.01953
c-57.4102 -29.0996 -79.0801 -54.9492 -79.0801 -76.3896c0 -11.9297 7.12012 -18.7695 19.5303 -18.7695c6.71973 0 14.1094 2.91992 20.2998 8.01953zM310.629 138.13l-0.000976562 59.1006c-10.9502 6.7002 -26.7998 10.5801 -42.9102 10.5801
c-32 0 -48.79 -14.0498 -48.79 -39.21c0 -23.96 16.9805 -37.29 49.3506 -37.29c16.0498 0 31.7002 2.50977 42.3506 6.81934z" />
    <glyph glyph-name="aring" unicode="&#xe5;" horiz-adv-x="534" 
d="M275.11 556.99c-71.4297 0 -118.489 48.0586 -118.489 121.019c0 72.9502 47.6299 121.021 119.91 121.021c71.4297 0 118.489 -47.4502 118.489 -119.47c0 -73.8896 -47.6201 -122.569 -119.91 -122.569zM275.23 651.109c16.2002 0 26.8701 11.1885 26.8701 28.1885
c0 15.4404 -10.21 25.6104 -25.6904 25.6104c-16.2002 0 -26.8604 -10.6797 -26.8604 -26.8994s10.2002 -26.8994 25.6807 -26.8994zM252.4 -10.0029c-148.25 0 -233.21 65.3906 -233.21 179.501c0 102.7 69.5596 161.55 193.399 161.55
c43.7402 0 83.8906 -7.2998 109.601 -18.5098l0.200195 6.5498c0.44043 34.5898 -33.75 54.1797 -96.04 54.1797c-41.2998 0 -86.8896 -8.74023 -125.17 -23.9902c-28.0898 31.8398 -45.4297 83.2197 -43.9395 132.22c55.9102 30.8301 127.93 48.5 197.699 48.5
c153.53 0 249.971 -60.4805 249.971 -262.33v-226.07c-63.6504 -32.7998 -155.641 -51.5996 -252.511 -51.5996zM268.28 131.308c16.0498 0 31.6992 2.51074 42.3496 6.82031v59.0996c-10.9502 6.7002 -26.7998 10.5801 -42.9102 10.5801
c-32 0 -48.79 -14.0498 -48.79 -39.21c0 -23.96 16.9805 -37.29 49.3506 -37.29z" />
    <glyph glyph-name="aringacute" unicode="&#x1fb;" horiz-adv-x="534" 
d="M218.44 894.72c38.3701 46.21 91.0889 91.3086 144.699 123.789c35.1699 -27.2197 63.0098 -67.3496 76.4199 -110.149c-58.6104 -24.5498 -118.83 -58.7598 -165.28 -93.9102c-24.5596 20.96 -44.9092 50.2002 -55.8389 80.2705zM274.659 556.988
c-71.4297 0 -118.489 48.0586 -118.489 121.019c0 72.9502 47.6201 121.021 119.91 121.021c71.4297 0 118.489 -47.4502 118.489 -119.47c0 -73.8896 -47.6299 -122.569 -119.91 -122.569zM274.779 651.107c16.2002 0 26.8604 11.1885 26.8604 28.1885
c0 15.4404 -10.2002 25.6104 -25.6807 25.6104c-16.2002 0 -26.8701 -10.6797 -26.8701 -26.8994s10.21 -26.8994 25.6904 -26.8994zM252.399 -10.0049c-148.25 0 -233.21 65.3906 -233.21 179.501c0 102.7 69.5596 161.55 193.399 161.55
c43.7402 0 83.8906 -7.2998 109.601 -18.5098l0.200195 6.5498c0.44043 34.5898 -33.75 54.1797 -96.04 54.1797c-41.2998 0 -86.8896 -8.74023 -125.17 -23.9902c-28.0898 31.8398 -45.4297 83.2197 -43.9395 132.22c55.9102 30.8301 127.93 48.5 197.699 48.5
c153.53 0 249.971 -60.4805 249.971 -262.33v-226.07c-63.6504 -32.7998 -155.641 -51.5996 -252.511 -51.5996zM268.279 131.306c16.0498 0 31.6992 2.51074 42.3496 6.82031v59.0996c-10.9502 6.7002 -26.7998 10.5801 -42.9102 10.5801
c-32 0 -48.79 -14.0498 -48.79 -39.21c0 -23.96 16.9805 -37.29 49.3506 -37.29z" />
    <glyph glyph-name="atilde" unicode="&#xe3;" horiz-adv-x="534" 
d="M394.35 723.28c37.3604 -1.33984 69.3018 -17.291 88.4121 -44.1006c-26.7598 -79.21 -80.0693 -124.47 -142.64 -124.47c-59.7002 0 -85.46 38.3799 -125.41 38.3799c-22.2197 0 -42.5801 -15.4297 -55.8896 -42.3799
c-37.3604 1.33984 -69.3008 17.2998 -88.4111 44.0996c26.7598 79.2197 80.0693 124.47 142.64 124.47c59.9297 0 85.8096 -38.3799 125.42 -38.3799c22.2197 0 42.5693 15.4404 55.8789 42.3809zM252.4 -10.001c-148.25 0 -233.21 65.3906 -233.21 179.501
c0 102.7 69.5596 161.55 193.399 161.55c43.7402 0 83.8906 -7.2998 109.601 -18.5098l0.200195 6.5498c0.44043 34.5898 -33.75 54.1797 -96.04 54.1797c-41.2998 0 -86.8896 -8.74023 -125.17 -23.9902c-28.0898 31.8398 -45.4297 83.2197 -43.9395 132.22
c55.9102 30.8301 127.93 48.5 197.699 48.5c153.53 0 249.971 -60.4805 249.971 -262.33v-226.07c-63.6504 -32.7998 -155.641 -51.5996 -252.511 -51.5996zM268.28 131.31c16.0498 0 31.6992 2.51074 42.3496 6.82031v59.0996
c-10.9502 6.7002 -26.7998 10.5801 -42.9102 10.5801c-32 0 -48.79 -14.0498 -48.79 -39.21c0 -23.96 16.9805 -37.29 49.3506 -37.29z" />
    <glyph glyph-name="ae" unicode="&#xe6;" horiz-adv-x="845" 
d="M770.15 177.16c30.6396 -29.4697 47.2197 -80.6221 42.8096 -131.362c-54.3896 -35.1201 -125.569 -55.7998 -197.459 -55.7998c-80.5195 0 -143.76 24.5195 -186.74 70.4199c-46.29 -44.9004 -113.58 -70.4199 -197.43 -70.4199c-131.64 0 -217.72 63.3604 -217.72 173
c0 106.25 78.7998 168.04 199.2 168.04c37.0898 0 71.8398 -5.75 105.57 -21.7998v1.40039c0 43.29 -34.9502 64.9004 -98.8301 64.9004c-38.4102 0 -82.3301 -7.78027 -123.61 -23.9902c-27.8096 31.9004 -45.21 81.0703 -44.1104 129.95
c56.3604 32.4199 124.74 48.5 190.5 48.5c78.7305 0 141.54 -22.5098 185.44 -64.6797c39.8701 42.9004 98.0703 64.6807 174 64.6807c137.64 0 218.3 -68.2803 221.42 -187.42c1.08008 -41.4805 -4.7998 -86.5 -16.1602 -122.61
c-88.9902 -18.6299 -190.931 -20.1494 -281.301 -3.55957c16.8203 -46.1299 58.3203 -68.21 126.48 -68.21c41.8496 0 85.1895 9.9502 117.939 28.96zM587.7 384.389c-35.0303 0 -56.4795 -18.7295 -65.5693 -57.7793c43.1797 -5.23047 81.9492 -5.07031 109.079 0.540039
c1.08984 6.59961 1.70996 14.5195 1.70996 21.7393c0 23.0801 -15.7197 35.5 -45.2197 35.5zM306.011 178.399l-0.00195312 19.2891c-12.9697 6.48047 -28.8994 10.1104 -43.709 10.1104c-31.4297 0 -48.8799 -14.3701 -48.8799 -38.7803
c0 -23.2197 18.0303 -37.7197 47.9707 -37.7197c28.21 0 44.6201 16.9004 44.6201 47.1006z" />
    <glyph glyph-name="aeacute" unicode="&#x1fd;" horiz-adv-x="845" 
d="M419.48 555.57c-26.9502 23 -49.2705 55.0791 -61.2705 88.0693c42.0996 50.7002 99.9395 100.181 158.76 135.811c38.5801 -29.8604 69.1201 -73.8799 83.8398 -120.84c-64.3096 -26.9297 -130.369 -64.4697 -181.329 -103.04zM770.15 177.159
c30.6396 -29.4697 47.2197 -80.6221 42.8096 -131.362c-54.3896 -35.1201 -125.569 -55.7998 -197.459 -55.7998c-80.5195 0 -143.76 24.5195 -186.74 70.4199c-46.29 -44.9004 -113.58 -70.4199 -197.43 -70.4199c-131.64 0 -217.72 63.3604 -217.72 173
c0 106.25 78.7998 168.04 199.2 168.04c37.0898 0 71.8398 -5.75 105.57 -21.7998v1.40039c0 43.29 -34.9502 64.9004 -98.8301 64.9004c-38.4102 0 -82.3301 -7.78027 -123.61 -23.9902c-27.8096 31.9004 -45.21 81.0703 -44.1104 129.95
c56.3604 32.4199 124.74 48.5 190.5 48.5c78.7305 0 141.54 -22.5098 185.44 -64.6797c39.8701 42.9004 98.0703 64.6807 174 64.6807c137.64 0 218.3 -68.2803 221.42 -187.42c1.08008 -41.4805 -4.7998 -86.5 -16.1602 -122.61
c-88.9902 -18.6299 -190.931 -20.1494 -281.301 -3.55957c16.8203 -46.1299 58.3203 -68.21 126.48 -68.21c41.8496 0 85.1895 9.9502 117.939 28.96zM587.7 384.388c-35.0303 0 -56.4795 -18.7295 -65.5693 -57.7793c43.1797 -5.23047 81.9492 -5.07031 109.079 0.540039
c1.08984 6.59961 1.70996 14.5195 1.70996 21.7393c0 23.0801 -15.7197 35.5 -45.2197 35.5zM306.011 178.398l-0.00195312 19.2891c-12.9697 6.48047 -28.8994 10.1104 -43.709 10.1104c-31.4297 0 -48.8799 -14.3701 -48.8799 -38.7803
c0 -23.2197 18.0303 -37.7197 47.9707 -37.7197c28.21 0 44.6201 16.9004 44.6201 47.1006z" />
    <glyph glyph-name="b" unicode="b" horiz-adv-x="582" 
d="M286.29 -10c-93.5996 0 -183.86 18.7998 -247.771 51.5996v660.8c66.7402 16.9502 143.25 16.9502 210 0v-218.85c28.6904 28.1201 72.3105 46.4502 121.461 46.4502c122.04 0 187.8 -91.5996 187.8 -252c0 -183.09 -98.9004 -288 -271.49 -288zM290.799 173.35
c39.3701 0 55.1406 27.4795 55.1406 92.0498c0 58.0498 -13.9805 82.7695 -46.8301 82.7695c-34.5098 0 -52.3701 -29.0098 -52.3701 -82.9902v-82.5098c11.8496 -6.46973 25.75 -9.31934 44.0596 -9.31934z" />
    <glyph glyph-name="c" unicode="c" horiz-adv-x="464" 
d="M279.87 -10c-162.67 0 -255.88 95.0713 -255.88 260.991c0 169.09 100.56 279.01 254.369 279.01c75.1602 0 135.26 -29.8398 164.99 -81.9102c-14.3701 -54.8398 -50.54 -101.2 -99.0498 -127.08c-9.48047 15.7305 -24.2705 24.7402 -42.9004 24.7402
c-43.6699 0 -63.79 -27.1904 -63.79 -85.75c0 -59.5801 29.2305 -87.2705 91.9609 -87.2705c29.0098 0 57.4297 4.83008 78.96 15.0098c28.7305 -39.4297 44.5 -97.2998 43.21 -158.74c-47.8701 -24.8301 -104.84 -39 -171.87 -39z" />
    <glyph glyph-name="cacute" unicode="&#x107;" horiz-adv-x="464" 
d="M213.64 643.64c42.0996 50.7002 99.9395 100.18 158.76 135.81c38.5801 -29.8604 69.1201 -73.8799 83.8398 -120.84c-64.3096 -26.9297 -130.369 -64.4697 -181.329 -103.04c-26.9502 23 -49.2705 55.0801 -61.2705 88.0703zM279.87 -10.001
c-162.67 0 -255.88 95.0713 -255.88 260.991c0 169.09 100.56 279.01 254.369 279.01c75.1602 0 135.26 -29.8398 164.99 -81.9102c-14.3701 -54.8398 -50.54 -101.2 -99.0498 -127.08c-9.48047 15.7305 -24.2705 24.7402 -42.9004 24.7402
c-43.6699 0 -63.79 -27.1904 -63.79 -85.75c0 -59.5801 29.2305 -87.2705 91.9609 -87.2705c29.0098 0 57.4297 4.83008 78.96 15.0098c28.7305 -39.4297 44.5 -97.2998 43.21 -158.74c-47.8701 -24.8301 -104.84 -39 -171.87 -39z" />
    <glyph glyph-name="ccaron" unicode="&#x10d;" horiz-adv-x="464" 
d="M438.37 662.84c-35.6299 -25.75 -72.9912 -60.25 -100.981 -93.8496c-37.5498 -10.5098 -80.5195 -10.5098 -118.069 0c-27.9902 33.5996 -65.3398 68.0996 -100.979 93.8496c7.74023 31.2998 29.1006 56.1797 58.6406 68.3096
c34.2695 -12.2402 71 -31.0205 101.38 -51.8701c30.1602 20.8799 66.5605 39.6602 100.49 51.8701c29.7803 -12.0898 51.46 -36.9795 59.5195 -68.3096zM279.869 -10c-162.67 0 -255.88 95.0713 -255.88 260.991c0 169.09 100.56 279.01 254.369 279.01
c75.1602 0 135.26 -29.8398 164.99 -81.9102c-14.3701 -54.8398 -50.54 -101.2 -99.0498 -127.08c-9.48047 15.7305 -24.2705 24.7402 -42.9004 24.7402c-43.6699 0 -63.79 -27.1904 -63.79 -85.75c0 -59.5801 29.2305 -87.2705 91.9609 -87.2705
c29.0098 0 57.4297 4.83008 78.96 15.0098c28.7305 -39.4297 44.5 -97.2998 43.21 -158.74c-47.8701 -24.8301 -104.84 -39 -171.87 -39z" />
    <glyph glyph-name="ccedilla" unicode="&#xe7;" horiz-adv-x="464" 
d="M451.74 29c-37.2197 -19.3096 -79.9385 -32.167 -128.618 -36.9365l-6.21973 -20.75h0.0996094c44.46 -4.19043 73.0996 -36.4805 73.0996 -82.2109c0 -64.1602 -44.9502 -105.73 -114.49 -105.73c-67.0098 0 -114.21 31.5996 -129.57 86.75
c24.2402 20.2598 56.1699 29.5498 88.3496 25.7197c3.83984 -9.71973 12.0898 -15.2793 22.6602 -15.2793c14.3496 0 22.5693 7.32031 22.5693 20.1006c0 13.1396 -9.00977 19.9297 -26.5801 20.0293l-45.3496 0.290039l21.0898 72.4297
c-130.94 18.3398 -204.79 109.899 -204.79 257.579c0 169.09 100.56 279.01 254.369 279.01c75.1602 0 135.26 -29.8398 164.99 -81.9102c-14.3701 -54.8398 -50.54 -101.2 -99.0498 -127.08c-9.48047 15.7305 -24.2705 24.7402 -42.9004 24.7402
c-43.6699 0 -63.79 -27.1904 -63.79 -85.75c0 -59.5801 29.2305 -87.2705 91.9609 -87.2705c29.0098 0 57.4297 4.83008 78.96 15.0098c28.7305 -39.4297 44.5 -97.2998 43.21 -158.74z" />
    <glyph glyph-name="ccircumflex" unicode="&#x109;" horiz-adv-x="464" 
d="M438.37 619.16c-8.05957 -31.3398 -29.7383 -56.2197 -59.5186 -68.3096c-33.9297 12.2002 -70.3301 30.9805 -100.49 51.8701c-30.3799 -20.8496 -67.1104 -39.6299 -101.38 -51.8701c-29.54 12.1299 -50.9004 37.0098 -58.6406 68.3096
c35.6396 25.75 72.9893 60.25 100.979 93.8496c37.5498 10.5 80.5195 10.5 118.069 0c27.9902 -33.5996 65.3506 -68.0996 100.98 -93.8496zM279.871 -10c-162.67 0 -255.88 95.0713 -255.88 260.991c0 169.09 100.56 279.01 254.369 279.01
c75.1602 0 135.26 -29.8398 164.99 -81.9102c-14.3701 -54.8398 -50.54 -101.2 -99.0498 -127.08c-9.48047 15.7305 -24.2705 24.7402 -42.9004 24.7402c-43.6699 0 -63.79 -27.1904 -63.79 -85.75c0 -59.5801 29.2305 -87.2705 91.9609 -87.2705
c29.0098 0 57.4297 4.83008 78.96 15.0098c28.7305 -39.4297 44.5 -97.2998 43.21 -158.74c-47.8701 -24.8301 -104.84 -39 -171.87 -39z" />
    <glyph glyph-name="cdotaccent" unicode="&#x10b;" horiz-adv-x="464" 
d="M177.43 571.16c-17.25 52.9404 -17.25 113.61 0 166.561c64.1602 18.96 137.69 18.96 201.86 0c17.2402 -52.9502 17.2402 -113.62 0 -166.561c-64.1699 -17.3203 -137.7 -17.3203 -201.86 0zM279.87 -10c-162.67 0 -255.88 95.0713 -255.88 260.991
c0 169.09 100.56 279.01 254.369 279.01c75.1602 0 135.26 -29.8398 164.99 -81.9102c-14.3701 -54.8398 -50.54 -101.2 -99.0498 -127.08c-9.48047 15.7305 -24.2705 24.7402 -42.9004 24.7402c-43.6699 0 -63.79 -27.1904 -63.79 -85.75
c0 -59.5801 29.2305 -87.2705 91.9609 -87.2705c29.0098 0 57.4297 4.83008 78.96 15.0098c28.7305 -39.4297 44.5 -97.2998 43.21 -158.74c-47.8701 -24.8301 -104.84 -39 -171.87 -39z" />
    <glyph glyph-name="d" unicode="d" horiz-adv-x="578" 
d="M287.03 -10c-175.86 0 -263.041 88.2891 -263.041 266.399c0 173.93 75.9805 273.6 208.561 273.6c35.5098 0 72.2002 -8.7998 100.71 -24.1494v196.55c66.7402 17.3604 143.25 17.3604 210 0v-660.8c-68.79 -32.7998 -162.13 -51.5996 -256.229 -51.5996z
M290.989 173.349c16.5498 0 32.5898 3.31152 44.04 9.07129v148.18c-11.5 10.8496 -28.5303 17.5693 -44.8701 17.5693c-38.1104 0 -54.3301 -27.4004 -54.3301 -91.7705c0 -58.25 16.4697 -83.0498 55.1602 -83.0498z" />
    <glyph glyph-name="eth" unicode="&#xf0;" horiz-adv-x="576" 
d="M313.36 669.93c159.43 -66.9404 238.65 -197.569 238.65 -392.919c0 -183.33 -95.7002 -287.01 -263.97 -287.01c-176.07 0 -264.051 80.0098 -264.051 260c0 147.06 73.3604 241.989 186.841 241.989c59.9004 0 107.391 -20.5996 139.2 -58.75
c-27.5596 53.6396 -75.8896 87.1797 -155.13 108.64l-39.6602 -42.8799c-10.8203 3.94043 -19.6104 12.2402 -24.21 22.8506l26.6201 28.7803c-19.9004 4.05957 -41.4307 7.55957 -64.7109 10.5996c-7.67969 58.1396 3.82031 114.52 31.5508 154.77
c57.6201 -6.5 109.39 -17.5898 155.319 -33.3203l44.8096 48.4502c10.8203 -3.94043 19.6104 -12.2402 24.21 -22.8604zM288.041 156.471c35.3203 0 50.3604 25.5303 50.3604 85.5205c0 57.29 -17.6104 85.3301 -54.6006 85.3301
c-32.4004 0 -46.1904 -26.0498 -46.1904 -86.3301c0 -59.2803 14.4502 -84.5205 50.4307 -84.5205z" />
    <glyph glyph-name="dcaron" unicode="&#x10f;" horiz-adv-x="780" 
d="M752.31 722.78c6 -19.5195 9.44922 -46.3408 9.44922 -73.6104c0 -63.8096 -25.0195 -125.939 -68.6592 -170.529c-29.2803 3.41992 -54 19.4297 -66.5098 43.5098c13.9502 16.1396 23.2598 35.04 25.5498 51.8799c-15.4805 1.44043 -31.3301 4.10059 -43.5098 7.32031
c-12.1504 44.96 -12.1504 96.4795 0 141.43c45.6699 12.2695 98.0098 12.2695 143.68 0zM287.028 -10.001c-175.86 0 -263.041 88.2891 -263.041 266.399c0 173.93 75.9805 273.6 208.561 273.6c35.5098 0 72.2002 -8.7998 100.71 -24.1494v196.55
c66.7402 17.3604 143.25 17.3604 210 0v-660.8c-68.79 -32.7998 -162.13 -51.5996 -256.229 -51.5996zM290.987 173.348c16.5498 0 32.5898 3.31152 44.04 9.07129v148.18c-11.5 10.8496 -28.5303 17.5693 -44.8701 17.5693c-38.1104 0 -54.3301 -27.4004 -54.3301 -91.7705
c0 -58.25 16.4697 -83.0498 55.1602 -83.0498z" />
    <glyph glyph-name="dcroat" unicode="&#x111;" horiz-adv-x="613" 
d="M593.16 658.63c12.8604 -32.7305 12.8594 -70.2412 -0.000976562 -102.961h-49.9004v-514.07c-68.79 -32.7998 -162.13 -51.5996 -256.229 -51.5996c-175.86 0 -263.04 88.29 -263.04 266.4c0 173.93 75.9805 273.6 208.561 273.6
c35.5098 0 72.2002 -8.7998 100.71 -24.1494v49.8203h-95.0098c-12.8604 32.7197 -12.8604 70.2295 0 102.96h95.0098v43.7695c66.7402 17.3604 143.25 17.3604 210 0v-43.7695h49.9004zM335.029 182.419v148.182c-11.5 10.8496 -28.5303 17.5693 -44.8701 17.5693
c-38.1104 0 -54.3301 -27.4004 -54.3301 -91.7705c0 -58.25 16.4697 -83.0498 55.1602 -83.0498c16.5498 0 32.5898 3.30957 44.04 9.06934z" />
    <glyph glyph-name="uni1E0D" unicode="&#x1e0d;" horiz-adv-x="578" 
d="M287.03 -10c-175.86 0 -263.041 88.2891 -263.041 266.399c0 173.93 75.9805 273.6 208.561 273.6c35.5098 0 72.2002 -8.7998 100.71 -24.1494v196.55c66.7402 17.3604 143.25 17.3604 210 0v-660.8c-68.79 -32.7998 -162.13 -51.5996 -256.229 -51.5996z
M290.989 173.349c16.5498 0 32.5898 3.31152 44.04 9.07129v148.18c-11.5 10.8496 -28.5303 17.5693 -44.8701 17.5693c-38.1104 0 -54.3301 -27.4004 -54.3301 -91.7705c0 -58.25 16.4697 -83.0498 55.1602 -83.0498zM213.72 -191.229
c-12.6699 43.5801 -12.6699 93.5303 0 137.12c47.1396 15.6104 101.17 15.6104 148.32 0c12.6699 -43.5898 12.6699 -93.54 0 -137.12c-47.1504 -14.2598 -101.181 -14.2598 -148.32 0z" />
    </font>
</defs>
</svg>
