<svg width="27" height="24" viewBox="0 0 27 24" fill="none" xmlns="http://www.w3.org/2000/svg">
<path d="M26.0197 2.8494C26.0197 8.79179 26.0197 14.7388 26.0197 20.6812C26.005 20.7317 25.9854 20.7823 25.9756 20.8328C25.6864 22.4046 24.2945 23.526 22.6037 23.526C16.5117 23.5306 10.4198 23.5306 4.32783 23.526C2.44584 23.526 0.931433 22.1013 0.926532 20.3365C0.921631 14.6193 0.91673 8.90209 0.931433 3.1803C0.936334 1.90267 1.59797 0.942142 2.80852 0.353878C3.16629 0.183832 3.57797 0.114895 3.96515 0C10.3022 0 16.6441 0 22.981 0C23.0252 0.0137874 23.0742 0.0321707 23.1183 0.0413623C24.5445 0.289536 25.4659 1.07082 25.8922 2.36225C25.9462 2.5231 25.9756 2.68855 26.0197 2.8494ZM14.8405 9.5501H14.8454C14.8454 9.15026 14.8601 8.75502 14.8405 8.35519C14.816 7.84505 14.6052 7.61067 14.0661 7.59228C13.2281 7.56011 12.3851 7.56471 11.547 7.59228C11.3363 7.60147 11.1059 7.73935 10.9295 7.86803C10.7187 8.02888 10.7726 8.15757 11.0373 8.2265C11.4784 8.3414 11.6793 8.5574 11.7038 8.97103C11.7283 9.46737 11.7528 9.96832 11.743 10.4647C11.7332 10.768 11.6695 11.0713 11.596 11.37C11.5372 11.6136 11.351 11.6734 11.1353 11.5217C10.9883 11.4206 10.8511 11.2919 10.7383 11.154C10.0424 10.3176 9.49839 9.39384 9.0769 8.41034C8.94457 8.09782 8.70933 7.9048 8.34175 7.89561C7.6066 7.88182 6.87145 7.86803 6.1363 7.87263C5.6707 7.87263 5.52367 8.09782 5.71481 8.50225C5.92556 8.94805 6.1461 9.39384 6.37155 9.83504C7.15081 11.3333 8.01828 12.781 9.19453 14.0356C10.5031 15.4327 12.1645 16.067 14.1445 15.9383C14.6101 15.9061 14.7866 15.7407 14.8552 15.3041C14.9042 14.9869 14.9679 14.6698 15.0561 14.3619C15.1541 14.008 15.458 13.9161 15.7717 14.1367C15.9285 14.247 16.0706 14.3757 16.2079 14.509C16.5264 14.8169 16.8352 15.134 17.1538 15.4419C17.5017 15.7866 17.9281 15.9659 18.4378 15.9704C19.0995 15.9796 19.7611 15.9888 20.4227 15.9888C20.5452 15.9888 20.6678 15.975 20.7854 15.9521C21.2559 15.8647 21.4421 15.5155 21.2363 15.1064C21.1971 15.0329 21.1481 14.9594 21.0991 14.8904C20.5894 14.1505 19.9032 13.5576 19.2416 12.9418C18.6339 12.3765 18.6241 12.2341 19.1338 11.586C19.5945 10.9978 20.0748 10.4279 20.506 9.82125C20.7952 9.41222 21.0501 8.96643 21.2559 8.51604C21.4225 8.14378 21.2461 7.91858 20.8099 7.91399C19.8787 7.89561 18.9475 7.90939 18.0163 7.90939C17.7958 7.90939 17.6439 8.0151 17.5507 8.19433C17.4919 8.30463 17.4478 8.41953 17.3988 8.52983C16.9626 9.53631 16.399 10.4739 15.6148 11.2827C15.4825 11.4206 15.3649 11.6366 15.1296 11.5677C14.8748 11.4987 14.865 11.246 14.8552 11.0483C14.8307 10.5474 14.8405 10.051 14.8405 9.5501Z" fill="white"/>
</svg>
