<svg width="25" height="24" viewBox="0 0 25 24" fill="none" xmlns="http://www.w3.org/2000/svg">
<path d="M24.1376 2.83115C24.1376 8.73547 24.1376 14.6444 24.1376 20.5487C24.1239 20.608 24.1056 20.6628 24.0919 20.7222C23.8317 22.0054 23.0828 22.8501 21.8316 23.2474C21.6581 23.3022 21.48 23.3342 21.3019 23.3798C15.3976 23.3798 9.48868 23.3798 3.58435 23.3798C3.54326 23.3661 3.49759 23.3479 3.4565 23.3387C1.8948 23.0876 0.762336 21.7816 0.762336 20.1971C0.75777 14.5211 0.75777 8.84506 0.762336 3.16906C0.762336 1.42014 2.17791 0.00456637 3.9314 0C9.61197 0 15.2971 0 20.9777 0.00456637C22.3978 0.00456637 23.6262 0.954372 24.0143 2.32885C24.0645 2.49324 24.0965 2.6622 24.1376 2.83115ZM19.7265 11.6488C19.6717 11.1739 19.6489 10.6944 19.553 10.2241C18.7721 6.31529 15.0231 3.78096 11.1097 4.51614C6.4566 5.38832 3.87204 10.4387 5.88581 14.722C5.94517 14.8453 5.96344 15.0188 5.93604 15.1558C5.71229 16.2883 5.47483 17.4207 5.24195 18.5486C5.16889 18.9002 5.31958 19.0463 5.66662 18.9641C6.79908 18.6993 7.92698 18.4299 9.05944 18.1696C9.1599 18.1468 9.28776 18.1605 9.37908 18.2061C10.6348 18.7769 11.9454 18.987 13.3153 18.8272C16.9319 18.4025 19.69 15.3065 19.7265 11.6488Z" fill="white"/>
<path d="M7.1801 16.9827C7.25773 16.5946 7.32623 16.2429 7.39929 15.8868C7.40385 15.8639 7.40842 15.8411 7.41755 15.8228C7.62761 15.1425 7.6961 14.4758 7.2349 13.8593C5.75083 10.3706 8.01575 6.46179 11.7876 5.99602C15.3493 5.55765 18.4773 8.62168 18.1074 12.1834C17.6873 16.1836 13.5 18.485 9.88796 16.6859C9.56375 16.5215 9.27607 16.4667 8.91989 16.5717C8.35823 16.7316 7.78286 16.8411 7.1801 16.9827ZM14.4498 15.1607C14.5502 15.147 14.7511 15.1333 14.9429 15.0922C15.5411 14.9644 15.8973 14.5306 16.217 14.0557C16.4681 13.6858 16.3311 13.3113 15.9019 13.1835C15.5959 13.0922 15.2763 13.0374 14.984 12.9141C14.4772 12.6994 14.089 12.7862 13.742 13.2246C13.5411 13.4849 13.3127 13.5077 13.0296 13.3433C12.1483 12.841 11.3994 12.1743 10.7875 11.3661C10.5957 11.1104 10.614 10.9094 10.8058 10.6583C10.8926 10.5441 11.0113 10.4391 11.0615 10.3112C11.1209 10.1605 11.1848 9.95963 11.1346 9.82264C10.9611 9.34773 10.7464 8.88196 10.5273 8.42533C10.3994 8.15591 10.066 8.03719 9.83316 8.20614C9.2852 8.60342 8.8377 9.08745 8.80573 9.81807C8.77377 10.4619 8.95642 11.0556 9.2852 11.599C10.1163 12.9689 11.267 14.0146 12.6917 14.7452C13.2031 15.01 13.7648 15.1516 14.4498 15.1607Z" fill="white"/>
</svg>
