<svg width="23" height="19" viewBox="0 0 23 19" fill="none" xmlns="http://www.w3.org/2000/svg">
<path d="M22.6555 5.35259V14.5757C22.6556 15.516 22.2958 16.4208 21.65 17.1043C21.0042 17.7878 20.1213 18.1983 19.1824 18.2515L18.974 18.2572H3.68152C2.74116 18.2572 1.83643 17.8975 1.15291 17.2516C0.469385 16.6058 0.0589029 15.7229 0.00566401 14.7841L0 14.5757V5.35259L10.9336 11.0799C11.0552 11.1436 11.1905 11.1769 11.3278 11.1769C11.4651 11.1769 11.6003 11.1436 11.722 11.0799L22.6555 5.35259ZM3.68152 0.132751H18.974C19.8866 0.132642 20.7666 0.471447 21.4435 1.08345C22.1204 1.69546 22.5459 2.53705 22.6374 3.44499L11.3278 9.36941L0.0181245 3.44499C0.105941 2.57311 0.501877 1.76114 1.13476 1.15504C1.76764 0.548944 2.59596 0.188469 3.47083 0.138416L3.68152 0.132751H18.974H3.68152Z" fill="#1A506F"/>
</svg>
