<svg width="14" height="19" viewBox="0 0 14 19" fill="none" xmlns="http://www.w3.org/2000/svg">
<path d="M6.79664 18.1244C5.57028 17.0398 4.43354 15.8508 3.39832 14.5697C1.8448 12.6459 8.53361e-07 9.78076 8.53361e-07 7.05055C-0.000672887 5.65621 0.397612 4.293 1.14445 3.13344C1.89129 1.97389 2.95311 1.07011 4.19554 0.536487C5.43796 0.00286584 6.80514 -0.136611 8.12404 0.135707C9.44295 0.408025 10.6543 1.0799 11.6048 2.0663C12.2376 2.71951 12.7392 3.49637 13.0805 4.35192C13.4218 5.20746 13.5961 6.1247 13.5933 7.05055C13.5933 9.78076 11.7485 12.6459 10.195 14.5697C9.15974 15.8508 8.02301 17.0398 6.79664 18.1244ZM6.79664 4.0304C6.02411 4.0304 5.28321 4.34859 4.73695 4.91498C4.19068 5.48137 3.8838 6.24956 3.8838 7.05055C3.8838 7.85154 4.19068 8.61973 4.73695 9.18612C5.28321 9.75251 6.02411 10.0707 6.79664 10.0707C7.56918 10.0707 8.31007 9.75251 8.85634 9.18612C9.4026 8.61973 9.70949 7.85154 9.70949 7.05055C9.70949 6.24956 9.4026 5.48137 8.85634 4.91498C8.31007 4.34859 7.56918 4.0304 6.79664 4.0304Z" fill="#1A506F"/>
</svg>
