<svg width="150" height="50" viewBox="0 0 150 50" fill="none" xmlns="http://www.w3.org/2000/svg">
<g opacity="0.4" clip-path="url(#clip0_19_46)">
<path d="M146.639 10.8659C144.85 9.79431 143.206 8.76559 141.538 7.80117C137.331 5.33653 133.148 5.67944 129.11 8.12265C126.789 9.53713 124.613 11.1445 122.365 12.6233C118.061 15.4308 113.467 17.6169 108.027 18.1741C104.086 18.5599 100.435 17.7669 96.8568 16.4167C92.9641 14.9379 89.6517 12.6662 86.3877 10.3301C83.0028 7.92976 79.2794 6.15093 74.7098 6.27952C70.7204 6.38668 67.408 7.95119 64.3858 10.0515C61.0009 12.3661 57.6885 14.745 53.7717 16.3524C47.7755 18.7956 41.8036 18.7956 35.7833 16.3738C31.9148 14.8307 28.6508 12.5161 25.3384 10.2444C23.6701 9.1085 21.8326 8.03692 19.9225 7.24395C15.9574 5.57228 11.9922 5.97948 8.26877 7.92976C6.62467 8.78703 5.05311 9.81574 3.26394 10.8873C2.20011 9.47284 1.06375 8.01549 0.0240946 6.51527C-0.0967951 6.34382 0.169162 5.82946 0.410942 5.63658C4.4003 2.72187 8.75233 0.407256 14.0473 0.107213C18.3752 -0.128535 22.292 1.22166 25.8461 3.34339C28.2156 4.75788 30.4158 6.38668 32.7127 7.90833C35.3481 9.66572 38.1769 11.1016 41.3926 11.7875C46.0347 12.7519 50.29 11.6374 54.1585 9.40854C56.673 7.95119 59.0425 6.25809 61.4603 4.67215C65.3529 2.10036 69.6324 0.342961 74.5405 0.150077C78.5541 5.52247e-05 82.3016 0.98591 85.6866 2.87189C88.4428 4.41497 91.0057 6.21523 93.6169 7.92976C96.0831 9.5157 98.6943 10.8659 101.62 11.5946C106.721 12.8805 111.484 11.8946 115.812 9.40854C118.689 7.75831 121.325 5.82946 124.081 4.0292C126.644 2.35754 129.352 0.943047 132.471 0.32153C137.089 -0.600031 141.247 0.557278 145.092 2.78617C146.567 3.64343 147.969 4.60786 149.395 5.52942C149.879 5.85089 150.242 6.1938 149.782 6.77245C148.743 8.12265 147.703 9.49427 146.639 10.8659Z" fill="#2C71B6"/>
<path d="M3.31237 26.8324C2.20019 25.3322 1.11218 23.9606 0.120883 22.5461C-0.0241851 22.3318 0.120883 21.7317 0.362662 21.5602C4.52127 18.5384 9.04255 16.138 14.5551 15.9666C17.9159 15.8594 21.1557 16.6738 23.9845 18.2597C26.6924 19.7814 29.2311 21.5388 31.8424 23.2319C34.913 25.2036 38.0319 27.1324 41.8762 27.7325C45.0919 28.2255 48.1866 27.8611 51.1847 26.6824C54.5696 25.3536 57.471 23.3605 60.2998 21.303C63.4187 19.0313 66.9245 17.3382 70.8414 16.4809C75.8704 15.3879 80.6576 16.1809 85.0338 18.4526C87.7901 19.8886 90.3046 21.7317 92.9158 23.3819C95.9139 25.2893 99.0087 27.0039 102.684 27.6682C107.64 28.5684 112.137 27.4111 116.248 25.0321C118.544 23.7034 120.6 22.0746 122.848 20.7244C125.121 19.3742 127.418 18.0454 129.86 17.0167C134.405 15.1093 138.926 15.7094 143.206 17.7883C145.358 18.8384 147.292 20.21 149.323 21.4316C149.976 21.8174 150.097 22.246 149.613 22.8675C148.719 23.9606 147.872 25.0964 147.05 26.2537C146.639 26.8324 146.301 26.7467 145.696 26.3823C143.81 25.225 141.925 24.0677 139.942 23.0604C137.016 21.5816 133.922 21.5602 131.069 23.0604C128.312 24.5178 125.749 26.2537 123.187 27.9683C119.149 30.6687 114.918 32.9618 109.889 33.8191C104.521 34.7407 99.4197 33.8405 94.7775 31.4188C91.5619 29.7471 88.6122 27.6468 85.5899 25.718C82.5919 23.8105 79.4487 22.3103 75.6528 22.1817C71.2524 22.0531 67.5774 23.682 64.2408 25.9966C60.8075 28.3969 57.4226 30.7973 53.3849 32.3618C46.5667 34.9979 39.9178 34.6121 33.5832 31.2687C30.3675 29.5756 27.4661 27.4539 24.4197 25.5251C23.4284 24.9036 22.4371 24.282 21.3975 23.7462C16.2959 21.153 11.4362 21.8174 6.74564 24.6035C5.68181 25.2679 4.61798 26.018 3.31237 26.8324Z" fill="#2C71B6"/>
<path d="M14.9903 31.8904C18.883 31.8475 22.2921 33.0905 25.4352 34.8908C27.7321 36.1981 29.8356 37.7626 32.0358 39.22C34.7921 41.0417 37.6451 42.7133 41.0542 43.4206C45.1161 44.2779 49.0329 43.7635 52.6112 41.9204C55.2466 40.5487 57.6886 38.9199 60.1306 37.2911C63.6122 34.9765 67.2147 32.9191 71.5909 32.2118C77.0793 31.3331 82.0842 32.469 86.678 35.1265C89.1683 36.5625 91.4652 38.2556 93.883 39.8201C96.47 41.4917 99.2505 42.8634 102.418 43.4634C106.649 44.2564 110.759 43.8278 114.434 41.8346C117.674 40.0772 120.648 37.9127 123.791 36.0052C125.508 34.9551 127.273 33.9478 129.159 33.1334C134.574 30.7974 139.749 31.6546 144.681 34.3336C146.349 35.2337 147.897 36.3696 149.516 37.3554C150.097 37.7198 150.169 38.0841 149.758 38.5985C148.888 39.7129 148.017 40.8488 147.22 41.9847C146.784 42.5847 146.422 42.6062 145.769 42.1775C144.028 41.0845 142.287 39.9701 140.45 39.0271C136.775 37.1625 133.124 37.5697 129.715 39.5415C127.103 41.0631 124.662 42.8419 122.147 44.5136C119.512 46.2496 116.731 47.7283 113.636 48.7356C107.616 50.7073 101.789 50.2573 96.059 47.8355C92.1905 46.2067 88.9749 43.7849 85.6141 41.5132C82.5194 39.4343 79.0861 37.9127 75.0725 37.9984C71.3008 38.0627 68.0368 39.4129 65.0629 41.3417C62.3066 43.1205 59.6712 45.0923 56.7698 46.6782C48.4526 51.2217 40.1112 50.9645 31.9874 46.2281C29.3762 44.7065 26.9584 42.9062 24.4197 41.256C21.7118 39.4986 18.8588 38.0841 15.4014 37.9769C11.412 37.8484 8.17215 39.4986 5.14991 41.5346C2.9739 43.0134 3.45745 42.7348 2.17602 41.1274C1.52322 40.313 0.846236 39.52 0.290143 38.6413C0.0967193 38.3413 0.120897 37.6555 0.362677 37.484C3.69923 34.9979 7.30175 32.9405 11.678 32.2118C12.7418 32.0404 13.8782 31.9975 14.9903 31.8904Z" fill="#2C71B6"/>
</g>
<defs>
<clipPath id="clip0_19_46">
<rect width="150" height="50" fill="white"/>
</clipPath>
</defs>
</svg>
