<svg width="17" height="17" viewBox="0 0 17 17" fill="none" xmlns="http://www.w3.org/2000/svg">
<path d="M16.8966 12.6759V15.2246C16.8976 15.4612 16.8491 15.6954 16.7543 15.9122C16.6595 16.129 16.5205 16.3236 16.3461 16.4836C16.1718 16.6435 15.9659 16.7653 15.7418 16.8411C15.5177 16.9169 15.2802 16.9451 15.0445 16.9238C12.4302 16.6397 9.91897 15.7464 7.71261 14.3155C5.65987 13.0112 3.91951 11.2708 2.61511 9.21805C1.1793 7.00167 0.285765 4.47823 0.00689581 1.85217C-0.0143348 1.61723 0.0135862 1.38045 0.0888809 1.15689C0.164176 0.933339 0.285194 0.727911 0.444232 0.553688C0.60327 0.379466 0.796842 0.240267 1.01262 0.144955C1.22841 0.0496424 1.46167 0.000304517 1.69757 8.2369e-05H4.24631C4.65862 -0.00397562 5.05834 0.142029 5.37096 0.410883C5.68358 0.679737 5.88777 1.05309 5.94548 1.46136C6.05305 2.27702 6.25256 3.07789 6.54019 3.84869C6.65449 4.15278 6.67923 4.48326 6.61147 4.80097C6.54371 5.11869 6.3863 5.41032 6.15787 5.64131L5.0789 6.72028C6.28833 8.84725 8.04943 10.6083 10.1764 11.8178L11.2554 10.7388C11.4864 10.5104 11.778 10.353 12.0957 10.2852C12.4134 10.2174 12.7439 10.2422 13.048 10.3565C13.8188 10.6441 14.6197 10.8436 15.4353 10.9512C15.848 11.0094 16.2249 11.2173 16.4943 11.5353C16.7638 11.8533 16.9069 12.2592 16.8966 12.6759Z" fill="#1A506F"/>
</svg>
