<svg width="108" height="108" viewBox="0 0 108 108" fill="none" xmlns="http://www.w3.org/2000/svg">
<path d="M73.5503 1.38834C74.7201 -0.62064 77.7981 0.646247 77.2147 2.89657L68.3143 37.2292C67.9306 38.7094 69.2824 40.0552 70.7608 39.6649L105.053 30.6109C107.301 30.0175 108.582 33.0898 106.578 34.2685L76.0075 52.2518C74.6896 53.0271 74.6938 54.9346 76.0153 55.704L106.666 73.5503C108.675 74.7201 107.408 77.7981 105.158 77.2147L70.8249 68.3143C69.3447 67.9306 67.999 69.2824 68.3893 70.7608L77.4433 105.053C78.0367 107.301 74.9644 108.582 73.7857 106.578L55.8024 76.0075C55.0271 74.6895 53.1196 74.6938 52.3502 76.0153L34.5038 106.666C33.3341 108.675 30.2561 107.408 30.8395 105.158L39.7399 70.8249C40.1236 69.3447 38.7718 67.999 37.2933 68.3893L3.00086 77.4433C0.753167 78.0367 -0.527501 74.9644 1.47623 73.7857L32.0467 55.8024C33.3646 55.0271 33.3604 53.1196 32.0389 52.3502L1.38835 34.5038C-0.620634 33.3341 0.646252 30.2561 2.89658 30.8395L37.2293 39.7399C38.7094 40.1236 40.0552 38.7718 39.6649 37.2933L30.6109 3.00085C30.0175 0.75316 33.0898 -0.527508 34.2685 1.47622L52.2518 32.0466C53.0271 33.3646 54.9346 33.3604 55.704 32.0389L73.5503 1.38834Z" fill="#F9D247"/>
</svg>
