<svg width="27" height="23" viewBox="0 0 27 23" fill="none" xmlns="http://www.w3.org/2000/svg">
<path fill-rule="evenodd" clip-rule="evenodd" d="M16.0343 3.33945C13.6635 4.33101 8.92534 6.38328 1.81971 9.49627C0.665872 9.95766 0.0614375 10.409 0.00641274 10.8504C-0.0865795 11.5963 0.842338 11.89 2.10729 12.29C2.27935 12.3444 2.45763 12.4007 2.64041 12.4605C3.88492 12.8673 5.55902 13.3432 6.42931 13.3621C7.21874 13.3792 8.09985 13.052 9.07261 12.3803C15.7116 7.87389 19.1387 5.59615 19.3539 5.54704C19.5057 5.5124 19.716 5.46884 19.8585 5.59622C20.0011 5.7236 19.987 5.96483 19.9719 6.02954C19.8799 6.42402 16.2336 9.8328 14.3466 11.5969C13.7583 12.1468 13.341 12.5369 13.2557 12.626C13.0647 12.8255 12.8699 13.0143 12.6827 13.1958C11.5266 14.3165 10.6595 15.157 12.7307 16.5294C13.7261 17.189 14.5226 17.7344 15.3172 18.2785C16.1849 18.8728 17.0504 19.4655 18.1703 20.2036C18.4556 20.3917 18.7281 20.587 18.9935 20.7773C20.0034 21.5012 20.9107 22.1516 22.0316 22.0479C22.6829 21.9876 23.3556 21.3718 23.6973 19.5351C24.5048 15.1944 26.092 5.78945 26.4588 1.9139C26.491 1.57435 26.4505 1.1398 26.4181 0.94904C26.3856 0.75828 26.3177 0.486487 26.0712 0.285288C25.7791 0.0470075 25.3283 -0.00324091 25.1267 0.00015742C24.2099 0.01657 22.8033 0.508361 16.0343 3.33945Z" fill="#1A506F"/>
</svg>
